<svg width="1363" height="297" viewBox="0 0 1363 297" fill="none" xmlns="http://www.w3.org/2000/svg">
<path d="M0 15C0 6.71573 6.71573 0 15 0H37V297H15C6.71573 297 0 290.284 0 282V15Z" fill="#00B69B"/>
<path d="M37 0H1066V297H37V0Z" fill="#F0F0F0"/>
<path d="M105.639 67.1426V49.4062H110.895V67.1426C110.895 68.8535 110.52 70.3242 109.77 71.5547C109.02 72.7734 107.994 73.7109 106.693 74.3672C105.404 75.0234 103.951 75.3516 102.334 75.3516C100.658 75.3516 99.1758 75.0703 97.8867 74.5078C96.5977 73.9453 95.584 73.084 94.8457 71.9238C94.1074 70.752 93.7383 69.2695 93.7383 67.4766H99.0293C99.0293 68.4141 99.1582 69.1582 99.416 69.709C99.6855 70.2598 100.066 70.6523 100.559 70.8867C101.051 71.1211 101.643 71.2383 102.334 71.2383C103.002 71.2383 103.582 71.0801 104.074 70.7637C104.566 70.4473 104.947 69.9844 105.217 69.375C105.498 68.7656 105.639 68.0215 105.639 67.1426ZM114.27 65.6836V65.3145C114.27 63.9199 114.469 62.6367 114.867 61.4648C115.266 60.2812 115.846 59.2559 116.607 58.3887C117.369 57.5215 118.307 56.8477 119.42 56.3672C120.533 55.875 121.811 55.6289 123.252 55.6289C124.693 55.6289 125.977 55.875 127.102 56.3672C128.227 56.8477 129.17 57.5215 129.932 58.3887C130.705 59.2559 131.291 60.2812 131.689 61.4648C132.088 62.6367 132.287 63.9199 132.287 65.3145V65.6836C132.287 67.0664 132.088 68.3496 131.689 69.5332C131.291 70.7051 130.705 71.7305 129.932 72.6094C129.17 73.4766 128.232 74.1504 127.119 74.6309C126.006 75.1113 124.729 75.3516 123.287 75.3516C121.846 75.3516 120.562 75.1113 119.438 74.6309C118.324 74.1504 117.381 73.4766 116.607 72.6094C115.846 71.7305 115.266 70.7051 114.867 69.5332C114.469 68.3496 114.27 67.0664 114.27 65.6836ZM119.332 65.3145V65.6836C119.332 66.4805 119.402 67.2246 119.543 67.916C119.684 68.6074 119.906 69.2168 120.211 69.7441C120.527 70.2598 120.938 70.6641 121.441 70.957C121.945 71.25 122.561 71.3965 123.287 71.3965C123.99 71.3965 124.594 71.25 125.098 70.957C125.602 70.6641 126.006 70.2598 126.311 69.7441C126.615 69.2168 126.838 68.6074 126.979 67.916C127.131 67.2246 127.207 66.4805 127.207 65.6836V65.3145C127.207 64.541 127.131 63.8145 126.979 63.1348C126.838 62.4434 126.609 61.834 126.293 61.3066C125.988 60.7676 125.584 60.3457 125.08 60.041C124.576 59.7363 123.967 59.584 123.252 59.584C122.537 59.584 121.928 59.7363 121.424 60.041C120.932 60.3457 120.527 60.7676 120.211 61.3066C119.906 61.834 119.684 62.4434 119.543 63.1348C119.402 63.8145 119.332 64.541 119.332 65.3145ZM144.152 75.3516C142.676 75.3516 141.352 75.1172 140.18 74.6484C139.008 74.168 138.012 73.5059 137.191 72.6621C136.383 71.8184 135.762 70.8398 135.328 69.7266C134.895 68.6016 134.678 67.4062 134.678 66.1406V65.4375C134.678 63.9961 134.883 62.6777 135.293 61.4824C135.703 60.2871 136.289 59.25 137.051 58.3711C137.824 57.4922 138.762 56.8184 139.863 56.3496C140.965 55.8691 142.207 55.6289 143.59 55.6289C144.938 55.6289 146.133 55.8516 147.176 56.2969C148.219 56.7422 149.092 57.375 149.795 58.1953C150.51 59.0156 151.049 60 151.412 61.1484C151.775 62.2852 151.957 63.5508 151.957 64.9453V67.0547H136.84V63.6797H146.982V63.293C146.982 62.5898 146.854 61.9629 146.596 61.4121C146.35 60.8496 145.975 60.4043 145.471 60.0762C144.967 59.748 144.322 59.584 143.537 59.584C142.869 59.584 142.295 59.7305 141.814 60.0234C141.334 60.3164 140.941 60.7266 140.637 61.2539C140.344 61.7812 140.121 62.4023 139.969 63.1172C139.828 63.8203 139.758 64.5938 139.758 65.4375V66.1406C139.758 66.9023 139.863 67.6055 140.074 68.25C140.297 68.8945 140.607 69.4512 141.006 69.9199C141.416 70.3887 141.908 70.752 142.482 71.0098C143.068 71.2676 143.73 71.3965 144.469 71.3965C145.383 71.3965 146.232 71.2207 147.018 70.8691C147.814 70.5059 148.5 69.9609 149.074 69.2344L151.535 71.9062C151.137 72.4805 150.592 73.0312 149.9 73.5586C149.221 74.0859 148.4 74.5195 147.439 74.8594C146.479 75.1875 145.383 75.3516 144.152 75.3516ZM181.189 59.8301V63.9434H167.83V59.8301H181.189ZM169.395 49.4062V75H164.121V49.4062H169.395ZM184.951 49.4062V75H179.695V49.4062H184.951ZM199.488 70.7109V62.2383C199.488 61.6289 199.389 61.1074 199.189 60.6738C198.99 60.2285 198.68 59.8828 198.258 59.6367C197.848 59.3906 197.314 59.2676 196.658 59.2676C196.096 59.2676 195.609 59.3672 195.199 59.5664C194.789 59.7539 194.473 60.0293 194.25 60.3926C194.027 60.7441 193.916 61.1602 193.916 61.6406H188.854C188.854 60.832 189.041 60.0645 189.416 59.3379C189.791 58.6113 190.336 57.9727 191.051 57.4219C191.766 56.8594 192.615 56.4199 193.6 56.1035C194.596 55.7871 195.709 55.6289 196.939 55.6289C198.416 55.6289 199.729 55.875 200.877 56.3672C202.025 56.8594 202.928 57.5977 203.584 58.582C204.252 59.5664 204.586 60.7969 204.586 62.2734V70.4121C204.586 71.4551 204.65 72.3105 204.779 72.9785C204.908 73.6348 205.096 74.209 205.342 74.7012V75H200.227C199.98 74.4844 199.793 73.8398 199.664 73.0664C199.547 72.2812 199.488 71.4961 199.488 70.7109ZM200.156 63.416L200.191 66.2812H197.361C196.693 66.2812 196.113 66.3574 195.621 66.5098C195.129 66.6621 194.725 66.8789 194.408 67.1602C194.092 67.4297 193.857 67.7461 193.705 68.1094C193.564 68.4727 193.494 68.8711 193.494 69.3047C193.494 69.7383 193.594 70.1309 193.793 70.4824C193.992 70.8223 194.279 71.0918 194.654 71.291C195.029 71.4785 195.469 71.5723 195.973 71.5723C196.734 71.5723 197.396 71.4199 197.959 71.1152C198.521 70.8105 198.955 70.4355 199.26 69.9902C199.576 69.5449 199.74 69.123 199.752 68.7246L201.088 70.8691C200.9 71.3496 200.643 71.8477 200.314 72.3633C199.998 72.8789 199.594 73.3652 199.102 73.8223C198.609 74.2676 198.018 74.6367 197.326 74.9297C196.635 75.2109 195.814 75.3516 194.865 75.3516C193.658 75.3516 192.562 75.1113 191.578 74.6309C190.605 74.1387 189.832 73.4648 189.258 72.6094C188.695 71.7422 188.414 70.7578 188.414 69.6562C188.414 68.6602 188.602 67.7754 188.977 67.002C189.352 66.2285 189.902 65.5781 190.629 65.0508C191.367 64.5117 192.287 64.1074 193.389 63.8379C194.49 63.5566 195.768 63.416 197.221 63.416H200.156ZM219.721 70.8516V48H224.818V75H220.23L219.721 70.8516ZM207.697 65.7188V65.3496C207.697 63.8965 207.861 62.5781 208.189 61.3945C208.518 60.1992 208.998 59.1738 209.631 58.3184C210.264 57.4629 211.043 56.8008 211.969 56.332C212.895 55.8633 213.949 55.6289 215.133 55.6289C216.246 55.6289 217.219 55.8633 218.051 56.332C218.895 56.8008 219.609 57.4688 220.195 58.3359C220.793 59.1914 221.273 60.2051 221.637 61.377C222 62.5371 222.264 63.8086 222.428 65.1914V66C222.264 67.3242 222 68.5547 221.637 69.6914C221.273 70.8281 220.793 71.8242 220.195 72.6797C219.609 73.5234 218.895 74.1797 218.051 74.6484C217.207 75.1172 216.223 75.3516 215.098 75.3516C213.914 75.3516 212.859 75.1113 211.934 74.6309C211.02 74.1504 210.246 73.4766 209.613 72.6094C208.992 71.7422 208.518 70.7227 208.189 69.5508C207.861 68.3789 207.697 67.1016 207.697 65.7188ZM212.76 65.3496V65.7188C212.76 66.5039 212.818 67.2363 212.936 67.916C213.064 68.5957 213.27 69.1992 213.551 69.7266C213.844 70.2422 214.219 70.6465 214.676 70.9395C215.145 71.2207 215.713 71.3613 216.381 71.3613C217.248 71.3613 217.963 71.168 218.525 70.7812C219.088 70.3828 219.516 69.8379 219.809 69.1465C220.113 68.4551 220.289 67.6582 220.336 66.7559V64.4531C220.301 63.7148 220.195 63.0527 220.02 62.4668C219.855 61.8691 219.609 61.3594 219.281 60.9375C218.965 60.5156 218.566 60.1875 218.086 59.9531C217.617 59.7188 217.061 59.6016 216.416 59.6016C215.76 59.6016 215.197 59.7539 214.729 60.0586C214.26 60.3516 213.879 60.7559 213.586 61.2715C213.305 61.7871 213.094 62.3965 212.953 63.0996C212.824 63.791 212.76 64.541 212.76 65.3496ZM240.006 70.8516V48H245.104V75H240.516L240.006 70.8516ZM227.982 65.7188V65.3496C227.982 63.8965 228.146 62.5781 228.475 61.3945C228.803 60.1992 229.283 59.1738 229.916 58.3184C230.549 57.4629 231.328 56.8008 232.254 56.332C233.18 55.8633 234.234 55.6289 235.418 55.6289C236.531 55.6289 237.504 55.8633 238.336 56.332C239.18 56.8008 239.895 57.4688 240.48 58.3359C241.078 59.1914 241.559 60.2051 241.922 61.377C242.285 62.5371 242.549 63.8086 242.713 65.1914V66C242.549 67.3242 242.285 68.5547 241.922 69.6914C241.559 70.8281 241.078 71.8242 240.48 72.6797C239.895 73.5234 239.18 74.1797 238.336 74.6484C237.492 75.1172 236.508 75.3516 235.383 75.3516C234.199 75.3516 233.145 75.1113 232.219 74.6309C231.305 74.1504 230.531 73.4766 229.898 72.6094C229.277 71.7422 228.803 70.7227 228.475 69.5508C228.146 68.3789 227.982 67.1016 227.982 65.7188ZM233.045 65.3496V65.7188C233.045 66.5039 233.104 67.2363 233.221 67.916C233.35 68.5957 233.555 69.1992 233.836 69.7266C234.129 70.2422 234.504 70.6465 234.961 70.9395C235.43 71.2207 235.998 71.3613 236.666 71.3613C237.533 71.3613 238.248 71.168 238.811 70.7812C239.373 70.3828 239.801 69.8379 240.094 69.1465C240.398 68.4551 240.574 67.6582 240.621 66.7559V64.4531C240.586 63.7148 240.48 63.0527 240.305 62.4668C240.141 61.8691 239.895 61.3594 239.566 60.9375C239.25 60.5156 238.852 60.1875 238.371 59.9531C237.902 59.7188 237.346 59.6016 236.701 59.6016C236.045 59.6016 235.482 59.7539 235.014 60.0586C234.545 60.3516 234.164 60.7559 233.871 61.2715C233.59 61.7871 233.379 62.3965 233.238 63.0996C233.109 63.791 233.045 64.541 233.045 65.3496ZM259.324 70.7109V62.2383C259.324 61.6289 259.225 61.1074 259.025 60.6738C258.826 60.2285 258.516 59.8828 258.094 59.6367C257.684 59.3906 257.15 59.2676 256.494 59.2676C255.932 59.2676 255.445 59.3672 255.035 59.5664C254.625 59.7539 254.309 60.0293 254.086 60.3926C253.863 60.7441 253.752 61.1602 253.752 61.6406H248.689C248.689 60.832 248.877 60.0645 249.252 59.3379C249.627 58.6113 250.172 57.9727 250.887 57.4219C251.602 56.8594 252.451 56.4199 253.436 56.1035C254.432 55.7871 255.545 55.6289 256.775 55.6289C258.252 55.6289 259.564 55.875 260.713 56.3672C261.861 56.8594 262.764 57.5977 263.42 58.582C264.088 59.5664 264.422 60.7969 264.422 62.2734V70.4121C264.422 71.4551 264.486 72.3105 264.615 72.9785C264.744 73.6348 264.932 74.209 265.178 74.7012V75H260.062C259.816 74.4844 259.629 73.8398 259.5 73.0664C259.383 72.2812 259.324 71.4961 259.324 70.7109ZM259.992 63.416L260.027 66.2812H257.197C256.529 66.2812 255.949 66.3574 255.457 66.5098C254.965 66.6621 254.561 66.8789 254.244 67.1602C253.928 67.4297 253.693 67.7461 253.541 68.1094C253.4 68.4727 253.33 68.8711 253.33 69.3047C253.33 69.7383 253.43 70.1309 253.629 70.4824C253.828 70.8223 254.115 71.0918 254.49 71.291C254.865 71.4785 255.305 71.5723 255.809 71.5723C256.57 71.5723 257.232 71.4199 257.795 71.1152C258.357 70.8105 258.791 70.4355 259.096 69.9902C259.412 69.5449 259.576 69.123 259.588 68.7246L260.924 70.8691C260.736 71.3496 260.479 71.8477 260.15 72.3633C259.834 72.8789 259.43 73.3652 258.938 73.8223C258.445 74.2676 257.854 74.6367 257.162 74.9297C256.471 75.2109 255.65 75.3516 254.701 75.3516C253.494 75.3516 252.398 75.1113 251.414 74.6309C250.441 74.1387 249.668 73.4648 249.094 72.6094C248.531 71.7422 248.25 70.7578 248.25 69.6562C248.25 68.6602 248.438 67.7754 248.812 67.002C249.188 66.2285 249.738 65.5781 250.465 65.0508C251.203 64.5117 252.123 64.1074 253.225 63.8379C254.326 63.5566 255.604 63.416 257.057 63.416H259.992ZM279.557 70.8516V48H284.654V75H280.066L279.557 70.8516ZM267.533 65.7188V65.3496C267.533 63.8965 267.697 62.5781 268.025 61.3945C268.354 60.1992 268.834 59.1738 269.467 58.3184C270.1 57.4629 270.879 56.8008 271.805 56.332C272.73 55.8633 273.785 55.6289 274.969 55.6289C276.082 55.6289 277.055 55.8633 277.887 56.332C278.73 56.8008 279.445 57.4688 280.031 58.3359C280.629 59.1914 281.109 60.2051 281.473 61.377C281.836 62.5371 282.1 63.8086 282.264 65.1914V66C282.1 67.3242 281.836 68.5547 281.473 69.6914C281.109 70.8281 280.629 71.8242 280.031 72.6797C279.445 73.5234 278.73 74.1797 277.887 74.6484C277.043 75.1172 276.059 75.3516 274.934 75.3516C273.75 75.3516 272.695 75.1113 271.77 74.6309C270.855 74.1504 270.082 73.4766 269.449 72.6094C268.828 71.7422 268.354 70.7227 268.025 69.5508C267.697 68.3789 267.533 67.1016 267.533 65.7188ZM272.596 65.3496V65.7188C272.596 66.5039 272.654 67.2363 272.771 67.916C272.9 68.5957 273.105 69.1992 273.387 69.7266C273.68 70.2422 274.055 70.6465 274.512 70.9395C274.98 71.2207 275.549 71.3613 276.217 71.3613C277.084 71.3613 277.799 71.168 278.361 70.7812C278.924 70.3828 279.352 69.8379 279.645 69.1465C279.949 68.4551 280.125 67.6582 280.172 66.7559V64.4531C280.137 63.7148 280.031 63.0527 279.855 62.4668C279.691 61.8691 279.445 61.3594 279.117 60.9375C278.801 60.5156 278.402 60.1875 277.922 59.9531C277.453 59.7188 276.896 59.6016 276.252 59.6016C275.596 59.6016 275.033 59.7539 274.564 60.0586C274.096 60.3516 273.715 60.7559 273.422 61.2715C273.141 61.7871 272.93 62.3965 272.789 63.0996C272.66 63.791 272.596 64.541 272.596 65.3496Z" fill="#888888"/>
<path d="M118.676 126.52H128.246C128.118 129.29 127.371 131.733 126.004 133.848C124.637 135.962 122.741 137.612 120.316 138.797C117.91 139.964 115.066 140.547 111.785 140.547C109.124 140.547 106.745 140.1 104.648 139.207C102.57 138.314 100.802 137.029 99.3438 135.352C97.9036 133.674 96.8008 131.642 96.0352 129.254C95.2878 126.866 94.9141 124.177 94.9141 121.188V119.027C94.9141 116.038 95.306 113.349 96.0898 110.961C96.8919 108.555 98.0221 106.513 99.4805 104.836C100.957 103.141 102.725 101.846 104.785 100.953C106.845 100.06 109.133 99.6133 111.648 99.6133C115.112 99.6133 118.038 100.233 120.426 101.473C122.814 102.712 124.664 104.417 125.977 106.586C127.289 108.737 128.064 111.189 128.301 113.941H118.73C118.694 112.447 118.439 111.198 117.965 110.195C117.491 109.174 116.743 108.409 115.723 107.898C114.702 107.388 113.344 107.133 111.648 107.133C110.464 107.133 109.434 107.352 108.559 107.789C107.684 108.227 106.954 108.919 106.371 109.867C105.788 110.815 105.35 112.046 105.059 113.559C104.785 115.053 104.648 116.858 104.648 118.973V121.188C104.648 123.302 104.776 125.107 105.031 126.602C105.286 128.096 105.697 129.318 106.262 130.266C106.827 131.214 107.556 131.915 108.449 132.371C109.361 132.809 110.473 133.027 111.785 133.027C113.243 133.027 114.474 132.799 115.477 132.344C116.479 131.87 117.254 131.159 117.801 130.211C118.348 129.245 118.639 128.014 118.676 126.52ZM141.426 136.527L149.082 110.414H158.98L147.086 144.402C146.831 145.15 146.493 145.952 146.074 146.809C145.655 147.684 145.081 148.513 144.352 149.297C143.622 150.081 142.684 150.719 141.535 151.211C140.405 151.703 139.001 151.949 137.324 151.949C136.431 151.949 135.775 151.904 135.355 151.812C134.954 151.74 134.335 151.603 133.496 151.402V144.812C133.733 144.812 133.934 144.812 134.098 144.812C134.28 144.812 134.48 144.812 134.699 144.812C135.684 144.812 136.467 144.712 137.051 144.512C137.652 144.311 138.108 144.02 138.418 143.637C138.746 143.254 139.001 142.789 139.184 142.242L141.426 136.527ZM139.484 110.414L145.309 131.113L146.32 140.875H140.141L129.613 110.414H139.484ZM161.469 98H170.684V132.727L169.727 140H161.469V98ZM188.84 124.879V125.453C188.84 127.695 188.612 129.737 188.156 131.578C187.701 133.419 186.999 135.014 186.051 136.363C185.103 137.694 183.909 138.724 182.469 139.453C181.029 140.182 179.324 140.547 177.355 140.547C175.569 140.547 174.038 140.164 172.762 139.398C171.486 138.615 170.419 137.539 169.562 136.172C168.706 134.786 168.013 133.191 167.484 131.387C166.956 129.564 166.536 127.613 166.227 125.535V124.852C166.536 122.792 166.956 120.859 167.484 119.055C168.013 117.232 168.706 115.637 169.562 114.27C170.419 112.884 171.477 111.809 172.734 111.043C174.01 110.259 175.533 109.867 177.301 109.867C179.288 109.867 181.001 110.241 182.441 110.988C183.9 111.736 185.103 112.784 186.051 114.133C186.999 115.482 187.701 117.068 188.156 118.891C188.612 120.714 188.84 122.71 188.84 124.879ZM179.625 125.453V124.879C179.625 123.803 179.561 122.792 179.434 121.844C179.306 120.896 179.078 120.057 178.75 119.328C178.422 118.599 177.957 118.025 177.355 117.605C176.754 117.186 175.97 116.977 175.004 116.977C174.02 116.977 173.19 117.141 172.516 117.469C171.859 117.797 171.331 118.271 170.93 118.891C170.547 119.492 170.273 120.24 170.109 121.133C169.945 122.008 169.872 123.001 169.891 124.113V126.273C169.854 127.786 169.991 129.081 170.301 130.156C170.611 131.232 171.148 132.052 171.914 132.617C172.68 133.182 173.728 133.465 175.059 133.465C176.043 133.465 176.836 133.273 177.438 132.891C178.057 132.508 178.522 131.961 178.832 131.25C179.142 130.539 179.352 129.691 179.461 128.707C179.57 127.723 179.625 126.638 179.625 125.453ZM207.27 140.547C204.863 140.547 202.712 140.173 200.816 139.426C198.921 138.66 197.316 137.612 196.004 136.281C194.71 134.951 193.716 133.419 193.023 131.688C192.349 129.956 192.012 128.124 192.012 126.191V125.152C192.012 122.983 192.312 120.978 192.914 119.137C193.516 117.277 194.409 115.655 195.594 114.27C196.779 112.884 198.264 111.809 200.051 111.043C201.837 110.259 203.915 109.867 206.285 109.867C208.382 109.867 210.259 110.204 211.918 110.879C213.577 111.553 214.98 112.52 216.129 113.777C217.296 115.035 218.18 116.557 218.781 118.344C219.401 120.13 219.711 122.135 219.711 124.359V128.105H195.539V122.336H210.715V121.625C210.733 120.641 210.56 119.802 210.195 119.109C209.849 118.417 209.339 117.888 208.664 117.523C207.99 117.159 207.169 116.977 206.203 116.977C205.201 116.977 204.371 117.195 203.715 117.633C203.077 118.07 202.576 118.672 202.211 119.438C201.865 120.185 201.618 121.051 201.473 122.035C201.327 123.02 201.254 124.059 201.254 125.152V126.191C201.254 127.285 201.4 128.279 201.691 129.172C202.001 130.065 202.439 130.831 203.004 131.469C203.587 132.089 204.28 132.572 205.082 132.918C205.902 133.264 206.832 133.438 207.871 133.438C209.129 133.438 210.368 133.201 211.59 132.727C212.811 132.253 213.859 131.469 214.734 130.375L218.918 135.352C218.316 136.208 217.46 137.038 216.348 137.84C215.254 138.642 213.941 139.298 212.41 139.809C210.879 140.301 209.165 140.547 207.27 140.547ZM232.754 117.742V140H223.539V110.414H232.152L232.754 117.742ZM241.504 110.195L241.34 118.754C240.975 118.717 240.483 118.672 239.863 118.617C239.243 118.562 238.724 118.535 238.305 118.535C237.229 118.535 236.299 118.663 235.516 118.918C234.75 119.155 234.112 119.52 233.602 120.012C233.109 120.486 232.745 121.087 232.508 121.816C232.289 122.546 232.189 123.393 232.207 124.359L230.539 123.266C230.539 121.279 230.73 119.474 231.113 117.852C231.514 116.211 232.079 114.798 232.809 113.613C233.538 112.41 234.422 111.49 235.461 110.852C236.5 110.195 237.667 109.867 238.961 109.867C239.417 109.867 239.863 109.895 240.301 109.949C240.757 110.004 241.158 110.086 241.504 110.195ZM281.699 126.52H291.27C291.142 129.29 290.395 131.733 289.027 133.848C287.66 135.962 285.764 137.612 283.34 138.797C280.934 139.964 278.09 140.547 274.809 140.547C272.147 140.547 269.768 140.1 267.672 139.207C265.594 138.314 263.826 137.029 262.367 135.352C260.927 133.674 259.824 131.642 259.059 129.254C258.311 126.866 257.938 124.177 257.938 121.188V119.027C257.938 116.038 258.329 113.349 259.113 110.961C259.915 108.555 261.046 106.513 262.504 104.836C263.98 103.141 265.749 101.846 267.809 100.953C269.868 100.06 272.156 99.6133 274.672 99.6133C278.135 99.6133 281.061 100.233 283.449 101.473C285.837 102.712 287.688 104.417 289 106.586C290.312 108.737 291.087 111.189 291.324 113.941H281.754C281.717 112.447 281.462 111.198 280.988 110.195C280.514 109.174 279.767 108.409 278.746 107.898C277.725 107.388 276.367 107.133 274.672 107.133C273.487 107.133 272.457 107.352 271.582 107.789C270.707 108.227 269.978 108.919 269.395 109.867C268.811 110.815 268.374 112.046 268.082 113.559C267.809 115.053 267.672 116.858 267.672 118.973V121.188C267.672 123.302 267.799 125.107 268.055 126.602C268.31 128.096 268.72 129.318 269.285 130.266C269.85 131.214 270.579 131.915 271.473 132.371C272.384 132.809 273.496 133.027 274.809 133.027C276.267 133.027 277.497 132.799 278.5 132.344C279.503 131.87 280.277 131.159 280.824 130.211C281.371 129.245 281.663 128.014 281.699 126.52ZM304.395 98V140H295.18V98H304.395ZM303.301 124.195L301.141 124.25C301.141 122.172 301.396 120.258 301.906 118.508C302.417 116.758 303.146 115.236 304.094 113.941C305.042 112.647 306.181 111.645 307.512 110.934C308.842 110.223 310.319 109.867 311.941 109.867C313.4 109.867 314.73 110.077 315.934 110.496C317.155 110.915 318.203 111.59 319.078 112.52C319.971 113.449 320.655 114.661 321.129 116.156C321.621 117.651 321.867 119.474 321.867 121.625V140H312.598V121.57C312.598 120.367 312.424 119.438 312.078 118.781C311.75 118.107 311.276 117.642 310.656 117.387C310.036 117.113 309.28 116.977 308.387 116.977C307.311 116.977 306.436 117.159 305.762 117.523C305.087 117.888 304.568 118.398 304.203 119.055C303.857 119.693 303.62 120.449 303.492 121.324C303.365 122.199 303.301 123.156 303.301 124.195ZM342.348 132.562V120.367C342.348 119.529 342.229 118.809 341.992 118.207C341.755 117.605 341.382 117.141 340.871 116.812C340.361 116.466 339.677 116.293 338.82 116.293C338.128 116.293 337.535 116.411 337.043 116.648C336.551 116.885 336.177 117.241 335.922 117.715C335.667 118.189 335.539 118.79 335.539 119.52H326.324C326.324 118.152 326.625 116.885 327.227 115.719C327.846 114.534 328.721 113.504 329.852 112.629C331 111.754 332.367 111.079 333.953 110.605C335.557 110.113 337.344 109.867 339.312 109.867C341.664 109.867 343.76 110.259 345.602 111.043C347.461 111.827 348.928 113.003 350.004 114.57C351.079 116.12 351.617 118.07 351.617 120.422V132.535C351.617 134.467 351.727 135.935 351.945 136.938C352.164 137.922 352.474 138.788 352.875 139.535V140H343.633C343.195 139.089 342.867 137.977 342.648 136.664C342.448 135.333 342.348 133.966 342.348 132.562ZM343.469 121.926L343.523 126.848H339.449C338.592 126.848 337.863 126.966 337.262 127.203C336.678 127.44 336.204 127.768 335.84 128.188C335.493 128.589 335.238 129.044 335.074 129.555C334.928 130.065 334.855 130.603 334.855 131.168C334.855 131.715 334.983 132.207 335.238 132.645C335.512 133.064 335.876 133.392 336.332 133.629C336.788 133.866 337.298 133.984 337.863 133.984C338.884 133.984 339.75 133.793 340.461 133.41C341.19 133.009 341.746 132.526 342.129 131.961C342.512 131.396 342.703 130.867 342.703 130.375L344.727 134.148C344.362 134.878 343.943 135.616 343.469 136.363C343.013 137.111 342.439 137.803 341.746 138.441C341.072 139.061 340.242 139.572 339.258 139.973C338.273 140.355 337.079 140.547 335.676 140.547C333.853 140.547 332.176 140.173 330.645 139.426C329.132 138.678 327.919 137.639 327.008 136.309C326.096 134.96 325.641 133.41 325.641 131.66C325.641 130.129 325.914 128.762 326.461 127.559C327.026 126.355 327.874 125.335 329.004 124.496C330.134 123.658 331.574 123.02 333.324 122.582C335.074 122.145 337.134 121.926 339.504 121.926H343.469ZM366.027 116.102V151.375H356.812V110.414H365.398L366.027 116.102ZM384.184 124.852V125.426C384.184 127.577 383.938 129.573 383.445 131.414C382.953 133.255 382.224 134.859 381.258 136.227C380.292 137.594 379.089 138.66 377.648 139.426C376.227 140.173 374.577 140.547 372.699 140.547C370.931 140.547 369.409 140.155 368.133 139.371C366.857 138.587 365.79 137.503 364.934 136.117C364.077 134.732 363.384 133.146 362.855 131.359C362.327 129.573 361.908 127.686 361.598 125.699V124.961C361.908 122.828 362.327 120.85 362.855 119.027C363.384 117.186 364.077 115.582 364.934 114.215C365.79 112.848 366.848 111.781 368.105 111.016C369.382 110.25 370.904 109.867 372.672 109.867C374.549 109.867 376.199 110.223 377.621 110.934C379.061 111.645 380.264 112.665 381.23 113.996C382.215 115.309 382.953 116.885 383.445 118.727C383.938 120.568 384.184 122.609 384.184 124.852ZM374.969 125.426V124.852C374.969 123.703 374.887 122.655 374.723 121.707C374.559 120.741 374.294 119.902 373.93 119.191C373.583 118.48 373.118 117.934 372.535 117.551C371.952 117.168 371.232 116.977 370.375 116.977C369.391 116.977 368.561 117.132 367.887 117.441C367.23 117.733 366.702 118.189 366.301 118.809C365.918 119.41 365.645 120.167 365.48 121.078C365.335 121.971 365.271 123.02 365.289 124.223V126.465C365.253 127.85 365.389 129.072 365.699 130.129C366.009 131.168 366.547 131.979 367.312 132.562C368.078 133.146 369.117 133.438 370.43 133.438C371.305 133.438 372.034 133.237 372.617 132.836C373.201 132.417 373.665 131.842 374.012 131.113C374.358 130.366 374.604 129.509 374.75 128.543C374.896 127.577 374.969 126.538 374.969 125.426ZM402.613 140.547C400.207 140.547 398.056 140.173 396.16 139.426C394.264 138.66 392.66 137.612 391.348 136.281C390.053 134.951 389.06 133.419 388.367 131.688C387.693 129.956 387.355 128.124 387.355 126.191V125.152C387.355 122.983 387.656 120.978 388.258 119.137C388.859 117.277 389.753 115.655 390.938 114.27C392.122 112.884 393.608 111.809 395.395 111.043C397.181 110.259 399.259 109.867 401.629 109.867C403.725 109.867 405.603 110.204 407.262 110.879C408.921 111.553 410.324 112.52 411.473 113.777C412.639 115.035 413.523 116.557 414.125 118.344C414.745 120.13 415.055 122.135 415.055 124.359V128.105H390.883V122.336H406.059V121.625C406.077 120.641 405.904 119.802 405.539 119.109C405.193 118.417 404.682 117.888 404.008 117.523C403.333 117.159 402.513 116.977 401.547 116.977C400.544 116.977 399.715 117.195 399.059 117.633C398.421 118.07 397.919 118.672 397.555 119.438C397.208 120.185 396.962 121.051 396.816 122.035C396.671 123.02 396.598 124.059 396.598 125.152V126.191C396.598 127.285 396.743 128.279 397.035 129.172C397.345 130.065 397.783 130.831 398.348 131.469C398.931 132.089 399.624 132.572 400.426 132.918C401.246 133.264 402.176 133.438 403.215 133.438C404.473 133.438 405.712 133.201 406.934 132.727C408.155 132.253 409.203 131.469 410.078 130.375L414.262 135.352C413.66 136.208 412.803 137.038 411.691 137.84C410.598 138.642 409.285 139.298 407.754 139.809C406.223 140.301 404.509 140.547 402.613 140.547ZM428.098 117.742V140H418.883V110.414H427.496L428.098 117.742ZM436.848 110.195L436.684 118.754C436.319 118.717 435.827 118.672 435.207 118.617C434.587 118.562 434.068 118.535 433.648 118.535C432.573 118.535 431.643 118.663 430.859 118.918C430.094 119.155 429.456 119.52 428.945 120.012C428.453 120.486 428.089 121.087 427.852 121.816C427.633 122.546 427.533 123.393 427.551 124.359L425.883 123.266C425.883 121.279 426.074 119.474 426.457 117.852C426.858 116.211 427.423 114.798 428.152 113.613C428.882 112.41 429.766 111.49 430.805 110.852C431.844 110.195 433.01 109.867 434.305 109.867C434.76 109.867 435.207 109.895 435.645 109.949C436.1 110.004 436.501 110.086 436.848 110.195ZM437.887 125.508V124.934C437.887 122.764 438.197 120.768 438.816 118.945C439.436 117.104 440.348 115.509 441.551 114.16C442.754 112.811 444.24 111.763 446.008 111.016C447.776 110.25 449.818 109.867 452.133 109.867C454.466 109.867 456.517 110.25 458.285 111.016C460.072 111.763 461.566 112.811 462.77 114.16C463.973 115.509 464.884 117.104 465.504 118.945C466.124 120.768 466.434 122.764 466.434 124.934V125.508C466.434 127.659 466.124 129.655 465.504 131.496C464.884 133.319 463.973 134.914 462.77 136.281C461.566 137.63 460.081 138.678 458.312 139.426C456.544 140.173 454.503 140.547 452.188 140.547C449.872 140.547 447.822 140.173 446.035 139.426C444.249 138.678 442.754 137.63 441.551 136.281C440.348 134.914 439.436 133.319 438.816 131.496C438.197 129.655 437.887 127.659 437.887 125.508ZM447.102 124.934V125.508C447.102 126.62 447.184 127.659 447.348 128.625C447.512 129.591 447.785 130.439 448.168 131.168C448.551 131.879 449.07 132.435 449.727 132.836C450.383 133.237 451.203 133.438 452.188 133.438C453.154 133.438 453.956 133.237 454.594 132.836C455.25 132.435 455.77 131.879 456.152 131.168C456.535 130.439 456.809 129.591 456.973 128.625C457.137 127.659 457.219 126.62 457.219 125.508V124.934C457.219 123.858 457.137 122.846 456.973 121.898C456.809 120.932 456.535 120.085 456.152 119.355C455.77 118.608 455.25 118.025 454.594 117.605C453.938 117.186 453.117 116.977 452.133 116.977C451.167 116.977 450.355 117.186 449.699 117.605C449.061 118.025 448.551 118.608 448.168 119.355C447.785 120.085 447.512 120.932 447.348 121.898C447.184 122.846 447.102 123.858 447.102 124.934ZM479.586 116.73V140H470.371V110.414H479.012L479.586 116.73ZM478.492 124.195L476.332 124.25C476.332 121.99 476.605 119.975 477.152 118.207C477.699 116.421 478.474 114.908 479.477 113.668C480.479 112.428 481.673 111.49 483.059 110.852C484.462 110.195 486.021 109.867 487.734 109.867C489.102 109.867 490.35 110.068 491.48 110.469C492.629 110.87 493.613 111.517 494.434 112.41C495.272 113.303 495.91 114.488 496.348 115.965C496.803 117.423 497.031 119.228 497.031 121.379V140H487.762V121.352C487.762 120.167 487.598 119.264 487.27 118.645C486.941 118.007 486.467 117.569 485.848 117.332C485.228 117.095 484.471 116.977 483.578 116.977C482.63 116.977 481.828 117.159 481.172 117.523C480.516 117.888 479.987 118.398 479.586 119.055C479.203 119.693 478.921 120.449 478.738 121.324C478.574 122.199 478.492 123.156 478.492 124.195ZM516.473 140.547C514.066 140.547 511.915 140.173 510.02 139.426C508.124 138.66 506.52 137.612 505.207 136.281C503.913 134.951 502.919 133.419 502.227 131.688C501.552 129.956 501.215 128.124 501.215 126.191V125.152C501.215 122.983 501.516 120.978 502.117 119.137C502.719 117.277 503.612 115.655 504.797 114.27C505.982 112.884 507.467 111.809 509.254 111.043C511.04 110.259 513.118 109.867 515.488 109.867C517.585 109.867 519.462 110.204 521.121 110.879C522.78 111.553 524.184 112.52 525.332 113.777C526.499 115.035 527.383 116.557 527.984 118.344C528.604 120.13 528.914 122.135 528.914 124.359V128.105H504.742V122.336H519.918V121.625C519.936 120.641 519.763 119.802 519.398 119.109C519.052 118.417 518.542 117.888 517.867 117.523C517.193 117.159 516.372 116.977 515.406 116.977C514.404 116.977 513.574 117.195 512.918 117.633C512.28 118.07 511.779 118.672 511.414 119.438C511.068 120.185 510.822 121.051 510.676 122.035C510.53 123.02 510.457 124.059 510.457 125.152V126.191C510.457 127.285 510.603 128.279 510.895 129.172C511.204 130.065 511.642 130.831 512.207 131.469C512.79 132.089 513.483 132.572 514.285 132.918C515.105 133.264 516.035 133.438 517.074 133.438C518.332 133.438 519.572 133.201 520.793 132.727C522.014 132.253 523.062 131.469 523.938 130.375L528.121 135.352C527.52 136.208 526.663 137.038 525.551 137.84C524.457 138.642 523.145 139.298 521.613 139.809C520.082 140.301 518.368 140.547 516.473 140.547Z" fill="black"/>
<rect x="93" y="178" width="917" height="77" rx="10" fill="#D3D3D3"/>
<rect x="111" y="196" width="148" height="41" rx="3" fill="#424242"/>
<path d="M134.234 210.203H139.271C140.255 210.203 141.11 210.35 141.837 210.643C142.563 210.936 143.123 211.369 143.516 211.943C143.914 212.518 144.113 213.227 144.113 214.07C144.113 214.803 143.999 215.415 143.771 215.907C143.542 216.399 143.223 216.807 142.812 217.129C142.408 217.445 141.937 217.706 141.397 217.911L140.387 218.482H136.159L136.142 216.101H139.271C139.663 216.101 139.988 216.03 140.246 215.89C140.504 215.749 140.697 215.55 140.826 215.292C140.961 215.028 141.028 214.715 141.028 214.352C141.028 213.982 140.961 213.666 140.826 213.402C140.691 213.139 140.492 212.937 140.229 212.796C139.971 212.655 139.651 212.585 139.271 212.585H137.319V223H134.234V210.203ZM141.239 223L138.409 217.34L141.679 217.322L144.544 222.868V223H141.239ZM150.441 223.176C149.668 223.176 148.977 223.056 148.367 222.815C147.758 222.569 147.242 222.232 146.82 221.805C146.404 221.377 146.085 220.885 145.862 220.328C145.646 219.771 145.537 219.183 145.537 218.562V218.228C145.537 217.53 145.634 216.886 145.827 216.294C146.021 215.696 146.308 215.175 146.688 214.729C147.069 214.284 147.547 213.938 148.121 213.692C148.695 213.44 149.363 213.314 150.125 213.314C150.799 213.314 151.402 213.423 151.936 213.64C152.469 213.856 152.92 214.167 153.289 214.571C153.664 214.976 153.948 215.465 154.142 216.039C154.341 216.613 154.44 217.258 154.44 217.973V219.177H146.671V217.322H151.549V217.094C151.555 216.777 151.499 216.508 151.382 216.285C151.271 216.062 151.106 215.893 150.89 215.775C150.673 215.658 150.409 215.6 150.099 215.6C149.776 215.6 149.51 215.67 149.299 215.811C149.094 215.951 148.933 216.145 148.815 216.391C148.704 216.631 148.625 216.909 148.578 217.226C148.531 217.542 148.508 217.876 148.508 218.228V218.562C148.508 218.913 148.555 219.232 148.648 219.52C148.748 219.807 148.889 220.053 149.07 220.258C149.258 220.457 149.48 220.612 149.738 220.724C150.002 220.835 150.301 220.891 150.635 220.891C151.039 220.891 151.438 220.814 151.83 220.662C152.223 220.51 152.56 220.258 152.841 219.906L154.186 221.506C153.992 221.781 153.717 222.048 153.359 222.306C153.008 222.563 152.586 222.774 152.094 222.938C151.602 223.097 151.051 223.176 150.441 223.176ZM160.584 220.609V216.689C160.584 216.42 160.546 216.188 160.47 215.995C160.394 215.802 160.273 215.652 160.109 215.547C159.945 215.436 159.726 215.38 159.45 215.38C159.228 215.38 159.037 215.418 158.879 215.494C158.721 215.57 158.601 215.685 158.519 215.837C158.437 215.989 158.396 216.183 158.396 216.417H155.434C155.434 215.978 155.53 215.57 155.724 215.195C155.923 214.814 156.204 214.483 156.567 214.202C156.937 213.921 157.376 213.704 157.886 213.552C158.401 213.394 158.976 213.314 159.608 213.314C160.364 213.314 161.038 213.44 161.63 213.692C162.228 213.944 162.699 214.322 163.045 214.826C163.391 215.324 163.563 215.951 163.563 216.707V220.601C163.563 221.222 163.599 221.693 163.669 222.016C163.739 222.332 163.839 222.61 163.968 222.851V223H160.997C160.856 222.707 160.751 222.35 160.681 221.928C160.616 221.5 160.584 221.061 160.584 220.609ZM160.944 217.19L160.962 218.772H159.652C159.377 218.772 159.143 218.811 158.949 218.887C158.762 218.963 158.609 219.068 158.492 219.203C158.381 219.332 158.299 219.479 158.246 219.643C158.199 219.807 158.176 219.979 158.176 220.161C158.176 220.337 158.217 220.495 158.299 220.636C158.387 220.771 158.504 220.876 158.65 220.952C158.797 221.028 158.961 221.066 159.143 221.066C159.471 221.066 159.749 221.005 159.978 220.882C160.212 220.753 160.391 220.598 160.514 220.416C160.637 220.234 160.698 220.064 160.698 219.906L161.349 221.119C161.231 221.354 161.097 221.591 160.944 221.831C160.798 222.071 160.613 222.294 160.391 222.499C160.174 222.698 159.907 222.862 159.591 222.991C159.274 223.114 158.891 223.176 158.439 223.176C157.854 223.176 157.314 223.056 156.822 222.815C156.336 222.575 155.946 222.241 155.653 221.813C155.36 221.38 155.214 220.882 155.214 220.319C155.214 219.827 155.302 219.388 155.478 219.001C155.659 218.614 155.932 218.286 156.295 218.017C156.658 217.747 157.121 217.542 157.684 217.401C158.246 217.261 158.908 217.19 159.67 217.19H160.944ZM169.224 220.891C169.499 220.891 169.733 220.841 169.927 220.741C170.126 220.636 170.275 220.489 170.375 220.302C170.48 220.108 170.53 219.877 170.524 219.607H173.311C173.316 220.322 173.141 220.949 172.783 221.488C172.432 222.021 171.951 222.438 171.342 222.736C170.738 223.029 170.056 223.176 169.294 223.176C168.55 223.176 167.899 223.056 167.343 222.815C166.786 222.569 166.32 222.229 165.945 221.796C165.576 221.356 165.298 220.844 165.11 220.258C164.929 219.672 164.838 219.036 164.838 218.351V218.148C164.838 217.463 164.929 216.827 165.11 216.241C165.298 215.649 165.576 215.137 165.945 214.703C166.32 214.264 166.783 213.924 167.334 213.684C167.891 213.438 168.538 213.314 169.276 213.314C170.067 213.314 170.765 213.464 171.368 213.763C171.978 214.062 172.455 214.495 172.801 215.063C173.146 215.632 173.316 216.32 173.311 217.129H170.524C170.53 216.842 170.486 216.584 170.393 216.355C170.299 216.127 170.152 215.945 169.953 215.811C169.76 215.67 169.511 215.6 169.206 215.6C168.901 215.6 168.655 215.667 168.468 215.802C168.28 215.937 168.137 216.124 168.037 216.364C167.943 216.599 167.879 216.868 167.844 217.173C167.814 217.478 167.8 217.803 167.8 218.148V218.351C167.8 218.702 167.814 219.033 167.844 219.344C167.879 219.648 167.946 219.918 168.046 220.152C168.146 220.381 168.289 220.562 168.477 220.697C168.664 220.826 168.913 220.891 169.224 220.891ZM179.586 213.49V215.547H173.855V213.49H179.586ZM175.06 211.126H178.021V219.897C178.021 220.149 178.051 220.346 178.109 220.486C178.168 220.621 178.268 220.718 178.408 220.776C178.555 220.829 178.748 220.855 178.988 220.855C179.158 220.855 179.299 220.853 179.41 220.847C179.521 220.835 179.627 220.82 179.727 220.803V222.921C179.475 223.003 179.211 223.064 178.936 223.105C178.66 223.152 178.367 223.176 178.057 223.176C177.424 223.176 176.882 223.076 176.431 222.877C175.985 222.678 175.646 222.364 175.411 221.937C175.177 221.509 175.06 220.952 175.06 220.267V211.126ZM196.074 210.203V223H192.998L188.472 215.037V223H185.387V210.203H188.472L192.998 218.166V210.203H196.074ZM202.824 220.609V216.689C202.824 216.42 202.786 216.188 202.71 215.995C202.634 215.802 202.514 215.652 202.35 215.547C202.186 215.436 201.966 215.38 201.69 215.38C201.468 215.38 201.277 215.418 201.119 215.494C200.961 215.57 200.841 215.685 200.759 215.837C200.677 215.989 200.636 216.183 200.636 216.417H197.674C197.674 215.978 197.771 215.57 197.964 215.195C198.163 214.814 198.444 214.483 198.808 214.202C199.177 213.921 199.616 213.704 200.126 213.552C200.642 213.394 201.216 213.314 201.849 213.314C202.604 213.314 203.278 213.44 203.87 213.692C204.468 213.944 204.939 214.322 205.285 214.826C205.631 215.324 205.804 215.951 205.804 216.707V220.601C205.804 221.222 205.839 221.693 205.909 222.016C205.979 222.332 206.079 222.61 206.208 222.851V223H203.237C203.097 222.707 202.991 222.35 202.921 221.928C202.856 221.5 202.824 221.061 202.824 220.609ZM203.185 217.19L203.202 218.772H201.893C201.617 218.772 201.383 218.811 201.189 218.887C201.002 218.963 200.85 219.068 200.732 219.203C200.621 219.332 200.539 219.479 200.486 219.643C200.439 219.807 200.416 219.979 200.416 220.161C200.416 220.337 200.457 220.495 200.539 220.636C200.627 220.771 200.744 220.876 200.891 220.952C201.037 221.028 201.201 221.066 201.383 221.066C201.711 221.066 201.989 221.005 202.218 220.882C202.452 220.753 202.631 220.598 202.754 220.416C202.877 220.234 202.938 220.064 202.938 219.906L203.589 221.119C203.472 221.354 203.337 221.591 203.185 221.831C203.038 222.071 202.854 222.294 202.631 222.499C202.414 222.698 202.147 222.862 201.831 222.991C201.515 223.114 201.131 223.176 200.68 223.176C200.094 223.176 199.555 223.056 199.062 222.815C198.576 222.575 198.187 222.241 197.894 221.813C197.601 221.38 197.454 220.882 197.454 220.319C197.454 219.827 197.542 219.388 197.718 219.001C197.899 218.614 198.172 218.286 198.535 218.017C198.898 217.747 199.361 217.542 199.924 217.401C200.486 217.261 201.148 217.19 201.91 217.19H203.185ZM212.457 213.49V215.547H206.727V213.49H212.457ZM207.931 211.126H210.893V219.897C210.893 220.149 210.922 220.346 210.98 220.486C211.039 220.621 211.139 220.718 211.279 220.776C211.426 220.829 211.619 220.855 211.859 220.855C212.029 220.855 212.17 220.853 212.281 220.847C212.393 220.835 212.498 220.82 212.598 220.803V222.921C212.346 223.003 212.082 223.064 211.807 223.105C211.531 223.152 211.238 223.176 210.928 223.176C210.295 223.176 209.753 223.076 209.302 222.877C208.856 222.678 208.517 222.364 208.282 221.937C208.048 221.509 207.931 220.952 207.931 220.267V211.126ZM216.764 213.49V223H213.793V213.49H216.764ZM213.617 211.038C213.617 210.616 213.77 210.271 214.074 210.001C214.379 209.731 214.774 209.597 215.261 209.597C215.747 209.597 216.143 209.731 216.447 210.001C216.752 210.271 216.904 210.616 216.904 211.038C216.904 211.46 216.752 211.806 216.447 212.075C216.143 212.345 215.747 212.479 215.261 212.479C214.774 212.479 214.379 212.345 214.074 212.075C213.77 211.806 213.617 211.46 213.617 211.038ZM222.02 220.97L223.892 213.49H227.012L223.9 223H222.055L222.02 220.97ZM220.912 213.49L222.758 220.97L222.74 223H220.886L217.783 213.49H220.912ZM232.373 223.176C231.6 223.176 230.908 223.056 230.299 222.815C229.689 222.569 229.174 222.232 228.752 221.805C228.336 221.377 228.017 220.885 227.794 220.328C227.577 219.771 227.469 219.183 227.469 218.562V218.228C227.469 217.53 227.565 216.886 227.759 216.294C227.952 215.696 228.239 215.175 228.62 214.729C229.001 214.284 229.479 213.938 230.053 213.692C230.627 213.44 231.295 213.314 232.057 213.314C232.73 213.314 233.334 213.423 233.867 213.64C234.4 213.856 234.852 214.167 235.221 214.571C235.596 214.976 235.88 215.465 236.073 216.039C236.272 216.613 236.372 217.258 236.372 217.973V219.177H228.603V217.322H233.48V217.094C233.486 216.777 233.431 216.508 233.313 216.285C233.202 216.062 233.038 215.893 232.821 215.775C232.604 215.658 232.341 215.6 232.03 215.6C231.708 215.6 231.441 215.67 231.23 215.811C231.025 215.951 230.864 216.145 230.747 216.391C230.636 216.631 230.557 216.909 230.51 217.226C230.463 217.542 230.439 217.876 230.439 218.228V218.562C230.439 218.913 230.486 219.232 230.58 219.52C230.68 219.807 230.82 220.053 231.002 220.258C231.189 220.457 231.412 220.612 231.67 220.724C231.934 220.835 232.232 220.891 232.566 220.891C232.971 220.891 233.369 220.814 233.762 220.662C234.154 220.51 234.491 220.258 234.772 219.906L236.117 221.506C235.924 221.781 235.648 222.048 235.291 222.306C234.939 222.563 234.518 222.774 234.025 222.938C233.533 223.097 232.982 223.176 232.373 223.176Z" fill="white"/>
<rect x="111" y="196" width="148" height="41" rx="3" stroke="#424242" stroke-width="4"/>
<rect x="279" y="196" width="138" height="41" rx="3" fill="#424242"/>
<path d="M311.253 220.627V223H304.433V220.627H311.253ZM305.531 210.203V223H302.446V210.203H305.531ZM310.374 215.283V217.577H304.433V215.283H310.374ZM311.279 210.203V212.585H304.433V210.203H311.279ZM315.507 209.5V223H312.536V209.5H315.507ZM321.94 223.176C321.167 223.176 320.476 223.056 319.866 222.815C319.257 222.569 318.741 222.232 318.319 221.805C317.903 221.377 317.584 220.885 317.361 220.328C317.145 219.771 317.036 219.183 317.036 218.562V218.228C317.036 217.53 317.133 216.886 317.326 216.294C317.52 215.696 317.807 215.175 318.188 214.729C318.568 214.284 319.046 213.938 319.62 213.692C320.194 213.44 320.862 213.314 321.624 213.314C322.298 213.314 322.901 213.423 323.435 213.64C323.968 213.856 324.419 214.167 324.788 214.571C325.163 214.976 325.447 215.465 325.641 216.039C325.84 216.613 325.939 217.258 325.939 217.973V219.177H318.17V217.322H323.048V217.094C323.054 216.777 322.998 216.508 322.881 216.285C322.77 216.062 322.605 215.893 322.389 215.775C322.172 215.658 321.908 215.6 321.598 215.6C321.275 215.6 321.009 215.67 320.798 215.811C320.593 215.951 320.432 216.145 320.314 216.391C320.203 216.631 320.124 216.909 320.077 217.226C320.03 217.542 320.007 217.876 320.007 218.228V218.562C320.007 218.913 320.054 219.232 320.147 219.52C320.247 219.807 320.388 220.053 320.569 220.258C320.757 220.457 320.979 220.612 321.237 220.724C321.501 220.835 321.8 220.891 322.134 220.891C322.538 220.891 322.937 220.814 323.329 220.662C323.722 220.51 324.059 220.258 324.34 219.906L325.685 221.506C325.491 221.781 325.216 222.048 324.858 222.306C324.507 222.563 324.085 222.774 323.593 222.938C323.101 223.097 322.55 223.176 321.94 223.176ZM331.16 220.891C331.436 220.891 331.67 220.841 331.863 220.741C332.062 220.636 332.212 220.489 332.312 220.302C332.417 220.108 332.467 219.877 332.461 219.607H335.247C335.253 220.322 335.077 220.949 334.72 221.488C334.368 222.021 333.888 222.438 333.278 222.736C332.675 223.029 331.992 223.176 331.23 223.176C330.486 223.176 329.836 223.056 329.279 222.815C328.723 222.569 328.257 222.229 327.882 221.796C327.513 221.356 327.234 220.844 327.047 220.258C326.865 219.672 326.774 219.036 326.774 218.351V218.148C326.774 217.463 326.865 216.827 327.047 216.241C327.234 215.649 327.513 215.137 327.882 214.703C328.257 214.264 328.72 213.924 329.271 213.684C329.827 213.438 330.475 213.314 331.213 213.314C332.004 213.314 332.701 213.464 333.305 213.763C333.914 214.062 334.392 214.495 334.737 215.063C335.083 215.632 335.253 216.32 335.247 217.129H332.461C332.467 216.842 332.423 216.584 332.329 216.355C332.235 216.127 332.089 215.945 331.89 215.811C331.696 215.67 331.447 215.6 331.143 215.6C330.838 215.6 330.592 215.667 330.404 215.802C330.217 215.937 330.073 216.124 329.974 216.364C329.88 216.599 329.815 216.868 329.78 217.173C329.751 217.478 329.736 217.803 329.736 218.148V218.351C329.736 218.702 329.751 219.033 329.78 219.344C329.815 219.648 329.883 219.918 329.982 220.152C330.082 220.381 330.226 220.562 330.413 220.697C330.601 220.826 330.85 220.891 331.16 220.891ZM341.522 213.49V215.547H335.792V213.49H341.522ZM336.996 211.126H339.958V219.897C339.958 220.149 339.987 220.346 340.046 220.486C340.104 220.621 340.204 220.718 340.345 220.776C340.491 220.829 340.685 220.855 340.925 220.855C341.095 220.855 341.235 220.853 341.347 220.847C341.458 220.835 341.563 220.82 341.663 220.803V222.921C341.411 223.003 341.147 223.064 340.872 223.105C340.597 223.152 340.304 223.176 339.993 223.176C339.36 223.176 338.818 223.076 338.367 222.877C337.922 222.678 337.582 222.364 337.348 221.937C337.113 221.509 336.996 220.952 336.996 220.267V211.126ZM345.688 215.846V223H342.727V213.49H345.495L345.688 215.846ZM348.501 213.42L348.448 216.171C348.331 216.159 348.173 216.145 347.974 216.127C347.774 216.109 347.607 216.101 347.473 216.101C347.127 216.101 346.828 216.142 346.576 216.224C346.33 216.3 346.125 216.417 345.961 216.575C345.803 216.728 345.686 216.921 345.609 217.155C345.539 217.39 345.507 217.662 345.513 217.973L344.977 217.621C344.977 216.982 345.038 216.402 345.161 215.881C345.29 215.354 345.472 214.899 345.706 214.519C345.94 214.132 346.225 213.836 346.559 213.631C346.893 213.42 347.268 213.314 347.684 213.314C347.83 213.314 347.974 213.323 348.114 213.341C348.261 213.358 348.39 213.385 348.501 213.42ZM348.835 218.342V218.157C348.835 217.46 348.935 216.818 349.134 216.232C349.333 215.641 349.626 215.128 350.013 214.694C350.399 214.261 350.877 213.924 351.445 213.684C352.014 213.438 352.67 213.314 353.414 213.314C354.164 213.314 354.823 213.438 355.392 213.684C355.966 213.924 356.446 214.261 356.833 214.694C357.22 215.128 357.513 215.641 357.712 216.232C357.911 216.818 358.011 217.46 358.011 218.157V218.342C358.011 219.033 357.911 219.675 357.712 220.267C357.513 220.853 357.22 221.365 356.833 221.805C356.446 222.238 355.969 222.575 355.4 222.815C354.832 223.056 354.176 223.176 353.432 223.176C352.688 223.176 352.028 223.056 351.454 222.815C350.88 222.575 350.399 222.238 350.013 221.805C349.626 221.365 349.333 220.853 349.134 220.267C348.935 219.675 348.835 219.033 348.835 218.342ZM351.797 218.157V218.342C351.797 218.699 351.823 219.033 351.876 219.344C351.929 219.654 352.017 219.927 352.14 220.161C352.263 220.39 352.43 220.568 352.641 220.697C352.852 220.826 353.115 220.891 353.432 220.891C353.742 220.891 354 220.826 354.205 220.697C354.416 220.568 354.583 220.39 354.706 220.161C354.829 219.927 354.917 219.654 354.97 219.344C355.022 219.033 355.049 218.699 355.049 218.342V218.157C355.049 217.812 355.022 217.486 354.97 217.182C354.917 216.871 354.829 216.599 354.706 216.364C354.583 216.124 354.416 215.937 354.205 215.802C353.994 215.667 353.73 215.6 353.414 215.6C353.104 215.6 352.843 215.667 352.632 215.802C352.427 215.937 352.263 216.124 352.14 216.364C352.017 216.599 351.929 216.871 351.876 217.182C351.823 217.486 351.797 217.812 351.797 218.157ZM362.238 215.521V223H359.276V213.49H362.054L362.238 215.521ZM361.887 217.92L361.192 217.938C361.192 217.211 361.28 216.563 361.456 215.995C361.632 215.421 361.881 214.935 362.203 214.536C362.525 214.138 362.909 213.836 363.354 213.631C363.806 213.42 364.307 213.314 364.857 213.314C365.297 213.314 365.698 213.379 366.062 213.508C366.431 213.637 366.747 213.845 367.011 214.132C367.28 214.419 367.485 214.8 367.626 215.274C367.772 215.743 367.846 216.323 367.846 217.015V223H364.866V217.006C364.866 216.625 364.813 216.335 364.708 216.136C364.603 215.931 364.45 215.79 364.251 215.714C364.052 215.638 363.809 215.6 363.521 215.6C363.217 215.6 362.959 215.658 362.748 215.775C362.537 215.893 362.367 216.057 362.238 216.268C362.115 216.473 362.024 216.716 361.966 216.997C361.913 217.278 361.887 217.586 361.887 217.92ZM379.201 218.983V210.203H382.277V218.983C382.277 219.839 382.081 220.58 381.688 221.207C381.302 221.834 380.774 222.32 380.106 222.666C379.444 223.006 378.7 223.176 377.874 223.176C377.019 223.176 376.257 223.032 375.589 222.745C374.927 222.458 374.405 222.016 374.024 221.418C373.649 220.82 373.462 220.059 373.462 219.133H376.556C376.556 219.566 376.605 219.906 376.705 220.152C376.805 220.393 376.951 220.562 377.145 220.662C377.344 220.756 377.587 220.803 377.874 220.803C378.155 220.803 378.393 220.732 378.586 220.592C378.785 220.445 378.938 220.237 379.043 219.968C379.148 219.692 379.201 219.364 379.201 218.983ZM390.829 219.599C390.829 219.399 390.8 219.221 390.741 219.062C390.683 218.898 390.574 218.746 390.416 218.605C390.258 218.465 390.029 218.324 389.73 218.184C389.438 218.037 389.051 217.885 388.57 217.727C388.008 217.539 387.466 217.328 386.944 217.094C386.423 216.854 385.957 216.575 385.547 216.259C385.137 215.937 384.812 215.562 384.571 215.134C384.331 214.7 384.211 214.196 384.211 213.622C384.211 213.071 384.334 212.576 384.58 212.137C384.826 211.691 385.169 211.313 385.608 211.003C386.054 210.687 386.575 210.446 387.173 210.282C387.771 210.112 388.424 210.027 389.133 210.027C390.07 210.027 390.896 210.191 391.611 210.52C392.332 210.842 392.895 211.302 393.299 211.899C393.709 212.491 393.914 213.191 393.914 214H390.847C390.847 213.678 390.779 213.394 390.645 213.147C390.516 212.901 390.319 212.708 390.056 212.567C389.792 212.427 389.461 212.356 389.062 212.356C388.676 212.356 388.351 212.415 388.087 212.532C387.823 212.649 387.624 212.808 387.489 213.007C387.354 213.2 387.287 213.414 387.287 213.648C387.287 213.842 387.34 214.018 387.445 214.176C387.557 214.328 387.712 214.472 387.911 214.606C388.116 214.741 388.362 214.87 388.649 214.993C388.942 215.116 389.271 215.236 389.634 215.354C390.313 215.57 390.917 215.813 391.444 216.083C391.978 216.347 392.426 216.648 392.789 216.988C393.158 217.322 393.437 217.703 393.624 218.131C393.817 218.559 393.914 219.042 393.914 219.581C393.914 220.155 393.803 220.665 393.58 221.11C393.357 221.556 393.038 221.934 392.622 222.244C392.206 222.549 391.708 222.78 391.128 222.938C390.548 223.097 389.9 223.176 389.186 223.176C388.529 223.176 387.882 223.094 387.243 222.93C386.61 222.76 386.036 222.502 385.521 222.156C385.005 221.805 384.592 221.356 384.281 220.812C383.977 220.261 383.824 219.607 383.824 218.852H386.918C386.918 219.227 386.968 219.543 387.067 219.801C387.167 220.059 387.313 220.267 387.507 220.425C387.7 220.577 387.938 220.688 388.219 220.759C388.5 220.823 388.822 220.855 389.186 220.855C389.578 220.855 389.895 220.8 390.135 220.688C390.375 220.571 390.551 220.419 390.662 220.231C390.773 220.038 390.829 219.827 390.829 219.599Z" fill="white"/>
<rect x="279" y="196" width="138" height="41" rx="3" stroke="#424242" stroke-width="4"/>
<rect x="437" y="196" width="109" height="41" rx="3" fill="#424242"/>
<path d="M471.118 210.203V223H468.042L463.516 215.037V223H460.431V210.203H463.516L468.042 218.166V210.203H471.118ZM472.56 218.342V218.157C472.56 217.46 472.659 216.818 472.858 216.232C473.058 215.641 473.351 215.128 473.737 214.694C474.124 214.261 474.602 213.924 475.17 213.684C475.738 213.438 476.395 213.314 477.139 213.314C477.889 213.314 478.548 213.438 479.116 213.684C479.69 213.924 480.171 214.261 480.558 214.694C480.944 215.128 481.237 215.641 481.437 216.232C481.636 216.818 481.735 217.46 481.735 218.157V218.342C481.735 219.033 481.636 219.675 481.437 220.267C481.237 220.853 480.944 221.365 480.558 221.805C480.171 222.238 479.693 222.575 479.125 222.815C478.557 223.056 477.9 223.176 477.156 223.176C476.412 223.176 475.753 223.056 475.179 222.815C474.604 222.575 474.124 222.238 473.737 221.805C473.351 221.365 473.058 220.853 472.858 220.267C472.659 219.675 472.56 219.033 472.56 218.342ZM475.521 218.157V218.342C475.521 218.699 475.548 219.033 475.601 219.344C475.653 219.654 475.741 219.927 475.864 220.161C475.987 220.39 476.154 220.568 476.365 220.697C476.576 220.826 476.84 220.891 477.156 220.891C477.467 220.891 477.725 220.826 477.93 220.697C478.141 220.568 478.308 220.39 478.431 220.161C478.554 219.927 478.642 219.654 478.694 219.344C478.747 219.033 478.773 218.699 478.773 218.342V218.157C478.773 217.812 478.747 217.486 478.694 217.182C478.642 216.871 478.554 216.599 478.431 216.364C478.308 216.124 478.141 215.937 477.93 215.802C477.719 215.667 477.455 215.6 477.139 215.6C476.828 215.6 476.567 215.667 476.356 215.802C476.151 215.937 475.987 216.124 475.864 216.364C475.741 216.599 475.653 216.871 475.601 217.182C475.548 217.486 475.521 217.812 475.521 218.157ZM488.521 220.82V209.5H491.5V223H488.828L488.521 220.82ZM482.685 218.359V218.175C482.685 217.454 482.764 216.798 482.922 216.206C483.08 215.608 483.314 215.096 483.625 214.668C483.936 214.234 484.322 213.9 484.785 213.666C485.248 213.432 485.781 213.314 486.385 213.314C486.924 213.314 487.396 213.44 487.8 213.692C488.204 213.938 488.55 214.284 488.837 214.729C489.124 215.175 489.358 215.696 489.54 216.294C489.722 216.886 489.859 217.524 489.953 218.21V218.43C489.859 219.074 489.722 219.684 489.54 220.258C489.358 220.826 489.124 221.33 488.837 221.77C488.55 222.209 488.201 222.555 487.791 222.807C487.387 223.053 486.912 223.176 486.367 223.176C485.764 223.176 485.23 223.056 484.768 222.815C484.311 222.575 483.927 222.238 483.616 221.805C483.312 221.371 483.08 220.861 482.922 220.275C482.764 219.689 482.685 219.051 482.685 218.359ZM485.646 218.175V218.359C485.646 218.717 485.67 219.048 485.717 219.353C485.764 219.657 485.843 219.927 485.954 220.161C486.071 220.39 486.224 220.568 486.411 220.697C486.604 220.826 486.842 220.891 487.123 220.891C487.504 220.891 487.817 220.8 488.063 220.618C488.315 220.437 488.5 220.179 488.617 219.845C488.74 219.511 488.793 219.118 488.775 218.667V217.973C488.787 217.586 488.761 217.246 488.696 216.953C488.632 216.654 488.529 216.405 488.389 216.206C488.254 216.007 488.081 215.857 487.87 215.758C487.665 215.652 487.422 215.6 487.141 215.6C486.865 215.6 486.631 215.664 486.438 215.793C486.25 215.922 486.098 216.104 485.98 216.338C485.863 216.566 485.778 216.839 485.726 217.155C485.673 217.466 485.646 217.806 485.646 218.175ZM497.784 223.176C497.011 223.176 496.319 223.056 495.71 222.815C495.101 222.569 494.585 222.232 494.163 221.805C493.747 221.377 493.428 220.885 493.205 220.328C492.988 219.771 492.88 219.183 492.88 218.562V218.228C492.88 217.53 492.977 216.886 493.17 216.294C493.363 215.696 493.65 215.175 494.031 214.729C494.412 214.284 494.89 213.938 495.464 213.692C496.038 213.44 496.706 213.314 497.468 213.314C498.142 213.314 498.745 213.423 499.278 213.64C499.812 213.856 500.263 214.167 500.632 214.571C501.007 214.976 501.291 215.465 501.484 216.039C501.684 216.613 501.783 217.258 501.783 217.973V219.177H494.014V217.322H498.892V217.094C498.897 216.777 498.842 216.508 498.725 216.285C498.613 216.062 498.449 215.893 498.232 215.775C498.016 215.658 497.752 215.6 497.441 215.6C497.119 215.6 496.853 215.67 496.642 215.811C496.437 215.951 496.275 216.145 496.158 216.391C496.047 216.631 495.968 216.909 495.921 217.226C495.874 217.542 495.851 217.876 495.851 218.228V218.562C495.851 218.913 495.897 219.232 495.991 219.52C496.091 219.807 496.231 220.053 496.413 220.258C496.601 220.457 496.823 220.612 497.081 220.724C497.345 220.835 497.644 220.891 497.978 220.891C498.382 220.891 498.78 220.814 499.173 220.662C499.565 220.51 499.902 220.258 500.184 219.906L501.528 221.506C501.335 221.781 501.06 222.048 500.702 222.306C500.351 222.563 499.929 222.774 499.437 222.938C498.944 223.097 498.394 223.176 497.784 223.176ZM508.217 218.983V210.203H511.293V218.983C511.293 219.839 511.097 220.58 510.704 221.207C510.317 221.834 509.79 222.32 509.122 222.666C508.46 223.006 507.716 223.176 506.89 223.176C506.034 223.176 505.272 223.032 504.604 222.745C503.942 222.458 503.421 222.016 503.04 221.418C502.665 220.82 502.478 220.059 502.478 219.133H505.571C505.571 219.566 505.621 219.906 505.721 220.152C505.82 220.393 505.967 220.562 506.16 220.662C506.359 220.756 506.603 220.803 506.89 220.803C507.171 220.803 507.408 220.732 507.602 220.592C507.801 220.445 507.953 220.237 508.059 219.968C508.164 219.692 508.217 219.364 508.217 218.983ZM519.845 219.599C519.845 219.399 519.815 219.221 519.757 219.062C519.698 218.898 519.59 218.746 519.432 218.605C519.273 218.465 519.045 218.324 518.746 218.184C518.453 218.037 518.066 217.885 517.586 217.727C517.023 217.539 516.481 217.328 515.96 217.094C515.438 216.854 514.973 216.575 514.562 216.259C514.152 215.937 513.827 215.562 513.587 215.134C513.347 214.7 513.227 214.196 513.227 213.622C513.227 213.071 513.35 212.576 513.596 212.137C513.842 211.691 514.185 211.313 514.624 211.003C515.069 210.687 515.591 210.446 516.188 210.282C516.786 210.112 517.439 210.027 518.148 210.027C519.086 210.027 519.912 210.191 520.627 210.52C521.348 210.842 521.91 211.302 522.314 211.899C522.725 212.491 522.93 213.191 522.93 214H519.862C519.862 213.678 519.795 213.394 519.66 213.147C519.531 212.901 519.335 212.708 519.071 212.567C518.808 212.427 518.477 212.356 518.078 212.356C517.691 212.356 517.366 212.415 517.103 212.532C516.839 212.649 516.64 212.808 516.505 213.007C516.37 213.2 516.303 213.414 516.303 213.648C516.303 213.842 516.355 214.018 516.461 214.176C516.572 214.328 516.728 214.472 516.927 214.606C517.132 214.741 517.378 214.87 517.665 214.993C517.958 215.116 518.286 215.236 518.649 215.354C519.329 215.57 519.933 215.813 520.46 216.083C520.993 216.347 521.441 216.648 521.805 216.988C522.174 217.322 522.452 217.703 522.64 218.131C522.833 218.559 522.93 219.042 522.93 219.581C522.93 220.155 522.818 220.665 522.596 221.11C522.373 221.556 522.054 221.934 521.638 222.244C521.222 222.549 520.724 222.78 520.144 222.938C519.563 223.097 518.916 223.176 518.201 223.176C517.545 223.176 516.897 223.094 516.259 222.93C515.626 222.76 515.052 222.502 514.536 222.156C514.021 221.805 513.607 221.356 513.297 220.812C512.992 220.261 512.84 219.607 512.84 218.852H515.934C515.934 219.227 515.983 219.543 516.083 219.801C516.183 220.059 516.329 220.267 516.522 220.425C516.716 220.577 516.953 220.688 517.234 220.759C517.516 220.823 517.838 220.855 518.201 220.855C518.594 220.855 518.91 220.8 519.15 220.688C519.391 220.571 519.566 220.419 519.678 220.231C519.789 220.038 519.845 219.827 519.845 219.599Z" fill="white"/>
<rect x="437" y="196" width="109" height="41" rx="3" stroke="#424242" stroke-width="4"/>
<rect x="566" y="196" width="104" height="41" rx="3" fill="#424242"/>
<path d="M597.812 220.627V223H591.343V220.627H597.812ZM592.441 210.203V223H589.356V210.203H592.441ZM603.911 220.609V216.689C603.911 216.42 603.873 216.188 603.797 215.995C603.721 215.802 603.601 215.652 603.437 215.547C603.272 215.436 603.053 215.38 602.777 215.38C602.555 215.38 602.364 215.418 602.206 215.494C602.048 215.57 601.928 215.685 601.846 215.837C601.764 215.989 601.723 216.183 601.723 216.417H598.761C598.761 215.978 598.857 215.57 599.051 215.195C599.25 214.814 599.531 214.483 599.895 214.202C600.264 213.921 600.703 213.704 601.213 213.552C601.729 213.394 602.303 213.314 602.936 213.314C603.691 213.314 604.365 213.44 604.957 213.692C605.555 213.944 606.026 214.322 606.372 214.826C606.718 215.324 606.891 215.951 606.891 216.707V220.601C606.891 221.222 606.926 221.693 606.996 222.016C607.066 222.332 607.166 222.61 607.295 222.851V223H604.324C604.184 222.707 604.078 222.35 604.008 221.928C603.943 221.5 603.911 221.061 603.911 220.609ZM604.271 217.19L604.289 218.772H602.979C602.704 218.772 602.47 218.811 602.276 218.887C602.089 218.963 601.937 219.068 601.819 219.203C601.708 219.332 601.626 219.479 601.573 219.643C601.526 219.807 601.503 219.979 601.503 220.161C601.503 220.337 601.544 220.495 601.626 220.636C601.714 220.771 601.831 220.876 601.978 220.952C602.124 221.028 602.288 221.066 602.47 221.066C602.798 221.066 603.076 221.005 603.305 220.882C603.539 220.753 603.718 220.598 603.841 220.416C603.964 220.234 604.025 220.064 604.025 219.906L604.676 221.119C604.559 221.354 604.424 221.591 604.271 221.831C604.125 222.071 603.94 222.294 603.718 222.499C603.501 222.698 603.234 222.862 602.918 222.991C602.602 223.114 602.218 223.176 601.767 223.176C601.181 223.176 600.642 223.056 600.149 222.815C599.663 222.575 599.273 222.241 598.98 221.813C598.688 221.38 598.541 220.882 598.541 220.319C598.541 219.827 598.629 219.388 598.805 219.001C598.986 218.614 599.259 218.286 599.622 218.017C599.985 217.747 600.448 217.542 601.011 217.401C601.573 217.261 602.235 217.19 602.997 217.19H604.271ZM611.522 215.846V223H608.561V213.49H611.329L611.522 215.846ZM614.335 213.42L614.282 216.171C614.165 216.159 614.007 216.145 613.808 216.127C613.608 216.109 613.441 216.101 613.307 216.101C612.961 216.101 612.662 216.142 612.41 216.224C612.164 216.3 611.959 216.417 611.795 216.575C611.637 216.728 611.52 216.921 611.443 217.155C611.373 217.39 611.341 217.662 611.347 217.973L610.811 217.621C610.811 216.982 610.872 216.402 610.995 215.881C611.124 215.354 611.306 214.899 611.54 214.519C611.774 214.132 612.059 213.836 612.393 213.631C612.727 213.42 613.102 213.314 613.518 213.314C613.664 213.314 613.808 213.323 613.948 213.341C614.095 213.358 614.224 213.385 614.335 213.42ZM620.03 220.609V216.689C620.03 216.42 619.992 216.188 619.916 215.995C619.84 215.802 619.72 215.652 619.556 215.547C619.392 215.436 619.172 215.38 618.896 215.38C618.674 215.38 618.483 215.418 618.325 215.494C618.167 215.57 618.047 215.685 617.965 215.837C617.883 215.989 617.842 216.183 617.842 216.417H614.88C614.88 215.978 614.977 215.57 615.17 215.195C615.369 214.814 615.65 214.483 616.014 214.202C616.383 213.921 616.822 213.704 617.332 213.552C617.848 213.394 618.422 213.314 619.055 213.314C619.811 213.314 620.484 213.44 621.076 213.692C621.674 213.944 622.146 214.322 622.491 214.826C622.837 215.324 623.01 215.951 623.01 216.707V220.601C623.01 221.222 623.045 221.693 623.115 222.016C623.186 222.332 623.285 222.61 623.414 222.851V223H620.443C620.303 222.707 620.197 222.35 620.127 221.928C620.062 221.5 620.03 221.061 620.03 220.609ZM620.391 217.19L620.408 218.772H619.099C618.823 218.772 618.589 218.811 618.396 218.887C618.208 218.963 618.056 219.068 617.938 219.203C617.827 219.332 617.745 219.479 617.692 219.643C617.646 219.807 617.622 219.979 617.622 220.161C617.622 220.337 617.663 220.495 617.745 220.636C617.833 220.771 617.95 220.876 618.097 220.952C618.243 221.028 618.407 221.066 618.589 221.066C618.917 221.066 619.195 221.005 619.424 220.882C619.658 220.753 619.837 220.598 619.96 220.416C620.083 220.234 620.145 220.064 620.145 219.906L620.795 221.119C620.678 221.354 620.543 221.591 620.391 221.831C620.244 222.071 620.06 222.294 619.837 222.499C619.62 222.698 619.354 222.862 619.037 222.991C618.721 223.114 618.337 223.176 617.886 223.176C617.3 223.176 616.761 223.056 616.269 222.815C615.782 222.575 615.393 222.241 615.1 221.813C614.807 221.38 614.66 220.882 614.66 220.319C614.66 219.827 614.748 219.388 614.924 219.001C615.105 218.614 615.378 218.286 615.741 218.017C616.104 217.747 616.567 217.542 617.13 217.401C617.692 217.261 618.354 217.19 619.116 217.19H620.391ZM627.94 220.97L629.812 213.49H632.933L629.821 223H627.976L627.94 220.97ZM626.833 213.49L628.679 220.97L628.661 223H626.807L623.704 213.49H626.833ZM638.294 223.176C637.521 223.176 636.829 223.056 636.22 222.815C635.61 222.569 635.095 222.232 634.673 221.805C634.257 221.377 633.938 220.885 633.715 220.328C633.498 219.771 633.39 219.183 633.39 218.562V218.228C633.39 217.53 633.486 216.886 633.68 216.294C633.873 215.696 634.16 215.175 634.541 214.729C634.922 214.284 635.399 213.938 635.974 213.692C636.548 213.44 637.216 213.314 637.978 213.314C638.651 213.314 639.255 213.423 639.788 213.64C640.321 213.856 640.772 214.167 641.142 214.571C641.517 214.976 641.801 215.465 641.994 216.039C642.193 216.613 642.293 217.258 642.293 217.973V219.177H634.523V217.322H639.401V217.094C639.407 216.777 639.352 216.508 639.234 216.285C639.123 216.062 638.959 215.893 638.742 215.775C638.525 215.658 638.262 215.6 637.951 215.6C637.629 215.6 637.362 215.67 637.151 215.811C636.946 215.951 636.785 216.145 636.668 216.391C636.557 216.631 636.478 216.909 636.431 217.226C636.384 217.542 636.36 217.876 636.36 218.228V218.562C636.36 218.913 636.407 219.232 636.501 219.52C636.601 219.807 636.741 220.053 636.923 220.258C637.11 220.457 637.333 220.612 637.591 220.724C637.854 220.835 638.153 220.891 638.487 220.891C638.892 220.891 639.29 220.814 639.683 220.662C640.075 220.51 640.412 220.258 640.693 219.906L642.038 221.506C641.845 221.781 641.569 222.048 641.212 222.306C640.86 222.563 640.438 222.774 639.946 222.938C639.454 223.097 638.903 223.176 638.294 223.176ZM646.626 209.5V223H643.655V209.5H646.626Z" fill="white"/>
<rect x="566" y="196" width="104" height="41" rx="3" stroke="#424242" stroke-width="4"/>
<rect x="690" y="196" width="131" height="41" rx="3" fill="#424242"/>
<path d="M719.359 210.203V223H716.274V210.203H719.359ZM723.209 210.203V212.585H712.513V210.203H723.209ZM726.575 221.884L729.036 213.49H732.218L728.395 224.415C728.312 224.655 728.204 224.913 728.069 225.188C727.935 225.47 727.75 225.736 727.516 225.988C727.281 226.24 726.979 226.445 726.61 226.604C726.247 226.762 725.796 226.841 725.257 226.841C724.97 226.841 724.759 226.826 724.624 226.797C724.495 226.773 724.296 226.729 724.026 226.665V224.547C724.103 224.547 724.167 224.547 724.22 224.547C724.278 224.547 724.343 224.547 724.413 224.547C724.729 224.547 724.981 224.515 725.169 224.45C725.362 224.386 725.509 224.292 725.608 224.169C725.714 224.046 725.796 223.896 725.854 223.721L726.575 221.884ZM725.951 213.49L727.823 220.144L728.148 223.281H726.162L722.778 213.49H725.951ZM735.979 215.318V226.656H733.018V213.49H735.777L735.979 215.318ZM741.815 218.131V218.315C741.815 219.007 741.736 219.648 741.578 220.24C741.42 220.832 741.186 221.348 740.875 221.787C740.564 222.227 740.178 222.569 739.715 222.815C739.258 223.056 738.728 223.176 738.124 223.176C737.556 223.176 737.066 223.05 736.656 222.798C736.246 222.546 735.903 222.197 735.628 221.752C735.353 221.307 735.13 220.797 734.96 220.223C734.79 219.648 734.655 219.042 734.556 218.403V218.166C734.655 217.48 734.79 216.845 734.96 216.259C735.13 215.667 735.353 215.151 735.628 214.712C735.903 214.272 736.243 213.93 736.647 213.684C737.058 213.438 737.547 213.314 738.115 213.314C738.719 213.314 739.249 213.429 739.706 213.657C740.169 213.886 740.556 214.214 740.866 214.642C741.183 215.063 741.42 215.57 741.578 216.162C741.736 216.754 741.815 217.41 741.815 218.131ZM738.854 218.315V218.131C738.854 217.762 738.827 217.425 738.774 217.12C738.722 216.81 738.637 216.54 738.52 216.312C738.408 216.083 738.259 215.907 738.071 215.784C737.884 215.661 737.652 215.6 737.377 215.6C737.061 215.6 736.794 215.649 736.577 215.749C736.366 215.843 736.196 215.989 736.067 216.188C735.944 216.382 735.856 216.625 735.804 216.918C735.757 217.205 735.736 217.542 735.742 217.929V218.649C735.73 219.095 735.774 219.487 735.874 219.827C735.974 220.161 736.146 220.422 736.393 220.609C736.639 220.797 736.973 220.891 737.395 220.891C737.676 220.891 737.91 220.826 738.098 220.697C738.285 220.562 738.435 220.378 738.546 220.144C738.657 219.903 738.736 219.628 738.783 219.317C738.83 219.007 738.854 218.673 738.854 218.315ZM747.739 223.176C746.966 223.176 746.274 223.056 745.665 222.815C745.056 222.569 744.54 222.232 744.118 221.805C743.702 221.377 743.383 220.885 743.16 220.328C742.943 219.771 742.835 219.183 742.835 218.562V218.228C742.835 217.53 742.932 216.886 743.125 216.294C743.318 215.696 743.605 215.175 743.986 214.729C744.367 214.284 744.845 213.938 745.419 213.692C745.993 213.44 746.661 213.314 747.423 213.314C748.097 213.314 748.7 213.423 749.233 213.64C749.767 213.856 750.218 214.167 750.587 214.571C750.962 214.976 751.246 215.465 751.439 216.039C751.639 216.613 751.738 217.258 751.738 217.973V219.177H743.969V217.322H748.847V217.094C748.853 216.777 748.797 216.508 748.68 216.285C748.568 216.062 748.404 215.893 748.188 215.775C747.971 215.658 747.707 215.6 747.396 215.6C747.074 215.6 746.808 215.67 746.597 215.811C746.392 215.951 746.23 216.145 746.113 216.391C746.002 216.631 745.923 216.909 745.876 217.226C745.829 217.542 745.806 217.876 745.806 218.228V218.562C745.806 218.913 745.853 219.232 745.946 219.52C746.046 219.807 746.187 220.053 746.368 220.258C746.556 220.457 746.778 220.612 747.036 220.724C747.3 220.835 747.599 220.891 747.933 220.891C748.337 220.891 748.735 220.814 749.128 220.662C749.521 220.51 749.857 220.258 750.139 219.906L751.483 221.506C751.29 221.781 751.015 222.048 750.657 222.306C750.306 222.563 749.884 222.774 749.392 222.938C748.899 223.097 748.349 223.176 747.739 223.176ZM757.926 220.328C757.926 220.164 757.87 220.023 757.759 219.906C757.653 219.783 757.466 219.672 757.196 219.572C756.927 219.467 756.549 219.361 756.062 219.256C755.6 219.156 755.163 219.024 754.753 218.86C754.349 218.696 753.994 218.497 753.689 218.263C753.385 218.028 753.145 217.75 752.969 217.428C752.799 217.105 752.714 216.736 752.714 216.32C752.714 215.916 752.799 215.535 752.969 215.178C753.145 214.814 753.399 214.495 753.733 214.22C754.073 213.938 754.486 213.719 754.973 213.561C755.459 213.396 756.013 213.314 756.634 213.314C757.489 213.314 758.228 213.446 758.849 213.71C759.47 213.968 759.947 214.331 760.281 214.8C760.621 215.263 760.791 215.799 760.791 216.408H757.829C757.829 216.168 757.788 215.963 757.706 215.793C757.63 215.623 757.504 215.494 757.328 215.406C757.152 215.312 756.918 215.266 756.625 215.266C756.42 215.266 756.232 215.304 756.062 215.38C755.898 215.456 755.767 215.562 755.667 215.696C755.567 215.831 755.518 215.989 755.518 216.171C755.518 216.3 755.547 216.417 755.605 216.522C755.67 216.622 755.767 216.716 755.896 216.804C756.024 216.886 756.188 216.962 756.388 217.032C756.587 217.097 756.827 217.155 757.108 217.208C757.747 217.325 758.345 217.492 758.901 217.709C759.458 217.926 759.909 218.233 760.255 218.632C760.606 219.03 760.782 219.566 760.782 220.24C760.782 220.662 760.686 221.052 760.492 221.409C760.299 221.761 760.021 222.071 759.657 222.341C759.294 222.604 758.857 222.81 758.348 222.956C757.838 223.103 757.264 223.176 756.625 223.176C755.717 223.176 754.949 223.015 754.322 222.692C753.695 222.364 753.221 221.954 752.898 221.462C752.582 220.964 752.424 220.46 752.424 219.95H755.184C755.195 220.243 755.266 220.483 755.395 220.671C755.529 220.858 755.708 220.996 755.931 221.084C756.153 221.172 756.411 221.216 756.704 221.216C756.974 221.216 757.196 221.178 757.372 221.102C757.554 221.025 757.691 220.923 757.785 220.794C757.879 220.659 757.926 220.504 757.926 220.328ZM766.188 220.891C766.463 220.891 766.697 220.841 766.891 220.741C767.09 220.636 767.239 220.489 767.339 220.302C767.444 220.108 767.494 219.877 767.488 219.607H770.274C770.28 220.322 770.104 220.949 769.747 221.488C769.396 222.021 768.915 222.438 768.306 222.736C767.702 223.029 767.02 223.176 766.258 223.176C765.514 223.176 764.863 223.056 764.307 222.815C763.75 222.569 763.284 222.229 762.909 221.796C762.54 221.356 762.262 220.844 762.074 220.258C761.893 219.672 761.802 219.036 761.802 218.351V218.148C761.802 217.463 761.893 216.827 762.074 216.241C762.262 215.649 762.54 215.137 762.909 214.703C763.284 214.264 763.747 213.924 764.298 213.684C764.854 213.438 765.502 213.314 766.24 213.314C767.031 213.314 767.729 213.464 768.332 213.763C768.941 214.062 769.419 214.495 769.765 215.063C770.11 215.632 770.28 216.32 770.274 217.129H767.488C767.494 216.842 767.45 216.584 767.356 216.355C767.263 216.127 767.116 215.945 766.917 215.811C766.724 215.67 766.475 215.6 766.17 215.6C765.865 215.6 765.619 215.667 765.432 215.802C765.244 215.937 765.101 216.124 765.001 216.364C764.907 216.599 764.843 216.868 764.808 217.173C764.778 217.478 764.764 217.803 764.764 218.148V218.351C764.764 218.702 764.778 219.033 764.808 219.344C764.843 219.648 764.91 219.918 765.01 220.152C765.109 220.381 765.253 220.562 765.44 220.697C765.628 220.826 765.877 220.891 766.188 220.891ZM774.528 215.846V223H771.566V213.49H774.335L774.528 215.846ZM777.341 213.42L777.288 216.171C777.171 216.159 777.013 216.145 776.813 216.127C776.614 216.109 776.447 216.101 776.312 216.101C775.967 216.101 775.668 216.142 775.416 216.224C775.17 216.3 774.965 216.417 774.801 216.575C774.643 216.728 774.525 216.921 774.449 217.155C774.379 217.39 774.347 217.662 774.353 217.973L773.816 217.621C773.816 216.982 773.878 216.402 774.001 215.881C774.13 215.354 774.312 214.899 774.546 214.519C774.78 214.132 775.064 213.836 775.398 213.631C775.732 213.42 776.107 213.314 776.523 213.314C776.67 213.314 776.813 213.323 776.954 213.341C777.101 213.358 777.229 213.385 777.341 213.42ZM781.489 213.49V223H778.519V213.49H781.489ZM778.343 211.038C778.343 210.616 778.495 210.271 778.8 210.001C779.104 209.731 779.5 209.597 779.986 209.597C780.473 209.597 780.868 209.731 781.173 210.001C781.478 210.271 781.63 210.616 781.63 211.038C781.63 211.46 781.478 211.806 781.173 212.075C780.868 212.345 780.473 212.479 779.986 212.479C779.5 212.479 779.104 212.345 778.8 212.075C778.495 211.806 778.343 211.46 778.343 211.038ZM786.306 215.318V226.656H783.344V213.49H786.104L786.306 215.318ZM792.142 218.131V218.315C792.142 219.007 792.062 219.648 791.904 220.24C791.746 220.832 791.512 221.348 791.201 221.787C790.891 222.227 790.504 222.569 790.041 222.815C789.584 223.056 789.054 223.176 788.45 223.176C787.882 223.176 787.393 223.05 786.982 222.798C786.572 222.546 786.229 222.197 785.954 221.752C785.679 221.307 785.456 220.797 785.286 220.223C785.116 219.648 784.981 219.042 784.882 218.403V218.166C784.981 217.48 785.116 216.845 785.286 216.259C785.456 215.667 785.679 215.151 785.954 214.712C786.229 214.272 786.569 213.93 786.974 213.684C787.384 213.438 787.873 213.314 788.441 213.314C789.045 213.314 789.575 213.429 790.032 213.657C790.495 213.886 790.882 214.214 791.192 214.642C791.509 215.063 791.746 215.57 791.904 216.162C792.062 216.754 792.142 217.41 792.142 218.131ZM789.18 218.315V218.131C789.18 217.762 789.153 217.425 789.101 217.12C789.048 216.81 788.963 216.54 788.846 216.312C788.734 216.083 788.585 215.907 788.397 215.784C788.21 215.661 787.979 215.6 787.703 215.6C787.387 215.6 787.12 215.649 786.903 215.749C786.692 215.843 786.522 215.989 786.394 216.188C786.271 216.382 786.183 216.625 786.13 216.918C786.083 217.205 786.062 217.542 786.068 217.929V218.649C786.057 219.095 786.101 219.487 786.2 219.827C786.3 220.161 786.473 220.422 786.719 220.609C786.965 220.797 787.299 220.891 787.721 220.891C788.002 220.891 788.236 220.826 788.424 220.697C788.611 220.562 788.761 220.378 788.872 220.144C788.983 219.903 789.062 219.628 789.109 219.317C789.156 219.007 789.18 218.673 789.18 218.315ZM798.47 213.49V215.547H792.739V213.49H798.47ZM793.943 211.126H796.905V219.897C796.905 220.149 796.935 220.346 796.993 220.486C797.052 220.621 797.151 220.718 797.292 220.776C797.438 220.829 797.632 220.855 797.872 220.855C798.042 220.855 798.183 220.853 798.294 220.847C798.405 220.835 798.511 220.82 798.61 220.803V222.921C798.358 223.003 798.095 223.064 797.819 223.105C797.544 223.152 797.251 223.176 796.94 223.176C796.308 223.176 795.766 223.076 795.314 222.877C794.869 222.678 794.529 222.364 794.295 221.937C794.061 221.509 793.943 220.952 793.943 220.267V211.126Z" fill="white"/>
<rect x="690" y="196" width="131" height="41" rx="3" stroke="#424242" stroke-width="4"/>
<rect x="841" y="196" width="121" height="41" rx="3" fill="#424242"/>
<path d="M870.589 219.599C870.589 219.399 870.56 219.221 870.501 219.062C870.442 218.898 870.334 218.746 870.176 218.605C870.018 218.465 869.789 218.324 869.49 218.184C869.197 218.037 868.811 217.885 868.33 217.727C867.768 217.539 867.226 217.328 866.704 217.094C866.183 216.854 865.717 216.575 865.307 216.259C864.896 215.937 864.571 215.562 864.331 215.134C864.091 214.7 863.971 214.196 863.971 213.622C863.971 213.071 864.094 212.576 864.34 212.137C864.586 211.691 864.929 211.313 865.368 211.003C865.813 210.687 866.335 210.446 866.933 210.282C867.53 210.112 868.184 210.027 868.893 210.027C869.83 210.027 870.656 210.191 871.371 210.52C872.092 210.842 872.654 211.302 873.059 211.899C873.469 212.491 873.674 213.191 873.674 214H870.606C870.606 213.678 870.539 213.394 870.404 213.147C870.275 212.901 870.079 212.708 869.815 212.567C869.552 212.427 869.221 212.356 868.822 212.356C868.436 212.356 868.11 212.415 867.847 212.532C867.583 212.649 867.384 212.808 867.249 213.007C867.114 213.2 867.047 213.414 867.047 213.648C867.047 213.842 867.1 214.018 867.205 214.176C867.316 214.328 867.472 214.472 867.671 214.606C867.876 214.741 868.122 214.87 868.409 214.993C868.702 215.116 869.03 215.236 869.394 215.354C870.073 215.57 870.677 215.813 871.204 216.083C871.737 216.347 872.186 216.648 872.549 216.988C872.918 217.322 873.196 217.703 873.384 218.131C873.577 218.559 873.674 219.042 873.674 219.581C873.674 220.155 873.562 220.665 873.34 221.11C873.117 221.556 872.798 221.934 872.382 222.244C871.966 222.549 871.468 222.78 870.888 222.938C870.308 223.097 869.66 223.176 868.945 223.176C868.289 223.176 867.642 223.094 867.003 222.93C866.37 222.76 865.796 222.502 865.28 222.156C864.765 221.805 864.352 221.356 864.041 220.812C863.736 220.261 863.584 219.607 863.584 218.852H866.678C866.678 219.227 866.728 219.543 866.827 219.801C866.927 220.059 867.073 220.267 867.267 220.425C867.46 220.577 867.697 220.688 867.979 220.759C868.26 220.823 868.582 220.855 868.945 220.855C869.338 220.855 869.654 220.8 869.895 220.688C870.135 220.571 870.311 220.419 870.422 220.231C870.533 220.038 870.589 219.827 870.589 219.599ZM874.755 218.342V218.157C874.755 217.46 874.854 216.818 875.054 216.232C875.253 215.641 875.546 215.128 875.933 214.694C876.319 214.261 876.797 213.924 877.365 213.684C877.934 213.438 878.59 213.314 879.334 213.314C880.084 213.314 880.743 213.438 881.312 213.684C881.886 213.924 882.366 214.261 882.753 214.694C883.14 215.128 883.433 215.641 883.632 216.232C883.831 216.818 883.931 217.46 883.931 218.157V218.342C883.931 219.033 883.831 219.675 883.632 220.267C883.433 220.853 883.14 221.365 882.753 221.805C882.366 222.238 881.889 222.575 881.32 222.815C880.752 223.056 880.096 223.176 879.352 223.176C878.607 223.176 877.948 223.056 877.374 222.815C876.8 222.575 876.319 222.238 875.933 221.805C875.546 221.365 875.253 220.853 875.054 220.267C874.854 219.675 874.755 219.033 874.755 218.342ZM877.717 218.157V218.342C877.717 218.699 877.743 219.033 877.796 219.344C877.849 219.654 877.937 219.927 878.06 220.161C878.183 220.39 878.35 220.568 878.561 220.697C878.771 220.826 879.035 220.891 879.352 220.891C879.662 220.891 879.92 220.826 880.125 220.697C880.336 220.568 880.503 220.39 880.626 220.161C880.749 219.927 880.837 219.654 880.89 219.344C880.942 219.033 880.969 218.699 880.969 218.342V218.157C880.969 217.812 880.942 217.486 880.89 217.182C880.837 216.871 880.749 216.599 880.626 216.364C880.503 216.124 880.336 215.937 880.125 215.802C879.914 215.667 879.65 215.6 879.334 215.6C879.023 215.6 878.763 215.667 878.552 215.802C878.347 215.937 878.183 216.124 878.06 216.364C877.937 216.599 877.849 216.871 877.796 217.182C877.743 217.486 877.717 217.812 877.717 218.157ZM889.266 220.891C889.541 220.891 889.775 220.841 889.969 220.741C890.168 220.636 890.317 220.489 890.417 220.302C890.522 220.108 890.572 219.877 890.566 219.607H893.353C893.358 220.322 893.183 220.949 892.825 221.488C892.474 222.021 891.993 222.438 891.384 222.736C890.78 223.029 890.098 223.176 889.336 223.176C888.592 223.176 887.941 223.056 887.385 222.815C886.828 222.569 886.362 222.229 885.987 221.796C885.618 221.356 885.34 220.844 885.152 220.258C884.971 219.672 884.88 219.036 884.88 218.351V218.148C884.88 217.463 884.971 216.827 885.152 216.241C885.34 215.649 885.618 215.137 885.987 214.703C886.362 214.264 886.825 213.924 887.376 213.684C887.933 213.438 888.58 213.314 889.318 213.314C890.109 213.314 890.807 213.464 891.41 213.763C892.02 214.062 892.497 214.495 892.843 215.063C893.188 215.632 893.358 216.32 893.353 217.129H890.566C890.572 216.842 890.528 216.584 890.435 216.355C890.341 216.127 890.194 215.945 889.995 215.811C889.802 215.67 889.553 215.6 889.248 215.6C888.943 215.6 888.697 215.667 888.51 215.802C888.322 215.937 888.179 216.124 888.079 216.364C887.985 216.599 887.921 216.868 887.886 217.173C887.856 217.478 887.842 217.803 887.842 218.148V218.351C887.842 218.702 887.856 219.033 887.886 219.344C887.921 219.648 887.988 219.918 888.088 220.152C888.188 220.381 888.331 220.562 888.519 220.697C888.706 220.826 888.955 220.891 889.266 220.891ZM897.606 209.491V223H894.645V209.491H897.606ZM903.688 213.49L899.558 218.333L897.396 220.495L896.104 218.614L897.905 216.268L900.138 213.49H903.688ZM900.516 223L897.976 218.667L900.164 217.111L903.908 223H900.516ZM908.892 223.176C908.118 223.176 907.427 223.056 906.817 222.815C906.208 222.569 905.692 222.232 905.271 221.805C904.854 221.377 904.535 220.885 904.312 220.328C904.096 219.771 903.987 219.183 903.987 218.562V218.228C903.987 217.53 904.084 216.886 904.277 216.294C904.471 215.696 904.758 215.175 905.139 214.729C905.52 214.284 905.997 213.938 906.571 213.692C907.146 213.44 907.813 213.314 908.575 213.314C909.249 213.314 909.853 213.423 910.386 213.64C910.919 213.856 911.37 214.167 911.739 214.571C912.114 214.976 912.398 215.465 912.592 216.039C912.791 216.613 912.891 217.258 912.891 217.973V219.177H905.121V217.322H909.999V217.094C910.005 216.777 909.949 216.508 909.832 216.285C909.721 216.062 909.557 215.893 909.34 215.775C909.123 215.658 908.859 215.6 908.549 215.6C908.227 215.6 907.96 215.67 907.749 215.811C907.544 215.951 907.383 216.145 907.266 216.391C907.154 216.631 907.075 216.909 907.028 217.226C906.981 217.542 906.958 217.876 906.958 218.228V218.562C906.958 218.913 907.005 219.232 907.099 219.52C907.198 219.807 907.339 220.053 907.521 220.258C907.708 220.457 907.931 220.612 908.188 220.724C908.452 220.835 908.751 220.891 909.085 220.891C909.489 220.891 909.888 220.814 910.28 220.662C910.673 220.51 911.01 220.258 911.291 219.906L912.636 221.506C912.442 221.781 912.167 222.048 911.81 222.306C911.458 222.563 911.036 222.774 910.544 222.938C910.052 223.097 909.501 223.176 908.892 223.176ZM919.104 213.49V215.547H913.374V213.49H919.104ZM914.578 211.126H917.54V219.897C917.54 220.149 917.569 220.346 917.628 220.486C917.687 220.621 917.786 220.718 917.927 220.776C918.073 220.829 918.267 220.855 918.507 220.855C918.677 220.855 918.817 220.853 918.929 220.847C919.04 220.835 919.146 220.82 919.245 220.803V222.921C918.993 223.003 918.729 223.064 918.454 223.105C918.179 223.152 917.886 223.176 917.575 223.176C916.942 223.176 916.4 223.076 915.949 222.877C915.504 222.678 915.164 222.364 914.93 221.937C914.695 221.509 914.578 220.952 914.578 220.267V211.126ZM920.476 221.611C920.476 221.189 920.628 220.838 920.933 220.557C921.237 220.27 921.63 220.126 922.11 220.126C922.597 220.126 922.989 220.27 923.288 220.557C923.593 220.838 923.745 221.189 923.745 221.611C923.745 222.033 923.593 222.388 923.288 222.675C922.989 222.956 922.597 223.097 922.11 223.097C921.63 223.097 921.237 222.956 920.933 222.675C920.628 222.388 920.476 222.033 920.476 221.611ZM928.86 213.49V223H925.89V213.49H928.86ZM925.714 211.038C925.714 210.616 925.866 210.271 926.171 210.001C926.476 209.731 926.871 209.597 927.357 209.597C927.844 209.597 928.239 209.731 928.544 210.001C928.849 210.271 929.001 210.616 929.001 211.038C929.001 211.46 928.849 211.806 928.544 212.075C928.239 212.345 927.844 212.479 927.357 212.479C926.871 212.479 926.476 212.345 926.171 212.075C925.866 211.806 925.714 211.46 925.714 211.038ZM930.319 218.342V218.157C930.319 217.46 930.419 216.818 930.618 216.232C930.817 215.641 931.11 215.128 931.497 214.694C931.884 214.261 932.361 213.924 932.93 213.684C933.498 213.438 934.154 213.314 934.898 213.314C935.648 213.314 936.308 213.438 936.876 213.684C937.45 213.924 937.931 214.261 938.317 214.694C938.704 215.128 938.997 215.641 939.196 216.232C939.396 216.818 939.495 217.46 939.495 218.157V218.342C939.495 219.033 939.396 219.675 939.196 220.267C938.997 220.853 938.704 221.365 938.317 221.805C937.931 222.238 937.453 222.575 936.885 222.815C936.316 223.056 935.66 223.176 934.916 223.176C934.172 223.176 933.513 223.056 932.938 222.815C932.364 222.575 931.884 222.238 931.497 221.805C931.11 221.365 930.817 220.853 930.618 220.267C930.419 219.675 930.319 219.033 930.319 218.342ZM933.281 218.157V218.342C933.281 218.699 933.308 219.033 933.36 219.344C933.413 219.654 933.501 219.927 933.624 220.161C933.747 220.39 933.914 220.568 934.125 220.697C934.336 220.826 934.6 220.891 934.916 220.891C935.227 220.891 935.484 220.826 935.689 220.697C935.9 220.568 936.067 220.39 936.19 220.161C936.313 219.927 936.401 219.654 936.454 219.344C936.507 219.033 936.533 218.699 936.533 218.342V218.157C936.533 217.812 936.507 217.486 936.454 217.182C936.401 216.871 936.313 216.599 936.19 216.364C936.067 216.124 935.9 215.937 935.689 215.802C935.479 215.667 935.215 215.6 934.898 215.6C934.588 215.6 934.327 215.667 934.116 215.802C933.911 215.937 933.747 216.124 933.624 216.364C933.501 216.599 933.413 216.871 933.36 217.182C933.308 217.486 933.281 217.812 933.281 218.157Z" fill="white"/>
<rect x="841" y="196" width="121" height="41" rx="3" stroke="#424242" stroke-width="4"/>
<path d="M1066 0H1348C1356.28 0 1363 6.71573 1363 15V282C1363 290.284 1356.28 297 1348 297H1066V0Z" fill="white"/>
<rect x="1079.5" y="63.5" width="270" height="170" rx="10" fill="black"/>
<path d="M1135.6 189.1C1127.8 189.1 1123.3 186 1119.9 179.2L1110.3 159.8C1108.5 156.2 1107.5 152.9 1107.5 148.8C1107.5 144.2 1108.3 141.4 1110.4 137.2L1120 117.9C1123.6 110.7 1128 107.9 1136.1 107.9H1181.9C1184.2 107.9 1187.1 109.2 1187.1 113.1C1187.1 116.9 1184.3 118.3 1181.9 118.3H1136.5C1132 118.3 1131.3 118.7 1129.3 122.7L1120.2 140.9C1118.8 143.7 1118 145.6 1118 148.8C1118 151.7 1118.9 153.5 1120.2 156L1129.1 174.1C1131.2 178.4 1132.2 178.7 1136.9 178.7H1181.9C1184.2 178.7 1187.1 180 1187.1 183.9C1187.1 187.7 1184.3 189.1 1181.9 189.1H1135.6Z" fill="white"/>
<path d="M1170.5 153.412V160.906C1170.5 161.084 1170.5 161.441 1170.32 161.62L1166.22 169.649C1165.86 170.184 1165.33 170.541 1164.79 170.541H1163.54C1162.47 170.541 1161.58 169.471 1162.11 168.4L1164.43 162.869C1164.97 161.798 1164.08 160.727 1163.01 160.727C1162.11 160.727 1161.4 160.014 1161.4 159.122V153.59C1161.4 152.698 1162.11 151.984 1163.01 151.984H1168.89C1169.96 151.806 1170.5 152.52 1170.5 153.412ZM1163.18 129.859H1168.72C1169.61 129.859 1170.32 130.573 1170.32 131.465V136.996C1170.32 137.888 1169.61 138.602 1168.72 138.602H1163.18C1162.29 138.602 1161.58 137.888 1161.58 136.996V131.465C1161.58 130.573 1162.29 129.859 1163.18 129.859Z" fill="#28D8A1"/>
<path d="M1214.65 136.093H1220.79C1221.27 136.093 1221.67 136.262 1222.01 136.6C1222.36 136.924 1222.54 137.323 1222.54 137.796C1222.54 138.27 1222.36 138.675 1222.01 139.013C1221.67 139.338 1221.27 139.5 1220.79 139.5H1214.42C1213.61 139.5 1212.77 139.243 1211.91 138.729C1211.04 138.216 1210.44 137.641 1210.1 137.006L1206.17 129.4C1205.64 128.305 1205.38 127.183 1205.38 126.034C1205.38 124.763 1205.63 123.661 1206.13 122.728L1210.1 115.204C1210.48 114.501 1211.07 113.886 1211.87 113.359C1212.67 112.818 1213.44 112.547 1214.18 112.547H1220.91C1221.39 112.547 1221.79 112.716 1222.11 113.054C1222.45 113.392 1222.62 113.791 1222.62 114.251C1222.62 114.724 1222.45 115.136 1222.11 115.488C1221.79 115.826 1221.39 115.995 1220.91 115.995H1214.42C1213.88 115.995 1213.44 116.313 1213.11 116.948L1209.33 124.006C1209.04 124.56 1208.89 125.216 1208.89 125.973C1208.89 126.771 1209.05 127.474 1209.37 128.082L1212.98 135.018C1213.32 135.735 1213.88 136.093 1214.65 136.093ZM1240.75 126.581V137.796C1240.75 138.27 1240.58 138.675 1240.24 139.013C1239.9 139.338 1239.5 139.5 1239.04 139.5C1238.56 139.5 1238.15 139.338 1237.81 139.013C1237.47 138.675 1237.3 138.27 1237.3 137.796V126.581L1230.45 117.901V114.291C1230.45 113.805 1230.61 113.392 1230.93 113.054C1231.27 112.716 1231.68 112.547 1232.15 112.547C1232.62 112.547 1233.03 112.723 1233.37 113.075C1233.72 113.413 1233.89 113.818 1233.89 114.291V116.624L1239 123.215L1244.2 116.664V114.291C1244.2 113.818 1244.36 113.413 1244.7 113.075C1245.04 112.723 1245.44 112.547 1245.9 112.547C1246.35 112.547 1246.74 112.71 1247.08 113.034C1247.43 113.345 1247.6 113.764 1247.6 114.291V117.861L1240.75 126.581ZM1272.67 131.144V132.645C1272.67 134.525 1272 136.14 1270.66 137.492C1269.34 138.831 1267.73 139.5 1265.86 139.5H1255.43V112.547H1265.86C1267.73 112.547 1269.34 113.217 1270.66 114.555C1272 115.894 1272.67 117.509 1272.67 119.402V120.842C1272.67 122.857 1271.89 124.574 1270.34 125.993C1271.89 127.44 1272.67 129.157 1272.67 131.144ZM1269.18 120.801V119.402C1269.18 118.456 1268.84 117.644 1268.17 116.968C1267.5 116.292 1266.71 115.954 1265.77 115.954H1258.84V124.209H1265.77C1266.69 124.209 1267.49 123.877 1268.17 123.215C1268.84 122.539 1269.18 121.734 1269.18 120.801ZM1269.18 132.645V131.226C1269.18 130.279 1268.84 129.468 1268.17 128.792C1267.5 128.116 1266.71 127.778 1265.77 127.778H1258.88V136.052H1265.77C1266.69 136.052 1267.49 135.721 1268.17 135.059C1268.84 134.383 1269.18 133.578 1269.18 132.645ZM1296.07 115.995H1284.03V124.29H1289.22C1289.68 124.29 1290.08 124.459 1290.41 124.797C1290.75 125.135 1290.92 125.534 1290.92 125.993C1290.92 126.48 1290.75 126.892 1290.41 127.23C1290.09 127.568 1289.69 127.737 1289.22 127.737H1284.03V136.093H1296.11C1296.57 136.093 1296.97 136.262 1297.31 136.6C1297.65 136.924 1297.82 137.323 1297.82 137.796C1297.82 138.27 1297.64 138.675 1297.29 139.013C1296.95 139.338 1296.55 139.5 1296.07 139.5H1280.62V112.547H1296.07C1296.55 112.547 1296.95 112.723 1297.29 113.075C1297.64 113.413 1297.82 113.818 1297.82 114.291C1297.82 114.751 1297.64 115.15 1297.29 115.488C1296.95 115.826 1296.55 115.995 1296.07 115.995ZM1305.77 137.796V112.547H1317.81C1319.21 112.547 1320.4 113.054 1321.4 114.068C1322.42 115.082 1322.92 116.292 1322.92 117.699V119.645C1322.92 121.065 1322.42 122.282 1321.42 123.296C1320.42 124.296 1319.22 124.797 1317.81 124.797H1315.64L1322.62 136.762C1322.84 137.114 1322.94 137.465 1322.94 137.817C1322.94 138.276 1322.77 138.675 1322.42 139.013C1322.07 139.338 1321.67 139.5 1321.22 139.5C1320.54 139.5 1320.03 139.196 1319.68 138.587L1311.67 124.797H1309.21V137.796C1309.21 138.27 1309.04 138.675 1308.69 139.013C1308.35 139.338 1307.94 139.5 1307.47 139.5C1307 139.5 1306.59 139.338 1306.25 139.013C1305.93 138.675 1305.77 138.27 1305.77 137.796ZM1309.17 121.39H1317.81C1318.29 121.39 1318.69 121.227 1319.01 120.903C1319.35 120.565 1319.52 120.159 1319.52 119.686V117.699C1319.52 117.225 1319.35 116.826 1319.01 116.502C1318.69 116.164 1318.29 115.995 1317.81 115.995H1309.17V121.39ZM1214.65 183.093H1220.79C1221.27 183.093 1221.67 183.262 1222.01 183.6C1222.36 183.924 1222.54 184.323 1222.54 184.796C1222.54 185.27 1222.36 185.675 1222.01 186.013C1221.67 186.338 1221.27 186.5 1220.79 186.5H1214.42C1213.61 186.5 1212.77 186.243 1211.91 185.729C1211.04 185.216 1210.44 184.641 1210.1 184.006L1206.17 176.4C1205.64 175.305 1205.38 174.183 1205.38 173.034C1205.38 171.763 1205.63 170.661 1206.13 169.728L1210.1 162.204C1210.48 161.501 1211.07 160.886 1211.87 160.359C1212.67 159.818 1213.44 159.547 1214.18 159.547H1220.91C1221.39 159.547 1221.79 159.716 1222.11 160.054C1222.45 160.392 1222.62 160.791 1222.62 161.251C1222.62 161.724 1222.45 162.136 1222.11 162.488C1221.79 162.826 1221.39 162.995 1220.91 162.995H1214.42C1213.88 162.995 1213.44 163.313 1213.11 163.948L1209.33 171.006C1209.04 171.56 1208.89 172.216 1208.89 172.973C1208.89 173.771 1209.05 174.474 1209.37 175.082L1212.98 182.018C1213.32 182.735 1213.88 183.093 1214.65 183.093ZM1230.32 184.796V161.251C1230.32 160.791 1230.49 160.392 1230.81 160.054C1231.15 159.716 1231.55 159.547 1232.03 159.547C1232.49 159.547 1232.89 159.716 1233.22 160.054C1233.56 160.392 1233.73 160.791 1233.73 161.251V171.29H1244.11V161.251C1244.11 160.791 1244.28 160.392 1244.6 160.054C1244.94 159.716 1245.35 159.547 1245.82 159.547C1246.29 159.547 1246.69 159.716 1247.01 160.054C1247.35 160.392 1247.52 160.805 1247.52 161.291V184.796C1247.52 185.256 1247.35 185.655 1246.99 185.993C1246.66 186.331 1246.26 186.5 1245.82 186.5C1245.33 186.5 1244.93 186.338 1244.6 186.013C1244.28 185.675 1244.11 185.27 1244.11 184.796V174.697H1233.77V184.796C1233.77 185.256 1233.6 185.655 1233.24 185.993C1232.91 186.331 1232.5 186.5 1232.03 186.5C1231.57 186.5 1231.17 186.338 1230.83 186.013C1230.49 185.675 1230.32 185.27 1230.32 184.796ZM1255.61 184.127L1262.51 160.825C1262.78 159.973 1263.35 159.547 1264.21 159.547C1265.05 159.547 1265.58 159.906 1265.79 160.622L1272.59 184.289C1272.64 184.465 1272.67 184.634 1272.67 184.796C1272.67 185.27 1272.51 185.675 1272.18 186.013C1271.86 186.338 1271.49 186.5 1271.07 186.5C1270.18 186.5 1269.61 186.088 1269.36 185.263L1267.98 180.639H1260.22L1258.72 185.587C1258.68 185.804 1258.51 186.013 1258.21 186.216C1257.91 186.405 1257.59 186.5 1257.24 186.5C1256.74 186.5 1256.32 186.331 1256 185.993C1255.67 185.655 1255.51 185.243 1255.51 184.756C1255.51 184.553 1255.55 184.344 1255.61 184.127ZM1264.17 167.436L1261.25 177.191H1266.99L1264.17 167.436ZM1280.62 184.796V159.547H1292.71C1294.1 159.547 1295.3 160.054 1296.3 161.068C1297.31 162.082 1297.82 163.292 1297.82 164.699V171.087C1297.82 172.493 1297.32 173.696 1296.32 174.697C1295.32 175.697 1294.11 176.198 1292.71 176.198H1284.07V184.796C1284.07 185.27 1283.9 185.675 1283.56 186.013C1283.24 186.338 1282.84 186.5 1282.36 186.5C1281.88 186.5 1281.46 186.338 1281.13 186.013C1280.79 185.675 1280.62 185.27 1280.62 184.796ZM1284.07 172.79H1292.71C1293.17 172.79 1293.57 172.628 1293.9 172.304C1294.24 171.966 1294.41 171.56 1294.41 171.087V164.699C1294.41 164.225 1294.24 163.826 1293.9 163.502C1293.57 163.164 1293.17 162.995 1292.71 162.995H1284.07V172.79Z" fill="white"/>
</svg>
