<svg width="1363" height="163" viewBox="0 0 1363 163" fill="none" xmlns="http://www.w3.org/2000/svg">
<path d="M0 15C0 6.71573 6.71573 0 15 0H37V163H15C6.71573 163 0 156.284 0 148V15Z" fill="#424242"/>
<rect width="1097" height="163" transform="translate(37)" fill="#F0F0F0"/>
<path d="M101.906 53.9219L94.3945 51.2383V48.0859L104.602 52.375V54.6367L101.906 53.9219ZM94.3945 56.1719L101.918 53.4297L104.602 52.7852V55.0352L94.3945 59.3242V56.1719ZM122.789 55.3398H126.293C126.223 56.4883 125.906 57.5078 125.344 58.3984C124.789 59.2891 124.012 59.9844 123.012 60.4844C122.02 60.9844 120.824 61.2344 119.426 61.2344C118.332 61.2344 117.352 61.0469 116.484 60.6719C115.617 60.2891 114.875 59.7422 114.258 59.0312C113.648 58.3203 113.184 57.4609 112.863 56.4531C112.543 55.4453 112.383 54.3164 112.383 53.0664V51.8828C112.383 50.6328 112.547 49.5039 112.875 48.4961C113.211 47.4805 113.688 46.6172 114.305 45.9062C114.93 45.1953 115.676 44.6484 116.543 44.2656C117.41 43.8828 118.379 43.6914 119.449 43.6914C120.871 43.6914 122.07 43.9492 123.047 44.4648C124.031 44.9805 124.793 45.6914 125.332 46.5977C125.879 47.5039 126.207 48.5352 126.316 49.6914H122.801C122.762 49.0039 122.625 48.4219 122.391 47.9453C122.156 47.4609 121.801 47.0977 121.324 46.8555C120.855 46.6055 120.23 46.4805 119.449 46.4805C118.863 46.4805 118.352 46.5898 117.914 46.8086C117.477 47.0273 117.109 47.3594 116.812 47.8047C116.516 48.25 116.293 48.8125 116.145 49.4922C116.004 50.1641 115.934 50.9531 115.934 51.8594V53.0664C115.934 53.9492 116 54.7266 116.133 55.3984C116.266 56.0625 116.469 56.625 116.742 57.0859C117.023 57.5391 117.383 57.8828 117.82 58.1172C118.266 58.3438 118.801 58.457 119.426 58.457C120.16 58.457 120.766 58.3398 121.242 58.1055C121.719 57.8711 122.082 57.5234 122.332 57.0625C122.59 56.6016 122.742 56.0273 122.789 55.3398ZM132.152 59.5703L135.516 48.3203H139.137L134.039 62.9102C133.93 63.2305 133.781 63.5742 133.594 63.9414C133.414 64.3086 133.168 64.6562 132.855 64.9844C132.551 65.3203 132.164 65.5938 131.695 65.8047C131.234 66.0156 130.668 66.1211 129.996 66.1211C129.676 66.1211 129.414 66.1016 129.211 66.0625C129.008 66.0234 128.766 65.9688 128.484 65.8984V63.4258C128.57 63.4258 128.66 63.4258 128.754 63.4258C128.848 63.4336 128.938 63.4375 129.023 63.4375C129.469 63.4375 129.832 63.3867 130.113 63.2852C130.395 63.1836 130.621 63.0273 130.793 62.8164C130.965 62.6133 131.102 62.3477 131.203 62.0195L132.152 59.5703ZM130.746 48.3203L133.5 57.5078L133.98 61.082L131.684 61.3281L127.125 48.3203H130.746ZM140.484 43H143.859V58.0938L143.52 61H140.484V43ZM151.887 54.5312V54.7773C151.887 55.7227 151.785 56.5898 151.582 57.3789C151.387 58.168 151.082 58.8516 150.668 59.4297C150.254 60 149.738 60.4453 149.121 60.7656C148.512 61.0781 147.793 61.2344 146.965 61.2344C146.191 61.2344 145.52 61.0781 144.949 60.7656C144.387 60.4531 143.914 60.0117 143.531 59.4414C143.148 58.8711 142.84 58.2031 142.605 57.4375C142.371 56.6719 142.195 55.8359 142.078 54.9297V54.3906C142.195 53.4844 142.371 52.6484 142.605 51.8828C142.84 51.1172 143.148 50.4492 143.531 49.8789C143.914 49.3086 144.387 48.8672 144.949 48.5547C145.512 48.2422 146.176 48.0859 146.941 48.0859C147.777 48.0859 148.504 48.2461 149.121 48.5664C149.746 48.8789 150.262 49.3242 150.668 49.9023C151.082 50.4727 151.387 51.1523 151.582 51.9414C151.785 52.7227 151.887 53.5859 151.887 54.5312ZM148.512 54.7773V54.5312C148.512 54.0156 148.473 53.5312 148.395 53.0781C148.324 52.6172 148.199 52.2148 148.02 51.8711C147.84 51.5195 147.594 51.2422 147.281 51.0391C146.977 50.8359 146.582 50.7344 146.098 50.7344C145.637 50.7344 145.246 50.8125 144.926 50.9688C144.605 51.125 144.34 51.3438 144.129 51.625C143.926 51.9062 143.773 52.2422 143.672 52.6328C143.57 53.0156 143.508 53.4375 143.484 53.8984V55.4336C143.508 56.0508 143.609 56.5977 143.789 57.0742C143.977 57.543 144.258 57.9141 144.633 58.1875C145.016 58.4531 145.512 58.5859 146.121 58.5859C146.598 58.5859 146.992 58.4922 147.305 58.3047C147.617 58.1172 147.859 57.8516 148.031 57.5078C148.211 57.1641 148.336 56.7617 148.406 56.3008C148.477 55.832 148.512 55.3242 148.512 54.7773ZM159.82 61.2344C158.836 61.2344 157.953 61.0781 157.172 60.7656C156.391 60.4453 155.727 60.0039 155.18 59.4414C154.641 58.8789 154.227 58.2266 153.938 57.4844C153.648 56.7344 153.504 55.9375 153.504 55.0938V54.625C153.504 53.6641 153.641 52.7852 153.914 51.9883C154.188 51.1914 154.578 50.5 155.086 49.9141C155.602 49.3281 156.227 48.8789 156.961 48.5664C157.695 48.2461 158.523 48.0859 159.445 48.0859C160.344 48.0859 161.141 48.2344 161.836 48.5312C162.531 48.8281 163.113 49.25 163.582 49.7969C164.059 50.3438 164.418 51 164.66 51.7656C164.902 52.5234 165.023 53.3672 165.023 54.2969V55.7031H154.945V53.4531H161.707V53.1953C161.707 52.7266 161.621 52.3086 161.449 51.9414C161.285 51.5664 161.035 51.2695 160.699 51.0508C160.363 50.832 159.934 50.7227 159.41 50.7227C158.965 50.7227 158.582 50.8203 158.262 51.0156C157.941 51.2109 157.68 51.4844 157.477 51.8359C157.281 52.1875 157.133 52.6016 157.031 53.0781C156.938 53.5469 156.891 54.0625 156.891 54.625V55.0938C156.891 55.6016 156.961 56.0703 157.102 56.5C157.25 56.9297 157.457 57.3008 157.723 57.6133C157.996 57.9258 158.324 58.168 158.707 58.3398C159.098 58.5117 159.539 58.5977 160.031 58.5977C160.641 58.5977 161.207 58.4805 161.73 58.2461C162.262 58.0039 162.719 57.6406 163.102 57.1562L164.742 58.9375C164.477 59.3203 164.113 59.6875 163.652 60.0391C163.199 60.3906 162.652 60.6797 162.012 60.9062C161.371 61.125 160.641 61.2344 159.82 61.2344ZM170.32 51.0859V61H166.945V48.3203H170.121L170.32 51.0859ZM174.141 48.2383L174.082 51.3672C173.918 51.3438 173.719 51.3242 173.484 51.3086C173.258 51.2852 173.051 51.2734 172.863 51.2734C172.387 51.2734 171.973 51.3359 171.621 51.4609C171.277 51.5781 170.988 51.7539 170.754 51.9883C170.527 52.2227 170.355 52.5078 170.238 52.8438C170.129 53.1797 170.066 53.5625 170.051 53.9922L169.371 53.7812C169.371 52.9609 169.453 52.207 169.617 51.5195C169.781 50.8242 170.02 50.2188 170.332 49.7031C170.652 49.1875 171.043 48.7891 171.504 48.5078C171.965 48.2266 172.492 48.0859 173.086 48.0859C173.273 48.0859 173.465 48.1016 173.66 48.1328C173.855 48.1562 174.016 48.1914 174.141 48.2383ZM191.812 55.3398H195.316C195.246 56.4883 194.93 57.5078 194.367 58.3984C193.812 59.2891 193.035 59.9844 192.035 60.4844C191.043 60.9844 189.848 61.2344 188.449 61.2344C187.355 61.2344 186.375 61.0469 185.508 60.6719C184.641 60.2891 183.898 59.7422 183.281 59.0312C182.672 58.3203 182.207 57.4609 181.887 56.4531C181.566 55.4453 181.406 54.3164 181.406 53.0664V51.8828C181.406 50.6328 181.57 49.5039 181.898 48.4961C182.234 47.4805 182.711 46.6172 183.328 45.9062C183.953 45.1953 184.699 44.6484 185.566 44.2656C186.434 43.8828 187.402 43.6914 188.473 43.6914C189.895 43.6914 191.094 43.9492 192.07 44.4648C193.055 44.9805 193.816 45.6914 194.355 46.5977C194.902 47.5039 195.23 48.5352 195.34 49.6914H191.824C191.785 49.0039 191.648 48.4219 191.414 47.9453C191.18 47.4609 190.824 47.0977 190.348 46.8555C189.879 46.6055 189.254 46.4805 188.473 46.4805C187.887 46.4805 187.375 46.5898 186.938 46.8086C186.5 47.0273 186.133 47.3594 185.836 47.8047C185.539 48.25 185.316 48.8125 185.168 49.4922C185.027 50.1641 184.957 50.9531 184.957 51.8594V53.0664C184.957 53.9492 185.023 54.7266 185.156 55.3984C185.289 56.0625 185.492 56.625 185.766 57.0859C186.047 57.5391 186.406 57.8828 186.844 58.1172C187.289 58.3438 187.824 58.457 188.449 58.457C189.184 58.457 189.789 58.3398 190.266 58.1055C190.742 57.8711 191.105 57.5234 191.355 57.0625C191.613 56.6016 191.766 56.0273 191.812 55.3398ZM200.707 43V61H197.332V43H200.707ZM200.227 54.2148H199.301C199.309 53.332 199.426 52.5195 199.652 51.7773C199.879 51.0273 200.203 50.3789 200.625 49.832C201.047 49.2773 201.551 48.8477 202.137 48.543C202.73 48.2383 203.387 48.0859 204.105 48.0859C204.73 48.0859 205.297 48.1758 205.805 48.3555C206.32 48.5273 206.762 48.8086 207.129 49.1992C207.504 49.582 207.793 50.0859 207.996 50.7109C208.199 51.3359 208.301 52.0938 208.301 52.9844V61H204.902V52.9609C204.902 52.3984 204.82 51.957 204.656 51.6367C204.5 51.3086 204.27 51.0781 203.965 50.9453C203.668 50.8047 203.301 50.7344 202.863 50.7344C202.379 50.7344 201.965 50.8242 201.621 51.0039C201.285 51.1836 201.016 51.4336 200.812 51.7539C200.609 52.0664 200.461 52.4336 200.367 52.8555C200.273 53.2773 200.227 53.7305 200.227 54.2148ZM217.711 58.1406V52.4922C217.711 52.0859 217.645 51.7383 217.512 51.4492C217.379 51.1523 217.172 50.9219 216.891 50.7578C216.617 50.5938 216.262 50.5117 215.824 50.5117C215.449 50.5117 215.125 50.5781 214.852 50.7109C214.578 50.8359 214.367 51.0195 214.219 51.2617C214.07 51.4961 213.996 51.7734 213.996 52.0938H210.621C210.621 51.5547 210.746 51.043 210.996 50.5586C211.246 50.0742 211.609 49.6484 212.086 49.2812C212.562 48.9062 213.129 48.6133 213.785 48.4023C214.449 48.1914 215.191 48.0859 216.012 48.0859C216.996 48.0859 217.871 48.25 218.637 48.5781C219.402 48.9062 220.004 49.3984 220.441 50.0547C220.887 50.7109 221.109 51.5312 221.109 52.5156V57.9414C221.109 58.6367 221.152 59.207 221.238 59.6523C221.324 60.0898 221.449 60.4727 221.613 60.8008V61H218.203C218.039 60.6562 217.914 60.2266 217.828 59.7109C217.75 59.1875 217.711 58.6641 217.711 58.1406ZM218.156 53.2773L218.18 55.1875H216.293C215.848 55.1875 215.461 55.2383 215.133 55.3398C214.805 55.4414 214.535 55.5859 214.324 55.7734C214.113 55.9531 213.957 56.1641 213.855 56.4062C213.762 56.6484 213.715 56.9141 213.715 57.2031C213.715 57.4922 213.781 57.7539 213.914 57.9883C214.047 58.2148 214.238 58.3945 214.488 58.5273C214.738 58.6523 215.031 58.7148 215.367 58.7148C215.875 58.7148 216.316 58.6133 216.691 58.4102C217.066 58.207 217.355 57.957 217.559 57.6602C217.77 57.3633 217.879 57.082 217.887 56.8164L218.777 58.2461C218.652 58.5664 218.48 58.8984 218.262 59.2422C218.051 59.5859 217.781 59.9102 217.453 60.2148C217.125 60.5117 216.73 60.7578 216.27 60.9531C215.809 61.1406 215.262 61.2344 214.629 61.2344C213.824 61.2344 213.094 61.0742 212.438 60.7539C211.789 60.4258 211.273 59.9766 210.891 59.4062C210.516 58.8281 210.328 58.1719 210.328 57.4375C210.328 56.7734 210.453 56.1836 210.703 55.668C210.953 55.1523 211.32 54.7188 211.805 54.3672C212.297 54.0078 212.91 53.7383 213.645 53.5586C214.379 53.3711 215.23 53.2773 216.199 53.2773H218.156ZM227.086 50.7578V65.875H223.711V48.3203H226.84L227.086 50.7578ZM235.113 54.5195V54.7656C235.113 55.6875 235.004 56.543 234.785 57.332C234.574 58.1211 234.262 58.8086 233.848 59.3945C233.434 59.9727 232.918 60.4258 232.301 60.7539C231.691 61.0742 230.988 61.2344 230.191 61.2344C229.418 61.2344 228.746 61.0781 228.176 60.7656C227.605 60.4531 227.125 60.0156 226.734 59.4531C226.352 58.8828 226.043 58.2227 225.809 57.4727C225.574 56.7227 225.395 55.918 225.27 55.0586V54.4141C225.395 53.4922 225.574 52.6484 225.809 51.8828C226.043 51.1094 226.352 50.4414 226.734 49.8789C227.125 49.3086 227.602 48.8672 228.164 48.5547C228.734 48.2422 229.402 48.0859 230.168 48.0859C230.973 48.0859 231.68 48.2383 232.289 48.543C232.906 48.8477 233.422 49.2852 233.836 49.8555C234.258 50.4258 234.574 51.1055 234.785 51.8945C235.004 52.6836 235.113 53.5586 235.113 54.5195ZM231.727 54.7656V54.5195C231.727 53.9805 231.68 53.4844 231.586 53.0312C231.5 52.5703 231.359 52.168 231.164 51.8242C230.977 51.4805 230.727 51.2148 230.414 51.0273C230.109 50.832 229.738 50.7344 229.301 50.7344C228.84 50.7344 228.445 50.8086 228.117 50.957C227.797 51.1055 227.535 51.3203 227.332 51.6016C227.129 51.8828 226.977 52.2188 226.875 52.6094C226.773 53 226.711 53.4414 226.688 53.9336V55.5625C226.727 56.1406 226.836 56.6602 227.016 57.1211C227.195 57.5742 227.473 57.9336 227.848 58.1992C228.223 58.4648 228.715 58.5977 229.324 58.5977C229.77 58.5977 230.145 58.5 230.449 58.3047C230.754 58.1016 231 57.8242 231.188 57.4727C231.383 57.1211 231.52 56.7148 231.598 56.2539C231.684 55.793 231.727 55.2969 231.727 54.7656ZM243.047 61.2344C242.062 61.2344 241.18 61.0781 240.398 60.7656C239.617 60.4453 238.953 60.0039 238.406 59.4414C237.867 58.8789 237.453 58.2266 237.164 57.4844C236.875 56.7344 236.73 55.9375 236.73 55.0938V54.625C236.73 53.6641 236.867 52.7852 237.141 51.9883C237.414 51.1914 237.805 50.5 238.312 49.9141C238.828 49.3281 239.453 48.8789 240.188 48.5664C240.922 48.2461 241.75 48.0859 242.672 48.0859C243.57 48.0859 244.367 48.2344 245.062 48.5312C245.758 48.8281 246.34 49.25 246.809 49.7969C247.285 50.3438 247.645 51 247.887 51.7656C248.129 52.5234 248.25 53.3672 248.25 54.2969V55.7031H238.172V53.4531H244.934V53.1953C244.934 52.7266 244.848 52.3086 244.676 51.9414C244.512 51.5664 244.262 51.2695 243.926 51.0508C243.59 50.832 243.16 50.7227 242.637 50.7227C242.191 50.7227 241.809 50.8203 241.488 51.0156C241.168 51.2109 240.906 51.4844 240.703 51.8359C240.508 52.1875 240.359 52.6016 240.258 53.0781C240.164 53.5469 240.117 54.0625 240.117 54.625V55.0938C240.117 55.6016 240.188 56.0703 240.328 56.5C240.477 56.9297 240.684 57.3008 240.949 57.6133C241.223 57.9258 241.551 58.168 241.934 58.3398C242.324 58.5117 242.766 58.5977 243.258 58.5977C243.867 58.5977 244.434 58.4805 244.957 58.2461C245.488 58.0039 245.945 57.6406 246.328 57.1562L247.969 58.9375C247.703 59.3203 247.34 59.6875 246.879 60.0391C246.426 60.3906 245.879 60.6797 245.238 60.9062C244.598 61.125 243.867 61.2344 243.047 61.2344ZM253.547 51.0859V61H250.172V48.3203H253.348L253.547 51.0859ZM257.367 48.2383L257.309 51.3672C257.145 51.3438 256.945 51.3242 256.711 51.3086C256.484 51.2852 256.277 51.2734 256.09 51.2734C255.613 51.2734 255.199 51.3359 254.848 51.4609C254.504 51.5781 254.215 51.7539 253.98 51.9883C253.754 52.2227 253.582 52.5078 253.465 52.8438C253.355 53.1797 253.293 53.5625 253.277 53.9922L252.598 53.7812C252.598 52.9609 252.68 52.207 252.844 51.5195C253.008 50.8242 253.246 50.2188 253.559 49.7031C253.879 49.1875 254.27 48.7891 254.73 48.5078C255.191 48.2266 255.719 48.0859 256.312 48.0859C256.5 48.0859 256.691 48.1016 256.887 48.1328C257.082 48.1562 257.242 48.1914 257.367 48.2383ZM258.07 54.7891V54.543C258.07 53.6133 258.203 52.7578 258.469 51.9766C258.734 51.1875 259.121 50.5039 259.629 49.9258C260.137 49.3477 260.762 48.8984 261.504 48.5781C262.246 48.25 263.098 48.0859 264.059 48.0859C265.02 48.0859 265.875 48.25 266.625 48.5781C267.375 48.8984 268.004 49.3477 268.512 49.9258C269.027 50.5039 269.418 51.1875 269.684 51.9766C269.949 52.7578 270.082 53.6133 270.082 54.543V54.7891C270.082 55.7109 269.949 56.5664 269.684 57.3555C269.418 58.1367 269.027 58.8203 268.512 59.4062C268.004 59.9844 267.379 60.4336 266.637 60.7539C265.895 61.0742 265.043 61.2344 264.082 61.2344C263.121 61.2344 262.266 61.0742 261.516 60.7539C260.773 60.4336 260.145 59.9844 259.629 59.4062C259.121 58.8203 258.734 58.1367 258.469 57.3555C258.203 56.5664 258.07 55.7109 258.07 54.7891ZM261.445 54.543V54.7891C261.445 55.3203 261.492 55.8164 261.586 56.2773C261.68 56.7383 261.828 57.1445 262.031 57.4961C262.242 57.8398 262.516 58.1094 262.852 58.3047C263.188 58.5 263.598 58.5977 264.082 58.5977C264.551 58.5977 264.953 58.5 265.289 58.3047C265.625 58.1094 265.895 57.8398 266.098 57.4961C266.301 57.1445 266.449 56.7383 266.543 56.2773C266.645 55.8164 266.695 55.3203 266.695 54.7891V54.543C266.695 54.0273 266.645 53.543 266.543 53.0898C266.449 52.6289 266.297 52.2227 266.086 51.8711C265.883 51.5117 265.613 51.2305 265.277 51.0273C264.941 50.8242 264.535 50.7227 264.059 50.7227C263.582 50.7227 263.176 50.8242 262.84 51.0273C262.512 51.2305 262.242 51.5117 262.031 51.8711C261.828 52.2227 261.68 52.6289 261.586 53.0898C261.492 53.543 261.445 54.0273 261.445 54.543ZM275.461 51.0273V61H272.086V48.3203H275.25L275.461 51.0273ZM274.969 54.2148H274.055C274.055 53.2773 274.176 52.4336 274.418 51.6836C274.66 50.9258 275 50.2812 275.438 49.75C275.875 49.2109 276.395 48.8008 276.996 48.5195C277.605 48.2305 278.285 48.0859 279.035 48.0859C279.629 48.0859 280.172 48.1719 280.664 48.3438C281.156 48.5156 281.578 48.7891 281.93 49.1641C282.289 49.5391 282.562 50.0352 282.75 50.6523C282.945 51.2695 283.043 52.0234 283.043 52.9141V61H279.645V52.9023C279.645 52.3398 279.566 51.9023 279.41 51.5898C279.254 51.2773 279.023 51.0586 278.719 50.9336C278.422 50.8008 278.055 50.7344 277.617 50.7344C277.164 50.7344 276.77 50.8242 276.434 51.0039C276.105 51.1836 275.832 51.4336 275.613 51.7539C275.402 52.0664 275.242 52.4336 275.133 52.8555C275.023 53.2773 274.969 53.7305 274.969 54.2148ZM291.445 61.2344C290.461 61.2344 289.578 61.0781 288.797 60.7656C288.016 60.4453 287.352 60.0039 286.805 59.4414C286.266 58.8789 285.852 58.2266 285.562 57.4844C285.273 56.7344 285.129 55.9375 285.129 55.0938V54.625C285.129 53.6641 285.266 52.7852 285.539 51.9883C285.812 51.1914 286.203 50.5 286.711 49.9141C287.227 49.3281 287.852 48.8789 288.586 48.5664C289.32 48.2461 290.148 48.0859 291.07 48.0859C291.969 48.0859 292.766 48.2344 293.461 48.5312C294.156 48.8281 294.738 49.25 295.207 49.7969C295.684 50.3438 296.043 51 296.285 51.7656C296.527 52.5234 296.648 53.3672 296.648 54.2969V55.7031H286.57V53.4531H293.332V53.1953C293.332 52.7266 293.246 52.3086 293.074 51.9414C292.91 51.5664 292.66 51.2695 292.324 51.0508C291.988 50.832 291.559 50.7227 291.035 50.7227C290.59 50.7227 290.207 50.8203 289.887 51.0156C289.566 51.2109 289.305 51.4844 289.102 51.8359C288.906 52.1875 288.758 52.6016 288.656 53.0781C288.562 53.5469 288.516 54.0625 288.516 54.625V55.0938C288.516 55.6016 288.586 56.0703 288.727 56.5C288.875 56.9297 289.082 57.3008 289.348 57.6133C289.621 57.9258 289.949 58.168 290.332 58.3398C290.723 58.5117 291.164 58.5977 291.656 58.5977C292.266 58.5977 292.832 58.4805 293.355 58.2461C293.887 58.0039 294.344 57.6406 294.727 57.1562L296.367 58.9375C296.102 59.3203 295.738 59.6875 295.277 60.0391C294.824 60.3906 294.277 60.6797 293.637 60.9062C292.996 61.125 292.266 61.2344 291.445 61.2344Z" fill="#888888"/>
<path d="M109.219 107.422H100.734V101.07H109.219C110.375 101.07 111.312 100.875 112.031 100.484C112.75 100.094 113.273 99.5547 113.602 98.8672C113.945 98.1641 114.117 97.375 114.117 96.5C114.117 95.5625 113.945 94.6953 113.602 93.8984C113.273 93.1016 112.75 92.4609 112.031 91.9766C111.312 91.4766 110.375 91.2266 109.219 91.2266H103.828V119H95.6016V84.875H109.219C111.953 84.875 114.305 85.375 116.273 86.375C118.258 87.375 119.781 88.75 120.844 90.5C121.906 92.2344 122.438 94.2188 122.438 96.4531C122.438 98.6562 121.906 100.578 120.844 102.219C119.781 103.859 118.258 105.141 116.273 106.062C114.305 106.969 111.953 107.422 109.219 107.422ZM134.461 99.9219V119H126.562V93.6406H133.945L134.461 99.9219ZM141.961 93.4531L141.82 100.789C141.508 100.758 141.086 100.719 140.555 100.672C140.023 100.625 139.578 100.602 139.219 100.602C138.297 100.602 137.5 100.711 136.828 100.93C136.172 101.133 135.625 101.445 135.188 101.867C134.766 102.273 134.453 102.789 134.25 103.414C134.062 104.039 133.977 104.766 133.992 105.594L132.562 104.656C132.562 102.953 132.727 101.406 133.055 100.016C133.398 98.6094 133.883 97.3984 134.508 96.3828C135.133 95.3516 135.891 94.5625 136.781 94.0156C137.672 93.4531 138.672 93.1719 139.781 93.1719C140.172 93.1719 140.555 93.1953 140.93 93.2422C141.32 93.2891 141.664 93.3594 141.961 93.4531ZM142.852 106.578V106.086C142.852 104.227 143.117 102.516 143.648 100.953C144.18 99.375 144.961 98.0078 145.992 96.8516C147.023 95.6953 148.297 94.7969 149.812 94.1562C151.328 93.5 153.078 93.1719 155.062 93.1719C157.062 93.1719 158.82 93.5 160.336 94.1562C161.867 94.7969 163.148 95.6953 164.18 96.8516C165.211 98.0078 165.992 99.375 166.523 100.953C167.055 102.516 167.32 104.227 167.32 106.086V106.578C167.32 108.422 167.055 110.133 166.523 111.711C165.992 113.273 165.211 114.641 164.18 115.812C163.148 116.969 161.875 117.867 160.359 118.508C158.844 119.148 157.094 119.469 155.109 119.469C153.125 119.469 151.367 119.148 149.836 118.508C148.305 117.867 147.023 116.969 145.992 115.812C144.961 114.641 144.18 113.273 143.648 111.711C143.117 110.133 142.852 108.422 142.852 106.578ZM150.75 106.086V106.578C150.75 107.531 150.82 108.422 150.961 109.25C151.102 110.078 151.336 110.805 151.664 111.43C151.992 112.039 152.438 112.516 153 112.859C153.562 113.203 154.266 113.375 155.109 113.375C155.938 113.375 156.625 113.203 157.172 112.859C157.734 112.516 158.18 112.039 158.508 111.43C158.836 110.805 159.07 110.078 159.211 109.25C159.352 108.422 159.422 107.531 159.422 106.578V106.086C159.422 105.164 159.352 104.297 159.211 103.484C159.07 102.656 158.836 101.93 158.508 101.305C158.18 100.664 157.734 100.164 157.172 99.8047C156.609 99.4453 155.906 99.2656 155.062 99.2656C154.234 99.2656 153.539 99.4453 152.977 99.8047C152.43 100.164 151.992 100.664 151.664 101.305C151.336 101.93 151.102 102.656 150.961 103.484C150.82 104.297 150.75 105.164 150.75 106.086ZM184.195 93.6406V99.125H168.914V93.6406H184.195ZM172.125 87.3359H180.023V110.727C180.023 111.398 180.102 111.922 180.258 112.297C180.414 112.656 180.68 112.914 181.055 113.07C181.445 113.211 181.961 113.281 182.602 113.281C183.055 113.281 183.43 113.273 183.727 113.258C184.023 113.227 184.305 113.188 184.57 113.141V118.789C183.898 119.008 183.195 119.172 182.461 119.281C181.727 119.406 180.945 119.469 180.117 119.469C178.43 119.469 176.984 119.203 175.781 118.672C174.594 118.141 173.688 117.305 173.062 116.164C172.438 115.023 172.125 113.539 172.125 111.711V87.3359ZM185.648 106.578V106.086C185.648 104.227 185.914 102.516 186.445 100.953C186.977 99.375 187.758 98.0078 188.789 96.8516C189.82 95.6953 191.094 94.7969 192.609 94.1562C194.125 93.5 195.875 93.1719 197.859 93.1719C199.859 93.1719 201.617 93.5 203.133 94.1562C204.664 94.7969 205.945 95.6953 206.977 96.8516C208.008 98.0078 208.789 99.375 209.32 100.953C209.852 102.516 210.117 104.227 210.117 106.086V106.578C210.117 108.422 209.852 110.133 209.32 111.711C208.789 113.273 208.008 114.641 206.977 115.812C205.945 116.969 204.672 117.867 203.156 118.508C201.641 119.148 199.891 119.469 197.906 119.469C195.922 119.469 194.164 119.148 192.633 118.508C191.102 117.867 189.82 116.969 188.789 115.812C187.758 114.641 186.977 113.273 186.445 111.711C185.914 110.133 185.648 108.422 185.648 106.578ZM193.547 106.086V106.578C193.547 107.531 193.617 108.422 193.758 109.25C193.898 110.078 194.133 110.805 194.461 111.43C194.789 112.039 195.234 112.516 195.797 112.859C196.359 113.203 197.062 113.375 197.906 113.375C198.734 113.375 199.422 113.203 199.969 112.859C200.531 112.516 200.977 112.039 201.305 111.43C201.633 110.805 201.867 110.078 202.008 109.25C202.148 108.422 202.219 107.531 202.219 106.578V106.086C202.219 105.164 202.148 104.297 202.008 103.484C201.867 102.656 201.633 101.93 201.305 101.305C200.977 100.664 200.531 100.164 199.969 99.8047C199.406 99.4453 198.703 99.2656 197.859 99.2656C197.031 99.2656 196.336 99.4453 195.773 99.8047C195.227 100.164 194.789 100.664 194.461 101.305C194.133 101.93 193.898 102.656 193.758 103.484C193.617 104.297 193.547 105.164 193.547 106.086ZM226.992 93.6406V99.125H211.711V93.6406H226.992ZM214.922 87.3359H222.82V110.727C222.82 111.398 222.898 111.922 223.055 112.297C223.211 112.656 223.477 112.914 223.852 113.07C224.242 113.211 224.758 113.281 225.398 113.281C225.852 113.281 226.227 113.273 226.523 113.258C226.82 113.227 227.102 113.188 227.367 113.141V118.789C226.695 119.008 225.992 119.172 225.258 119.281C224.523 119.406 223.742 119.469 222.914 119.469C221.227 119.469 219.781 119.203 218.578 118.672C217.391 118.141 216.484 117.305 215.859 116.164C215.234 115.023 214.922 113.539 214.922 111.711V87.3359ZM237.914 116.023L244.477 93.6406H252.961L242.766 122.773C242.547 123.414 242.258 124.102 241.898 124.836C241.539 125.586 241.047 126.297 240.422 126.969C239.797 127.641 238.992 128.188 238.008 128.609C237.039 129.031 235.836 129.242 234.398 129.242C233.633 129.242 233.07 129.203 232.711 129.125C232.367 129.062 231.836 128.945 231.117 128.773V123.125C231.32 123.125 231.492 123.125 231.633 123.125C231.789 123.125 231.961 123.125 232.148 123.125C232.992 123.125 233.664 123.039 234.164 122.867C234.68 122.695 235.07 122.445 235.336 122.117C235.617 121.789 235.836 121.391 235.992 120.922L237.914 116.023ZM236.25 93.6406L241.242 111.383L242.109 119.75H236.812L227.789 93.6406H236.25ZM262.992 98.5156V128.75H255.094V93.6406H262.453L262.992 98.5156ZM278.555 106.016V106.508C278.555 108.352 278.344 110.062 277.922 111.641C277.5 113.219 276.875 114.594 276.047 115.766C275.219 116.938 274.188 117.852 272.953 118.508C271.734 119.148 270.32 119.469 268.711 119.469C267.195 119.469 265.891 119.133 264.797 118.461C263.703 117.789 262.789 116.859 262.055 115.672C261.32 114.484 260.727 113.125 260.273 111.594C259.82 110.062 259.461 108.445 259.195 106.742V106.109C259.461 104.281 259.82 102.586 260.273 101.023C260.727 99.4453 261.32 98.0703 262.055 96.8984C262.789 95.7266 263.695 94.8125 264.773 94.1562C265.867 93.5 267.172 93.1719 268.688 93.1719C270.297 93.1719 271.711 93.4766 272.93 94.0859C274.164 94.6953 275.195 95.5703 276.023 96.7109C276.867 97.8359 277.5 99.1875 277.922 100.766C278.344 102.344 278.555 104.094 278.555 106.016ZM270.656 106.508V106.016C270.656 105.031 270.586 104.133 270.445 103.32C270.305 102.492 270.078 101.773 269.766 101.164C269.469 100.555 269.07 100.086 268.57 99.7578C268.07 99.4297 267.453 99.2656 266.719 99.2656C265.875 99.2656 265.164 99.3984 264.586 99.6641C264.023 99.9141 263.57 100.305 263.227 100.836C262.898 101.352 262.664 102 262.523 102.781C262.398 103.547 262.344 104.445 262.359 105.477V107.398C262.328 108.586 262.445 109.633 262.711 110.539C262.977 111.43 263.438 112.125 264.094 112.625C264.75 113.125 265.641 113.375 266.766 113.375C267.516 113.375 268.141 113.203 268.641 112.859C269.141 112.5 269.539 112.008 269.836 111.383C270.133 110.742 270.344 110.008 270.469 109.18C270.594 108.352 270.656 107.461 270.656 106.508ZM290.414 93.6406V119H282.492V93.6406H290.414ZM282.023 87.1016C282.023 85.9766 282.43 85.0547 283.242 84.3359C284.055 83.6172 285.109 83.2578 286.406 83.2578C287.703 83.2578 288.758 83.6172 289.57 84.3359C290.383 85.0547 290.789 85.9766 290.789 87.1016C290.789 88.2266 290.383 89.1484 289.57 89.8672C288.758 90.5859 287.703 90.9453 286.406 90.9453C285.109 90.9453 284.055 90.5859 283.242 89.8672C282.43 89.1484 282.023 88.2266 282.023 87.1016ZM303.047 99.0547V119H295.148V93.6406H302.555L303.047 99.0547ZM302.109 105.453L300.258 105.5C300.258 103.562 300.492 101.836 300.961 100.32C301.43 98.7891 302.094 97.4922 302.953 96.4297C303.812 95.3672 304.836 94.5625 306.023 94.0156C307.227 93.4531 308.562 93.1719 310.031 93.1719C311.203 93.1719 312.273 93.3438 313.242 93.6875C314.227 94.0312 315.07 94.5859 315.773 95.3516C316.492 96.1172 317.039 97.1328 317.414 98.3984C317.805 99.6484 318 101.195 318 103.039V119H310.055V103.016C310.055 102 309.914 101.227 309.633 100.695C309.352 100.148 308.945 99.7734 308.414 99.5703C307.883 99.3672 307.234 99.2656 306.469 99.2656C305.656 99.2656 304.969 99.4219 304.406 99.7344C303.844 100.047 303.391 100.484 303.047 101.047C302.719 101.594 302.477 102.242 302.32 102.992C302.18 103.742 302.109 104.562 302.109 105.453ZM338.32 93.6406H345.492V118.016C345.492 120.359 344.953 122.344 343.875 123.969C342.797 125.609 341.289 126.852 339.352 127.695C337.43 128.555 335.18 128.984 332.602 128.984C331.461 128.984 330.297 128.836 329.109 128.539C327.922 128.258 326.812 127.836 325.781 127.273C324.75 126.711 323.883 126.016 323.18 125.188L326.484 120.547C327.125 121.266 327.93 121.875 328.898 122.375C329.867 122.891 331.008 123.148 332.32 123.148C333.461 123.148 334.414 122.945 335.18 122.539C335.961 122.133 336.555 121.539 336.961 120.758C337.367 119.992 337.57 119.062 337.57 117.969V99.6406L338.32 93.6406ZM321.469 106.625V106.133C321.469 104.211 321.703 102.461 322.172 100.883C322.656 99.2891 323.344 97.9219 324.234 96.7812C325.141 95.625 326.234 94.7344 327.516 94.1094C328.797 93.4844 330.242 93.1719 331.852 93.1719C333.586 93.1719 335.008 93.5078 336.117 94.1797C337.242 94.8359 338.141 95.7578 338.812 96.9453C339.5 98.1328 340.031 99.5234 340.406 101.117C340.797 102.695 341.125 104.398 341.391 106.227V106.812C341.125 108.531 340.758 110.156 340.289 111.688C339.836 113.203 339.242 114.547 338.508 115.719C337.773 116.891 336.852 117.812 335.742 118.484C334.648 119.141 333.336 119.469 331.805 119.469C330.211 119.469 328.773 119.148 327.492 118.508C326.227 117.867 325.141 116.969 324.234 115.812C323.344 114.656 322.656 113.297 322.172 111.734C321.703 110.172 321.469 108.469 321.469 106.625ZM329.367 106.133V106.625C329.367 107.578 329.453 108.461 329.625 109.273C329.812 110.086 330.094 110.805 330.469 111.43C330.844 112.039 331.305 112.516 331.852 112.859C332.414 113.203 333.07 113.375 333.82 113.375C334.961 113.375 335.883 113.133 336.586 112.648C337.289 112.164 337.797 111.477 338.109 110.586C338.422 109.695 338.555 108.648 338.508 107.445V105.594C338.539 104.562 338.469 103.656 338.297 102.875C338.125 102.078 337.852 101.414 337.477 100.883C337.117 100.352 336.633 99.9531 336.023 99.6875C335.43 99.4062 334.711 99.2656 333.867 99.2656C333.133 99.2656 332.484 99.4375 331.922 99.7812C331.359 100.125 330.891 100.609 330.516 101.234C330.141 101.844 329.852 102.57 329.648 103.414C329.461 104.242 329.367 105.148 329.367 106.133Z" fill="black"/>
<path d="M1134 0H1348C1356.28 0 1363 6.71573 1363 15V148C1363 156.284 1356.28 163 1348 163H1134V0Z" fill="#00B69B"/>
<path fill-rule="evenodd" clip-rule="evenodd" d="M1202.75 46.5018C1202.75 45.3973 1203.65 44.5018 1204.75 44.5018H1292.25C1293.35 44.5018 1294.25 45.3973 1294.25 46.5018V116.498C1294.25 117.603 1293.35 118.498 1292.25 118.498H1204.75C1203.65 118.498 1202.75 117.603 1202.75 116.498V46.5018ZM1206.75 48.5018V52.9963H1290.25V48.5018H1206.75ZM1290.25 56.9963H1235.19V114.498H1290.25V56.9963ZM1231.19 114.498V56.9963H1206.75V114.498H1231.19Z" fill="white"/>
<path fill-rule="evenodd" clip-rule="evenodd" d="M1209.72 62.3022C1209.72 61.1976 1210.62 60.3022 1211.72 60.3022H1225.72C1226.83 60.3022 1227.72 61.1976 1227.72 62.3022V81.6974C1227.72 82.802 1226.83 83.6974 1225.72 83.6974H1211.72C1210.62 83.6974 1209.72 82.802 1209.72 81.6974V62.3022ZM1213.72 64.3022V79.6974H1223.72V64.3022H1213.72ZM1239.33 63.1982C1239.33 62.0936 1240.22 61.1982 1241.33 61.1982H1284.25C1285.36 61.1982 1286.25 62.0936 1286.25 63.1982V109.407C1286.25 110.511 1285.36 111.407 1284.25 111.407H1241.33C1240.22 111.407 1239.33 110.511 1239.33 109.407V63.1982ZM1243.33 65.1982V107.407H1282.25V65.1982H1243.33ZM1209.56 93.4381C1209.56 92.3336 1210.46 91.4381 1211.56 91.4381H1220.48C1221.59 91.4381 1222.48 92.3336 1222.48 93.4381C1222.48 94.5427 1221.59 95.4381 1220.48 95.4381H1211.56C1210.46 95.4381 1209.56 94.5427 1209.56 93.4381ZM1209.56 100.438C1209.56 99.3335 1210.46 98.4381 1211.56 98.4381H1226.1C1227.21 98.4381 1228.1 99.3335 1228.1 100.438C1228.1 101.543 1227.21 102.438 1226.1 102.438H1211.56C1210.46 102.438 1209.56 101.543 1209.56 100.438ZM1209.56 107.438C1209.56 106.334 1210.46 105.438 1211.56 105.438H1220.48C1221.59 105.438 1222.48 106.334 1222.48 107.438C1222.48 108.543 1221.59 109.438 1220.48 109.438H1211.56C1210.46 109.438 1209.56 108.543 1209.56 107.438Z" fill="white"/>
</svg>
