<svg width="146" height="148" viewBox="0 0 146 148" fill="none" xmlns="http://www.w3.org/2000/svg">
<g filter="url(#filter0_d_134_22)">
<path d="M52.4483 140C39 140 31.2414 134.655 25.3793 122.931L8.82759 89.4827C5.72414 83.2759 4 77.5862 4 70.5172C4 62.5862 5.37931 57.7586 9 50.5172L25.5517 17.2414C31.7586 4.82759 39.3448 0 53.3103 0H132.276C136.241 0 141.241 2.24138 141.241 8.96552C141.241 15.5172 136.414 17.931 132.276 17.931H54C46.2414 17.931 45.0345 18.6207 41.5862 25.5172L25.8966 56.8965C23.4828 61.7241 22.1034 65 22.1034 70.5172C22.1034 75.5172 23.6552 78.6207 25.8966 82.931L41.2414 114.138C44.8621 121.552 46.5862 122.069 54.6897 122.069H132.276C136.241 122.069 141.241 124.31 141.241 131.034C141.241 137.586 136.414 140 132.276 140H52.4483Z" fill="white"/>
<path d="M112.621 78.4689V91.3898C112.621 91.6974 112.621 92.3127 112.313 92.6204L105.237 106.464C104.622 107.387 103.699 108.002 102.776 108.002H100.623C98.777 108.002 97.2388 106.157 98.1617 104.311L102.161 94.7739C103.084 92.928 101.546 91.0821 99.6999 91.0821C98.1617 91.0821 96.9312 89.8516 96.9312 88.3134V78.7765C96.9312 77.2383 98.1617 76.0078 99.6999 76.0078H109.852C111.698 75.7001 112.621 76.9307 112.621 78.4689ZM100.008 37.8604H109.544C111.083 37.8604 112.313 39.0909 112.313 40.6291V50.166C112.313 51.7042 111.083 52.9347 109.544 52.9347H100.008C98.4694 52.9347 97.2388 51.7042 97.2388 50.166V40.6291C97.2388 39.0909 98.4694 37.8604 100.008 37.8604Z" fill="#272727"/>
</g>
<defs>
<filter id="filter0_d_134_22" x="0" y="0" width="145.241" height="148" filterUnits="userSpaceOnUse" color-interpolation-filters="sRGB">
<feFlood flood-opacity="0" result="BackgroundImageFix"/>
<feColorMatrix in="SourceAlpha" type="matrix" values="0 0 0 0 0 0 0 0 0 0 0 0 0 0 0 0 0 0 127 0" result="hardAlpha"/>
<feOffset dy="4"/>
<feGaussianBlur stdDeviation="2"/>
<feComposite in2="hardAlpha" operator="out"/>
<feColorMatrix type="matrix" values="0 0 0 0 0 0 0 0 0 0 0 0 0 0 0 0 0 0 0.25 0"/>
<feBlend mode="normal" in2="BackgroundImageFix" result="effect1_dropShadow_134_22"/>
<feBlend mode="normal" in="SourceGraphic" in2="effect1_dropShadow_134_22" result="shape"/>
</filter>
</defs>
</svg>
