<svg width="146" height="148" viewBox="0 0 146 148" fill="none" xmlns="http://www.w3.org/2000/svg">
<g id="Logo" filter="url(#filter0_d_110_178)">
<g id="Group 1">
<path id="C" d="M52.8277 140C39.3794 140 31.6208 134.655 25.7587 122.931L9.20698 89.4827C6.10353 83.2759 4.37939 77.5862 4.37939 70.5172C4.37939 62.5862 5.75871 57.7586 9.3794 50.5172L25.9311 17.2414C32.138 4.82759 39.7242 0 53.6897 0H132.655C136.621 0 141.621 2.24138 141.621 8.96552C141.621 15.5172 136.793 17.931 132.655 17.931H54.3794C46.6208 17.931 45.4139 18.6207 41.9656 25.5172L26.2759 56.8965C23.8622 61.7241 22.4828 65 22.4828 70.5172C22.4828 75.5172 24.0346 78.6207 26.2759 82.931L41.6208 114.138C45.2415 121.552 46.9656 122.069 55.069 122.069H132.655C136.621 122.069 141.621 124.31 141.621 131.034C141.621 137.586 136.793 140 132.655 140H52.8277Z" fill="white"/>
<path id="Semi colone" d="M113 78.4686V91.3896C113 91.6972 113 92.3125 112.693 92.6201L105.617 106.464C105.002 107.387 104.079 108.002 103.156 108.002H101.002C99.1564 108.002 97.6182 106.156 98.5411 104.31L102.54 94.7736C103.463 92.9278 101.925 91.0819 100.079 91.0819C98.5411 91.0819 97.3105 89.8514 97.3105 88.3132V78.7763C97.3105 77.2381 98.5411 76.0075 100.079 76.0075H110.231C112.077 75.6999 113 76.9304 113 78.4686ZM100.387 37.8601H109.924C111.462 37.8601 112.693 39.0907 112.693 40.6289V50.1657C112.693 51.7039 111.462 52.9345 109.924 52.9345H100.387C98.8487 52.9345 97.6182 51.7039 97.6182 50.1657V40.6289C97.6182 39.0907 98.8487 37.8601 100.387 37.8601Z" fill="#28D8A1"/>
</g>
</g>
<defs>
<filter id="filter0_d_110_178" x="0.379395" y="0" width="145.241" height="148" filterUnits="userSpaceOnUse" color-interpolation-filters="sRGB">
<feFlood flood-opacity="0" result="BackgroundImageFix"/>
<feColorMatrix in="SourceAlpha" type="matrix" values="0 0 0 0 0 0 0 0 0 0 0 0 0 0 0 0 0 0 127 0" result="hardAlpha"/>
<feOffset dy="4"/>
<feGaussianBlur stdDeviation="2"/>
<feComposite in2="hardAlpha" operator="out"/>
<feColorMatrix type="matrix" values="0 0 0 0 0 0 0 0 0 0 0 0 0 0 0 0 0 0 0.25 0"/>
<feBlend mode="normal" in2="BackgroundImageFix" result="effect1_dropShadow_110_178"/>
<feBlend mode="normal" in="SourceGraphic" in2="effect1_dropShadow_110_178" result="shape"/>
</filter>
</defs>
</svg>
