<svg width="1363" height="163" viewBox="0 0 1363 163" fill="none" xmlns="http://www.w3.org/2000/svg">
<path d="M0 15C0 6.71573 6.71573 0 15 0H37V163H15C6.71573 163 0 156.284 0 148V15Z" fill="#424242"/>
<rect width="1097" height="163" transform="translate(37)" fill="#F0F0F0"/>
<path d="M101.906 53.9219L94.3945 51.2383V48.0859L104.602 52.375V54.6367L101.906 53.9219ZM94.3945 56.1719L101.918 53.4297L104.602 52.7852V55.0352L94.3945 59.3242V56.1719ZM122.789 55.3398H126.293C126.223 56.4883 125.906 57.5078 125.344 58.3984C124.789 59.2891 124.012 59.9844 123.012 60.4844C122.02 60.9844 120.824 61.2344 119.426 61.2344C118.332 61.2344 117.352 61.0469 116.484 60.6719C115.617 60.2891 114.875 59.7422 114.258 59.0312C113.648 58.3203 113.184 57.4609 112.863 56.4531C112.543 55.4453 112.383 54.3164 112.383 53.0664V51.8828C112.383 50.6328 112.547 49.5039 112.875 48.4961C113.211 47.4805 113.688 46.6172 114.305 45.9062C114.93 45.1953 115.676 44.6484 116.543 44.2656C117.41 43.8828 118.379 43.6914 119.449 43.6914C120.871 43.6914 122.07 43.9492 123.047 44.4648C124.031 44.9805 124.793 45.6914 125.332 46.5977C125.879 47.5039 126.207 48.5352 126.316 49.6914H122.801C122.762 49.0039 122.625 48.4219 122.391 47.9453C122.156 47.4609 121.801 47.0977 121.324 46.8555C120.855 46.6055 120.23 46.4805 119.449 46.4805C118.863 46.4805 118.352 46.5898 117.914 46.8086C117.477 47.0273 117.109 47.3594 116.812 47.8047C116.516 48.25 116.293 48.8125 116.145 49.4922C116.004 50.1641 115.934 50.9531 115.934 51.8594V53.0664C115.934 53.9492 116 54.7266 116.133 55.3984C116.266 56.0625 116.469 56.625 116.742 57.0859C117.023 57.5391 117.383 57.8828 117.82 58.1172C118.266 58.3438 118.801 58.457 119.426 58.457C120.16 58.457 120.766 58.3398 121.242 58.1055C121.719 57.8711 122.082 57.5234 122.332 57.0625C122.59 56.6016 122.742 56.0273 122.789 55.3398ZM132.152 59.5703L135.516 48.3203H139.137L134.039 62.9102C133.93 63.2305 133.781 63.5742 133.594 63.9414C133.414 64.3086 133.168 64.6562 132.855 64.9844C132.551 65.3203 132.164 65.5938 131.695 65.8047C131.234 66.0156 130.668 66.1211 129.996 66.1211C129.676 66.1211 129.414 66.1016 129.211 66.0625C129.008 66.0234 128.766 65.9688 128.484 65.8984V63.4258C128.57 63.4258 128.66 63.4258 128.754 63.4258C128.848 63.4336 128.938 63.4375 129.023 63.4375C129.469 63.4375 129.832 63.3867 130.113 63.2852C130.395 63.1836 130.621 63.0273 130.793 62.8164C130.965 62.6133 131.102 62.3477 131.203 62.0195L132.152 59.5703ZM130.746 48.3203L133.5 57.5078L133.98 61.082L131.684 61.3281L127.125 48.3203H130.746ZM140.484 43H143.859V58.0938L143.52 61H140.484V43ZM151.887 54.5312V54.7773C151.887 55.7227 151.785 56.5898 151.582 57.3789C151.387 58.168 151.082 58.8516 150.668 59.4297C150.254 60 149.738 60.4453 149.121 60.7656C148.512 61.0781 147.793 61.2344 146.965 61.2344C146.191 61.2344 145.52 61.0781 144.949 60.7656C144.387 60.4531 143.914 60.0117 143.531 59.4414C143.148 58.8711 142.84 58.2031 142.605 57.4375C142.371 56.6719 142.195 55.8359 142.078 54.9297V54.3906C142.195 53.4844 142.371 52.6484 142.605 51.8828C142.84 51.1172 143.148 50.4492 143.531 49.8789C143.914 49.3086 144.387 48.8672 144.949 48.5547C145.512 48.2422 146.176 48.0859 146.941 48.0859C147.777 48.0859 148.504 48.2461 149.121 48.5664C149.746 48.8789 150.262 49.3242 150.668 49.9023C151.082 50.4727 151.387 51.1523 151.582 51.9414C151.785 52.7227 151.887 53.5859 151.887 54.5312ZM148.512 54.7773V54.5312C148.512 54.0156 148.473 53.5312 148.395 53.0781C148.324 52.6172 148.199 52.2148 148.02 51.8711C147.84 51.5195 147.594 51.2422 147.281 51.0391C146.977 50.8359 146.582 50.7344 146.098 50.7344C145.637 50.7344 145.246 50.8125 144.926 50.9688C144.605 51.125 144.34 51.3438 144.129 51.625C143.926 51.9062 143.773 52.2422 143.672 52.6328C143.57 53.0156 143.508 53.4375 143.484 53.8984V55.4336C143.508 56.0508 143.609 56.5977 143.789 57.0742C143.977 57.543 144.258 57.9141 144.633 58.1875C145.016 58.4531 145.512 58.5859 146.121 58.5859C146.598 58.5859 146.992 58.4922 147.305 58.3047C147.617 58.1172 147.859 57.8516 148.031 57.5078C148.211 57.1641 148.336 56.7617 148.406 56.3008C148.477 55.832 148.512 55.3242 148.512 54.7773ZM159.82 61.2344C158.836 61.2344 157.953 61.0781 157.172 60.7656C156.391 60.4453 155.727 60.0039 155.18 59.4414C154.641 58.8789 154.227 58.2266 153.938 57.4844C153.648 56.7344 153.504 55.9375 153.504 55.0938V54.625C153.504 53.6641 153.641 52.7852 153.914 51.9883C154.188 51.1914 154.578 50.5 155.086 49.9141C155.602 49.3281 156.227 48.8789 156.961 48.5664C157.695 48.2461 158.523 48.0859 159.445 48.0859C160.344 48.0859 161.141 48.2344 161.836 48.5312C162.531 48.8281 163.113 49.25 163.582 49.7969C164.059 50.3438 164.418 51 164.66 51.7656C164.902 52.5234 165.023 53.3672 165.023 54.2969V55.7031H154.945V53.4531H161.707V53.1953C161.707 52.7266 161.621 52.3086 161.449 51.9414C161.285 51.5664 161.035 51.2695 160.699 51.0508C160.363 50.832 159.934 50.7227 159.41 50.7227C158.965 50.7227 158.582 50.8203 158.262 51.0156C157.941 51.2109 157.68 51.4844 157.477 51.8359C157.281 52.1875 157.133 52.6016 157.031 53.0781C156.938 53.5469 156.891 54.0625 156.891 54.625V55.0938C156.891 55.6016 156.961 56.0703 157.102 56.5C157.25 56.9297 157.457 57.3008 157.723 57.6133C157.996 57.9258 158.324 58.168 158.707 58.3398C159.098 58.5117 159.539 58.5977 160.031 58.5977C160.641 58.5977 161.207 58.4805 161.73 58.2461C162.262 58.0039 162.719 57.6406 163.102 57.1562L164.742 58.9375C164.477 59.3203 164.113 59.6875 163.652 60.0391C163.199 60.3906 162.652 60.6797 162.012 60.9062C161.371 61.125 160.641 61.2344 159.82 61.2344ZM170.32 51.0859V61H166.945V48.3203H170.121L170.32 51.0859ZM174.141 48.2383L174.082 51.3672C173.918 51.3438 173.719 51.3242 173.484 51.3086C173.258 51.2852 173.051 51.2734 172.863 51.2734C172.387 51.2734 171.973 51.3359 171.621 51.4609C171.277 51.5781 170.988 51.7539 170.754 51.9883C170.527 52.2227 170.355 52.5078 170.238 52.8438C170.129 53.1797 170.066 53.5625 170.051 53.9922L169.371 53.7812C169.371 52.9609 169.453 52.207 169.617 51.5195C169.781 50.8242 170.02 50.2188 170.332 49.7031C170.652 49.1875 171.043 48.7891 171.504 48.5078C171.965 48.2266 172.492 48.0859 173.086 48.0859C173.273 48.0859 173.465 48.1016 173.66 48.1328C173.855 48.1562 174.016 48.1914 174.141 48.2383ZM191.812 55.3398H195.316C195.246 56.4883 194.93 57.5078 194.367 58.3984C193.812 59.2891 193.035 59.9844 192.035 60.4844C191.043 60.9844 189.848 61.2344 188.449 61.2344C187.355 61.2344 186.375 61.0469 185.508 60.6719C184.641 60.2891 183.898 59.7422 183.281 59.0312C182.672 58.3203 182.207 57.4609 181.887 56.4531C181.566 55.4453 181.406 54.3164 181.406 53.0664V51.8828C181.406 50.6328 181.57 49.5039 181.898 48.4961C182.234 47.4805 182.711 46.6172 183.328 45.9062C183.953 45.1953 184.699 44.6484 185.566 44.2656C186.434 43.8828 187.402 43.6914 188.473 43.6914C189.895 43.6914 191.094 43.9492 192.07 44.4648C193.055 44.9805 193.816 45.6914 194.355 46.5977C194.902 47.5039 195.23 48.5352 195.34 49.6914H191.824C191.785 49.0039 191.648 48.4219 191.414 47.9453C191.18 47.4609 190.824 47.0977 190.348 46.8555C189.879 46.6055 189.254 46.4805 188.473 46.4805C187.887 46.4805 187.375 46.5898 186.938 46.8086C186.5 47.0273 186.133 47.3594 185.836 47.8047C185.539 48.25 185.316 48.8125 185.168 49.4922C185.027 50.1641 184.957 50.9531 184.957 51.8594V53.0664C184.957 53.9492 185.023 54.7266 185.156 55.3984C185.289 56.0625 185.492 56.625 185.766 57.0859C186.047 57.5391 186.406 57.8828 186.844 58.1172C187.289 58.3438 187.824 58.457 188.449 58.457C189.184 58.457 189.789 58.3398 190.266 58.1055C190.742 57.8711 191.105 57.5234 191.355 57.0625C191.613 56.6016 191.766 56.0273 191.812 55.3398ZM200.707 43V61H197.332V43H200.707ZM200.227 54.2148H199.301C199.309 53.332 199.426 52.5195 199.652 51.7773C199.879 51.0273 200.203 50.3789 200.625 49.832C201.047 49.2773 201.551 48.8477 202.137 48.543C202.73 48.2383 203.387 48.0859 204.105 48.0859C204.73 48.0859 205.297 48.1758 205.805 48.3555C206.32 48.5273 206.762 48.8086 207.129 49.1992C207.504 49.582 207.793 50.0859 207.996 50.7109C208.199 51.3359 208.301 52.0938 208.301 52.9844V61H204.902V52.9609C204.902 52.3984 204.82 51.957 204.656 51.6367C204.5 51.3086 204.27 51.0781 203.965 50.9453C203.668 50.8047 203.301 50.7344 202.863 50.7344C202.379 50.7344 201.965 50.8242 201.621 51.0039C201.285 51.1836 201.016 51.4336 200.812 51.7539C200.609 52.0664 200.461 52.4336 200.367 52.8555C200.273 53.2773 200.227 53.7305 200.227 54.2148ZM217.711 58.1406V52.4922C217.711 52.0859 217.645 51.7383 217.512 51.4492C217.379 51.1523 217.172 50.9219 216.891 50.7578C216.617 50.5938 216.262 50.5117 215.824 50.5117C215.449 50.5117 215.125 50.5781 214.852 50.7109C214.578 50.8359 214.367 51.0195 214.219 51.2617C214.07 51.4961 213.996 51.7734 213.996 52.0938H210.621C210.621 51.5547 210.746 51.043 210.996 50.5586C211.246 50.0742 211.609 49.6484 212.086 49.2812C212.562 48.9062 213.129 48.6133 213.785 48.4023C214.449 48.1914 215.191 48.0859 216.012 48.0859C216.996 48.0859 217.871 48.25 218.637 48.5781C219.402 48.9062 220.004 49.3984 220.441 50.0547C220.887 50.7109 221.109 51.5312 221.109 52.5156V57.9414C221.109 58.6367 221.152 59.207 221.238 59.6523C221.324 60.0898 221.449 60.4727 221.613 60.8008V61H218.203C218.039 60.6562 217.914 60.2266 217.828 59.7109C217.75 59.1875 217.711 58.6641 217.711 58.1406ZM218.156 53.2773L218.18 55.1875H216.293C215.848 55.1875 215.461 55.2383 215.133 55.3398C214.805 55.4414 214.535 55.5859 214.324 55.7734C214.113 55.9531 213.957 56.1641 213.855 56.4062C213.762 56.6484 213.715 56.9141 213.715 57.2031C213.715 57.4922 213.781 57.7539 213.914 57.9883C214.047 58.2148 214.238 58.3945 214.488 58.5273C214.738 58.6523 215.031 58.7148 215.367 58.7148C215.875 58.7148 216.316 58.6133 216.691 58.4102C217.066 58.207 217.355 57.957 217.559 57.6602C217.77 57.3633 217.879 57.082 217.887 56.8164L218.777 58.2461C218.652 58.5664 218.48 58.8984 218.262 59.2422C218.051 59.5859 217.781 59.9102 217.453 60.2148C217.125 60.5117 216.73 60.7578 216.27 60.9531C215.809 61.1406 215.262 61.2344 214.629 61.2344C213.824 61.2344 213.094 61.0742 212.438 60.7539C211.789 60.4258 211.273 59.9766 210.891 59.4062C210.516 58.8281 210.328 58.1719 210.328 57.4375C210.328 56.7734 210.453 56.1836 210.703 55.668C210.953 55.1523 211.32 54.7188 211.805 54.3672C212.297 54.0078 212.91 53.7383 213.645 53.5586C214.379 53.3711 215.23 53.2773 216.199 53.2773H218.156ZM227.086 50.7578V65.875H223.711V48.3203H226.84L227.086 50.7578ZM235.113 54.5195V54.7656C235.113 55.6875 235.004 56.543 234.785 57.332C234.574 58.1211 234.262 58.8086 233.848 59.3945C233.434 59.9727 232.918 60.4258 232.301 60.7539C231.691 61.0742 230.988 61.2344 230.191 61.2344C229.418 61.2344 228.746 61.0781 228.176 60.7656C227.605 60.4531 227.125 60.0156 226.734 59.4531C226.352 58.8828 226.043 58.2227 225.809 57.4727C225.574 56.7227 225.395 55.918 225.27 55.0586V54.4141C225.395 53.4922 225.574 52.6484 225.809 51.8828C226.043 51.1094 226.352 50.4414 226.734 49.8789C227.125 49.3086 227.602 48.8672 228.164 48.5547C228.734 48.2422 229.402 48.0859 230.168 48.0859C230.973 48.0859 231.68 48.2383 232.289 48.543C232.906 48.8477 233.422 49.2852 233.836 49.8555C234.258 50.4258 234.574 51.1055 234.785 51.8945C235.004 52.6836 235.113 53.5586 235.113 54.5195ZM231.727 54.7656V54.5195C231.727 53.9805 231.68 53.4844 231.586 53.0312C231.5 52.5703 231.359 52.168 231.164 51.8242C230.977 51.4805 230.727 51.2148 230.414 51.0273C230.109 50.832 229.738 50.7344 229.301 50.7344C228.84 50.7344 228.445 50.8086 228.117 50.957C227.797 51.1055 227.535 51.3203 227.332 51.6016C227.129 51.8828 226.977 52.2188 226.875 52.6094C226.773 53 226.711 53.4414 226.688 53.9336V55.5625C226.727 56.1406 226.836 56.6602 227.016 57.1211C227.195 57.5742 227.473 57.9336 227.848 58.1992C228.223 58.4648 228.715 58.5977 229.324 58.5977C229.77 58.5977 230.145 58.5 230.449 58.3047C230.754 58.1016 231 57.8242 231.188 57.4727C231.383 57.1211 231.52 56.7148 231.598 56.2539C231.684 55.793 231.727 55.2969 231.727 54.7656ZM243.047 61.2344C242.062 61.2344 241.18 61.0781 240.398 60.7656C239.617 60.4453 238.953 60.0039 238.406 59.4414C237.867 58.8789 237.453 58.2266 237.164 57.4844C236.875 56.7344 236.73 55.9375 236.73 55.0938V54.625C236.73 53.6641 236.867 52.7852 237.141 51.9883C237.414 51.1914 237.805 50.5 238.312 49.9141C238.828 49.3281 239.453 48.8789 240.188 48.5664C240.922 48.2461 241.75 48.0859 242.672 48.0859C243.57 48.0859 244.367 48.2344 245.062 48.5312C245.758 48.8281 246.34 49.25 246.809 49.7969C247.285 50.3438 247.645 51 247.887 51.7656C248.129 52.5234 248.25 53.3672 248.25 54.2969V55.7031H238.172V53.4531H244.934V53.1953C244.934 52.7266 244.848 52.3086 244.676 51.9414C244.512 51.5664 244.262 51.2695 243.926 51.0508C243.59 50.832 243.16 50.7227 242.637 50.7227C242.191 50.7227 241.809 50.8203 241.488 51.0156C241.168 51.2109 240.906 51.4844 240.703 51.8359C240.508 52.1875 240.359 52.6016 240.258 53.0781C240.164 53.5469 240.117 54.0625 240.117 54.625V55.0938C240.117 55.6016 240.188 56.0703 240.328 56.5C240.477 56.9297 240.684 57.3008 240.949 57.6133C241.223 57.9258 241.551 58.168 241.934 58.3398C242.324 58.5117 242.766 58.5977 243.258 58.5977C243.867 58.5977 244.434 58.4805 244.957 58.2461C245.488 58.0039 245.945 57.6406 246.328 57.1562L247.969 58.9375C247.703 59.3203 247.34 59.6875 246.879 60.0391C246.426 60.3906 245.879 60.6797 245.238 60.9062C244.598 61.125 243.867 61.2344 243.047 61.2344ZM253.547 51.0859V61H250.172V48.3203H253.348L253.547 51.0859ZM257.367 48.2383L257.309 51.3672C257.145 51.3438 256.945 51.3242 256.711 51.3086C256.484 51.2852 256.277 51.2734 256.09 51.2734C255.613 51.2734 255.199 51.3359 254.848 51.4609C254.504 51.5781 254.215 51.7539 253.98 51.9883C253.754 52.2227 253.582 52.5078 253.465 52.8438C253.355 53.1797 253.293 53.5625 253.277 53.9922L252.598 53.7812C252.598 52.9609 252.68 52.207 252.844 51.5195C253.008 50.8242 253.246 50.2188 253.559 49.7031C253.879 49.1875 254.27 48.7891 254.73 48.5078C255.191 48.2266 255.719 48.0859 256.312 48.0859C256.5 48.0859 256.691 48.1016 256.887 48.1328C257.082 48.1562 257.242 48.1914 257.367 48.2383ZM258.07 54.7891V54.543C258.07 53.6133 258.203 52.7578 258.469 51.9766C258.734 51.1875 259.121 50.5039 259.629 49.9258C260.137 49.3477 260.762 48.8984 261.504 48.5781C262.246 48.25 263.098 48.0859 264.059 48.0859C265.02 48.0859 265.875 48.25 266.625 48.5781C267.375 48.8984 268.004 49.3477 268.512 49.9258C269.027 50.5039 269.418 51.1875 269.684 51.9766C269.949 52.7578 270.082 53.6133 270.082 54.543V54.7891C270.082 55.7109 269.949 56.5664 269.684 57.3555C269.418 58.1367 269.027 58.8203 268.512 59.4062C268.004 59.9844 267.379 60.4336 266.637 60.7539C265.895 61.0742 265.043 61.2344 264.082 61.2344C263.121 61.2344 262.266 61.0742 261.516 60.7539C260.773 60.4336 260.145 59.9844 259.629 59.4062C259.121 58.8203 258.734 58.1367 258.469 57.3555C258.203 56.5664 258.07 55.7109 258.07 54.7891ZM261.445 54.543V54.7891C261.445 55.3203 261.492 55.8164 261.586 56.2773C261.68 56.7383 261.828 57.1445 262.031 57.4961C262.242 57.8398 262.516 58.1094 262.852 58.3047C263.188 58.5 263.598 58.5977 264.082 58.5977C264.551 58.5977 264.953 58.5 265.289 58.3047C265.625 58.1094 265.895 57.8398 266.098 57.4961C266.301 57.1445 266.449 56.7383 266.543 56.2773C266.645 55.8164 266.695 55.3203 266.695 54.7891V54.543C266.695 54.0273 266.645 53.543 266.543 53.0898C266.449 52.6289 266.297 52.2227 266.086 51.8711C265.883 51.5117 265.613 51.2305 265.277 51.0273C264.941 50.8242 264.535 50.7227 264.059 50.7227C263.582 50.7227 263.176 50.8242 262.84 51.0273C262.512 51.2305 262.242 51.5117 262.031 51.8711C261.828 52.2227 261.68 52.6289 261.586 53.0898C261.492 53.543 261.445 54.0273 261.445 54.543ZM275.461 51.0273V61H272.086V48.3203H275.25L275.461 51.0273ZM274.969 54.2148H274.055C274.055 53.2773 274.176 52.4336 274.418 51.6836C274.66 50.9258 275 50.2812 275.438 49.75C275.875 49.2109 276.395 48.8008 276.996 48.5195C277.605 48.2305 278.285 48.0859 279.035 48.0859C279.629 48.0859 280.172 48.1719 280.664 48.3438C281.156 48.5156 281.578 48.7891 281.93 49.1641C282.289 49.5391 282.562 50.0352 282.75 50.6523C282.945 51.2695 283.043 52.0234 283.043 52.9141V61H279.645V52.9023C279.645 52.3398 279.566 51.9023 279.41 51.5898C279.254 51.2773 279.023 51.0586 278.719 50.9336C278.422 50.8008 278.055 50.7344 277.617 50.7344C277.164 50.7344 276.77 50.8242 276.434 51.0039C276.105 51.1836 275.832 51.4336 275.613 51.7539C275.402 52.0664 275.242 52.4336 275.133 52.8555C275.023 53.2773 274.969 53.7305 274.969 54.2148ZM291.445 61.2344C290.461 61.2344 289.578 61.0781 288.797 60.7656C288.016 60.4453 287.352 60.0039 286.805 59.4414C286.266 58.8789 285.852 58.2266 285.562 57.4844C285.273 56.7344 285.129 55.9375 285.129 55.0938V54.625C285.129 53.6641 285.266 52.7852 285.539 51.9883C285.812 51.1914 286.203 50.5 286.711 49.9141C287.227 49.3281 287.852 48.8789 288.586 48.5664C289.32 48.2461 290.148 48.0859 291.07 48.0859C291.969 48.0859 292.766 48.2344 293.461 48.5312C294.156 48.8281 294.738 49.25 295.207 49.7969C295.684 50.3438 296.043 51 296.285 51.7656C296.527 52.5234 296.648 53.3672 296.648 54.2969V55.7031H286.57V53.4531H293.332V53.1953C293.332 52.7266 293.246 52.3086 293.074 51.9414C292.91 51.5664 292.66 51.2695 292.324 51.0508C291.988 50.832 291.559 50.7227 291.035 50.7227C290.59 50.7227 290.207 50.8203 289.887 51.0156C289.566 51.2109 289.305 51.4844 289.102 51.8359C288.906 52.1875 288.758 52.6016 288.656 53.0781C288.562 53.5469 288.516 54.0625 288.516 54.625V55.0938C288.516 55.6016 288.586 56.0703 288.727 56.5C288.875 56.9297 289.082 57.3008 289.348 57.6133C289.621 57.9258 289.949 58.168 290.332 58.3398C290.723 58.5117 291.164 58.5977 291.656 58.5977C292.266 58.5977 292.832 58.4805 293.355 58.2461C293.887 58.0039 294.344 57.6406 294.727 57.1562L296.367 58.9375C296.102 59.3203 295.738 59.6875 295.277 60.0391C294.824 60.3906 294.277 60.6797 293.637 60.9062C292.996 61.125 292.266 61.2344 291.445 61.2344Z" fill="#888888"/>
<path d="M106.688 119H99.1172L99.1641 112.672H106.688C108.25 112.672 109.57 112.297 110.648 111.547C111.742 110.797 112.57 109.68 113.133 108.195C113.711 106.695 114 104.852 114 102.664V101.188C114 99.5469 113.836 98.1094 113.508 96.875C113.195 95.625 112.727 94.5859 112.102 93.7578C111.477 92.9141 110.695 92.2812 109.758 91.8594C108.836 91.4375 107.773 91.2266 106.57 91.2266H98.9766V84.875H106.57C108.883 84.875 111 85.2734 112.922 86.0703C114.859 86.8516 116.531 87.9766 117.938 89.4453C119.359 90.8984 120.453 92.625 121.219 94.625C122 96.6094 122.391 98.8125 122.391 101.234V102.664C122.391 105.07 122 107.273 121.219 109.273C120.453 111.273 119.367 113 117.961 114.453C116.555 115.906 114.891 117.031 112.969 117.828C111.062 118.609 108.969 119 106.688 119ZM103.828 84.875V119H95.6016V84.875H103.828ZM138.586 119.469C136.523 119.469 134.68 119.148 133.055 118.508C131.43 117.852 130.055 116.953 128.93 115.812C127.82 114.672 126.969 113.359 126.375 111.875C125.797 110.391 125.508 108.82 125.508 107.164V106.273C125.508 104.414 125.766 102.695 126.281 101.117C126.797 99.5234 127.562 98.1328 128.578 96.9453C129.594 95.7578 130.867 94.8359 132.398 94.1797C133.93 93.5078 135.711 93.1719 137.742 93.1719C139.539 93.1719 141.148 93.4609 142.57 94.0391C143.992 94.6172 145.195 95.4453 146.18 96.5234C147.18 97.6016 147.938 98.9062 148.453 100.438C148.984 101.969 149.25 103.688 149.25 105.594V108.805H128.531V103.859H141.539V103.25C141.555 102.406 141.406 101.688 141.094 101.094C140.797 100.5 140.359 100.047 139.781 99.7344C139.203 99.4219 138.5 99.2656 137.672 99.2656C136.812 99.2656 136.102 99.4531 135.539 99.8281C134.992 100.203 134.562 100.719 134.25 101.375C133.953 102.016 133.742 102.758 133.617 103.602C133.492 104.445 133.43 105.336 133.43 106.273V107.164C133.43 108.102 133.555 108.953 133.805 109.719C134.07 110.484 134.445 111.141 134.93 111.688C135.43 112.219 136.023 112.633 136.711 112.93C137.414 113.227 138.211 113.375 139.102 113.375C140.18 113.375 141.242 113.172 142.289 112.766C143.336 112.359 144.234 111.688 144.984 110.75L148.57 115.016C148.055 115.75 147.32 116.461 146.367 117.148C145.43 117.836 144.305 118.398 142.992 118.836C141.68 119.258 140.211 119.469 138.586 119.469ZM160.43 99.0078V119H152.531V93.6406H159.938L160.43 99.0078ZM159.469 105.453L157.664 105.5C157.664 103.719 157.875 102.078 158.297 100.578C158.719 99.0781 159.344 97.7734 160.172 96.6641C161 95.5547 162.016 94.6953 163.219 94.0859C164.438 93.4766 165.844 93.1719 167.438 93.1719C168.547 93.1719 169.555 93.3438 170.461 93.6875C171.367 94.0156 172.148 94.5391 172.805 95.2578C173.461 95.9609 173.961 96.8828 174.305 98.0234C174.664 99.1484 174.844 100.5 174.844 102.078V119H166.945V103.086C166.945 102.008 166.82 101.195 166.57 100.648C166.336 100.102 165.992 99.7344 165.539 99.5469C165.086 99.3594 164.531 99.2656 163.875 99.2656C163.188 99.2656 162.57 99.4219 162.023 99.7344C161.477 100.047 161.008 100.484 160.617 101.047C160.242 101.594 159.953 102.242 159.75 102.992C159.562 103.742 159.469 104.562 159.469 105.453ZM173.953 105.453L171.75 105.5C171.75 103.719 171.945 102.078 172.336 100.578C172.742 99.0781 173.344 97.7734 174.141 96.6641C174.953 95.5547 175.961 94.6953 177.164 94.0859C178.367 93.4766 179.766 93.1719 181.359 93.1719C182.516 93.1719 183.578 93.3438 184.547 93.6875C185.516 94.0312 186.352 94.5859 187.055 95.3516C187.758 96.1172 188.305 97.1328 188.695 98.3984C189.086 99.6484 189.281 101.195 189.281 103.039V119H181.359V103.039C181.359 101.992 181.234 101.203 180.984 100.672C180.75 100.125 180.406 99.7578 179.953 99.5703C179.5 99.3672 178.961 99.2656 178.336 99.2656C177.586 99.2656 176.938 99.4219 176.391 99.7344C175.844 100.047 175.383 100.484 175.008 101.047C174.648 101.594 174.383 102.242 174.211 102.992C174.039 103.742 173.953 104.562 173.953 105.453ZM192.82 106.578V106.086C192.82 104.227 193.086 102.516 193.617 100.953C194.148 99.375 194.93 98.0078 195.961 96.8516C196.992 95.6953 198.266 94.7969 199.781 94.1562C201.297 93.5 203.047 93.1719 205.031 93.1719C207.031 93.1719 208.789 93.5 210.305 94.1562C211.836 94.7969 213.117 95.6953 214.148 96.8516C215.18 98.0078 215.961 99.375 216.492 100.953C217.023 102.516 217.289 104.227 217.289 106.086V106.578C217.289 108.422 217.023 110.133 216.492 111.711C215.961 113.273 215.18 114.641 214.148 115.812C213.117 116.969 211.844 117.867 210.328 118.508C208.812 119.148 207.062 119.469 205.078 119.469C203.094 119.469 201.336 119.148 199.805 118.508C198.273 117.867 196.992 116.969 195.961 115.812C194.93 114.641 194.148 113.273 193.617 111.711C193.086 110.133 192.82 108.422 192.82 106.578ZM200.719 106.086V106.578C200.719 107.531 200.789 108.422 200.93 109.25C201.07 110.078 201.305 110.805 201.633 111.43C201.961 112.039 202.406 112.516 202.969 112.859C203.531 113.203 204.234 113.375 205.078 113.375C205.906 113.375 206.594 113.203 207.141 112.859C207.703 112.516 208.148 112.039 208.477 111.43C208.805 110.805 209.039 110.078 209.18 109.25C209.32 108.422 209.391 107.531 209.391 106.578V106.086C209.391 105.164 209.32 104.297 209.18 103.484C209.039 102.656 208.805 101.93 208.477 101.305C208.148 100.664 207.703 100.164 207.141 99.8047C206.578 99.4453 205.875 99.2656 205.031 99.2656C204.203 99.2656 203.508 99.4453 202.945 99.8047C202.398 100.164 201.961 100.664 201.633 101.305C201.305 101.93 201.07 102.656 200.93 103.484C200.789 104.297 200.719 105.164 200.719 106.086Z" fill="black"/>
<path d="M1134 0H1348C1356.28 0 1363 6.71573 1363 15V148C1363 156.284 1356.28 163 1348 163H1134V0Z" fill="#00B69B"/>
<path d="M1281 46.5H1216L1213.5 49V114L1216 116.5H1281L1283.5 114V49L1281 46.5ZM1278.5 111.5H1233.5V101.5H1245C1246.5 104.5 1250 106.5 1253.5 106.5C1259 106.5 1263.5 102 1263.5 96.5C1263.5 91 1259 86.5 1253.5 86.5C1248 86.5 1243.5 91 1243.5 96.5H1228.5V111.5H1218.5V51.5H1228.5V63C1225.5 64.5 1223.5 68 1223.5 71.5C1223.5 77 1228 81.5 1233.5 81.5C1239 81.5 1243.5 77 1243.5 71.5H1253.5C1253.5 77 1258 81.5 1263.5 81.5C1269 81.5 1273.5 77 1273.5 71.5C1273.5 66 1269 61.5 1263.5 61.5C1260 61.5 1256.5 63.5 1255 66.5H1242C1240.5 63.5 1237 61.5 1233.5 61.5V51.5H1278.5V111.5ZM1248.5 96.5C1248.5 93.5 1250.5 91.5 1253.5 91.5C1256.5 91.5 1258.5 93.5 1258.5 96.5C1258.5 99.5 1256.5 101.5 1253.5 101.5C1250.5 101.5 1248.5 99.5 1248.5 96.5ZM1233.5 66.5C1236.5 66.5 1238.5 68.5 1238.5 71.5C1238.5 74.5 1236.5 76.5 1233.5 76.5C1230.5 76.5 1228.5 74.5 1228.5 71.5C1228.5 68.5 1230.5 66.5 1233.5 66.5ZM1263.5 66.5C1266.5 66.5 1268.5 68.5 1268.5 71.5C1268.5 74.5 1266.5 76.5 1263.5 76.5C1260.5 76.5 1258.5 74.5 1258.5 71.5C1258.5 68.5 1260.5 66.5 1263.5 66.5Z" fill="white"/>
</svg>
