<svg width="1363" height="163" viewBox="0 0 1363 163" fill="none" xmlns="http://www.w3.org/2000/svg">
<path d="M0 15C0 6.71573 6.71573 0 15 0H37V163H15C6.71573 163 0 156.284 0 148V15Z" fill="#424242"/>
<rect width="1097" height="163" transform="translate(37)" fill="#F0F0F0"/>
<path d="M101.906 53.9219L94.3945 51.2383V48.0859L104.602 52.375V54.6367L101.906 53.9219ZM94.3945 56.1719L101.918 53.4297L104.602 52.7852V55.0352L94.3945 59.3242V56.1719ZM122.789 55.3398H126.293C126.223 56.4883 125.906 57.5078 125.344 58.3984C124.789 59.2891 124.012 59.9844 123.012 60.4844C122.02 60.9844 120.824 61.2344 119.426 61.2344C118.332 61.2344 117.352 61.0469 116.484 60.6719C115.617 60.2891 114.875 59.7422 114.258 59.0312C113.648 58.3203 113.184 57.4609 112.863 56.4531C112.543 55.4453 112.383 54.3164 112.383 53.0664V51.8828C112.383 50.6328 112.547 49.5039 112.875 48.4961C113.211 47.4805 113.688 46.6172 114.305 45.9062C114.93 45.1953 115.676 44.6484 116.543 44.2656C117.41 43.8828 118.379 43.6914 119.449 43.6914C120.871 43.6914 122.07 43.9492 123.047 44.4648C124.031 44.9805 124.793 45.6914 125.332 46.5977C125.879 47.5039 126.207 48.5352 126.316 49.6914H122.801C122.762 49.0039 122.625 48.4219 122.391 47.9453C122.156 47.4609 121.801 47.0977 121.324 46.8555C120.855 46.6055 120.23 46.4805 119.449 46.4805C118.863 46.4805 118.352 46.5898 117.914 46.8086C117.477 47.0273 117.109 47.3594 116.812 47.8047C116.516 48.25 116.293 48.8125 116.145 49.4922C116.004 50.1641 115.934 50.9531 115.934 51.8594V53.0664C115.934 53.9492 116 54.7266 116.133 55.3984C116.266 56.0625 116.469 56.625 116.742 57.0859C117.023 57.5391 117.383 57.8828 117.82 58.1172C118.266 58.3438 118.801 58.457 119.426 58.457C120.16 58.457 120.766 58.3398 121.242 58.1055C121.719 57.8711 122.082 57.5234 122.332 57.0625C122.59 56.6016 122.742 56.0273 122.789 55.3398ZM132.152 59.5703L135.516 48.3203H139.137L134.039 62.9102C133.93 63.2305 133.781 63.5742 133.594 63.9414C133.414 64.3086 133.168 64.6562 132.855 64.9844C132.551 65.3203 132.164 65.5938 131.695 65.8047C131.234 66.0156 130.668 66.1211 129.996 66.1211C129.676 66.1211 129.414 66.1016 129.211 66.0625C129.008 66.0234 128.766 65.9688 128.484 65.8984V63.4258C128.57 63.4258 128.66 63.4258 128.754 63.4258C128.848 63.4336 128.938 63.4375 129.023 63.4375C129.469 63.4375 129.832 63.3867 130.113 63.2852C130.395 63.1836 130.621 63.0273 130.793 62.8164C130.965 62.6133 131.102 62.3477 131.203 62.0195L132.152 59.5703ZM130.746 48.3203L133.5 57.5078L133.98 61.082L131.684 61.3281L127.125 48.3203H130.746ZM140.484 43H143.859V58.0938L143.52 61H140.484V43ZM151.887 54.5312V54.7773C151.887 55.7227 151.785 56.5898 151.582 57.3789C151.387 58.168 151.082 58.8516 150.668 59.4297C150.254 60 149.738 60.4453 149.121 60.7656C148.512 61.0781 147.793 61.2344 146.965 61.2344C146.191 61.2344 145.52 61.0781 144.949 60.7656C144.387 60.4531 143.914 60.0117 143.531 59.4414C143.148 58.8711 142.84 58.2031 142.605 57.4375C142.371 56.6719 142.195 55.8359 142.078 54.9297V54.3906C142.195 53.4844 142.371 52.6484 142.605 51.8828C142.84 51.1172 143.148 50.4492 143.531 49.8789C143.914 49.3086 144.387 48.8672 144.949 48.5547C145.512 48.2422 146.176 48.0859 146.941 48.0859C147.777 48.0859 148.504 48.2461 149.121 48.5664C149.746 48.8789 150.262 49.3242 150.668 49.9023C151.082 50.4727 151.387 51.1523 151.582 51.9414C151.785 52.7227 151.887 53.5859 151.887 54.5312ZM148.512 54.7773V54.5312C148.512 54.0156 148.473 53.5312 148.395 53.0781C148.324 52.6172 148.199 52.2148 148.02 51.8711C147.84 51.5195 147.594 51.2422 147.281 51.0391C146.977 50.8359 146.582 50.7344 146.098 50.7344C145.637 50.7344 145.246 50.8125 144.926 50.9688C144.605 51.125 144.34 51.3438 144.129 51.625C143.926 51.9062 143.773 52.2422 143.672 52.6328C143.57 53.0156 143.508 53.4375 143.484 53.8984V55.4336C143.508 56.0508 143.609 56.5977 143.789 57.0742C143.977 57.543 144.258 57.9141 144.633 58.1875C145.016 58.4531 145.512 58.5859 146.121 58.5859C146.598 58.5859 146.992 58.4922 147.305 58.3047C147.617 58.1172 147.859 57.8516 148.031 57.5078C148.211 57.1641 148.336 56.7617 148.406 56.3008C148.477 55.832 148.512 55.3242 148.512 54.7773ZM159.82 61.2344C158.836 61.2344 157.953 61.0781 157.172 60.7656C156.391 60.4453 155.727 60.0039 155.18 59.4414C154.641 58.8789 154.227 58.2266 153.938 57.4844C153.648 56.7344 153.504 55.9375 153.504 55.0938V54.625C153.504 53.6641 153.641 52.7852 153.914 51.9883C154.188 51.1914 154.578 50.5 155.086 49.9141C155.602 49.3281 156.227 48.8789 156.961 48.5664C157.695 48.2461 158.523 48.0859 159.445 48.0859C160.344 48.0859 161.141 48.2344 161.836 48.5312C162.531 48.8281 163.113 49.25 163.582 49.7969C164.059 50.3438 164.418 51 164.66 51.7656C164.902 52.5234 165.023 53.3672 165.023 54.2969V55.7031H154.945V53.4531H161.707V53.1953C161.707 52.7266 161.621 52.3086 161.449 51.9414C161.285 51.5664 161.035 51.2695 160.699 51.0508C160.363 50.832 159.934 50.7227 159.41 50.7227C158.965 50.7227 158.582 50.8203 158.262 51.0156C157.941 51.2109 157.68 51.4844 157.477 51.8359C157.281 52.1875 157.133 52.6016 157.031 53.0781C156.938 53.5469 156.891 54.0625 156.891 54.625V55.0938C156.891 55.6016 156.961 56.0703 157.102 56.5C157.25 56.9297 157.457 57.3008 157.723 57.6133C157.996 57.9258 158.324 58.168 158.707 58.3398C159.098 58.5117 159.539 58.5977 160.031 58.5977C160.641 58.5977 161.207 58.4805 161.73 58.2461C162.262 58.0039 162.719 57.6406 163.102 57.1562L164.742 58.9375C164.477 59.3203 164.113 59.6875 163.652 60.0391C163.199 60.3906 162.652 60.6797 162.012 60.9062C161.371 61.125 160.641 61.2344 159.82 61.2344ZM170.32 51.0859V61H166.945V48.3203H170.121L170.32 51.0859ZM174.141 48.2383L174.082 51.3672C173.918 51.3438 173.719 51.3242 173.484 51.3086C173.258 51.2852 173.051 51.2734 172.863 51.2734C172.387 51.2734 171.973 51.3359 171.621 51.4609C171.277 51.5781 170.988 51.7539 170.754 51.9883C170.527 52.2227 170.355 52.5078 170.238 52.8438C170.129 53.1797 170.066 53.5625 170.051 53.9922L169.371 53.7812C169.371 52.9609 169.453 52.207 169.617 51.5195C169.781 50.8242 170.02 50.2188 170.332 49.7031C170.652 49.1875 171.043 48.7891 171.504 48.5078C171.965 48.2266 172.492 48.0859 173.086 48.0859C173.273 48.0859 173.465 48.1016 173.66 48.1328C173.855 48.1562 174.016 48.1914 174.141 48.2383ZM191.812 55.3398H195.316C195.246 56.4883 194.93 57.5078 194.367 58.3984C193.812 59.2891 193.035 59.9844 192.035 60.4844C191.043 60.9844 189.848 61.2344 188.449 61.2344C187.355 61.2344 186.375 61.0469 185.508 60.6719C184.641 60.2891 183.898 59.7422 183.281 59.0312C182.672 58.3203 182.207 57.4609 181.887 56.4531C181.566 55.4453 181.406 54.3164 181.406 53.0664V51.8828C181.406 50.6328 181.57 49.5039 181.898 48.4961C182.234 47.4805 182.711 46.6172 183.328 45.9062C183.953 45.1953 184.699 44.6484 185.566 44.2656C186.434 43.8828 187.402 43.6914 188.473 43.6914C189.895 43.6914 191.094 43.9492 192.07 44.4648C193.055 44.9805 193.816 45.6914 194.355 46.5977C194.902 47.5039 195.23 48.5352 195.34 49.6914H191.824C191.785 49.0039 191.648 48.4219 191.414 47.9453C191.18 47.4609 190.824 47.0977 190.348 46.8555C189.879 46.6055 189.254 46.4805 188.473 46.4805C187.887 46.4805 187.375 46.5898 186.938 46.8086C186.5 47.0273 186.133 47.3594 185.836 47.8047C185.539 48.25 185.316 48.8125 185.168 49.4922C185.027 50.1641 184.957 50.9531 184.957 51.8594V53.0664C184.957 53.9492 185.023 54.7266 185.156 55.3984C185.289 56.0625 185.492 56.625 185.766 57.0859C186.047 57.5391 186.406 57.8828 186.844 58.1172C187.289 58.3438 187.824 58.457 188.449 58.457C189.184 58.457 189.789 58.3398 190.266 58.1055C190.742 57.8711 191.105 57.5234 191.355 57.0625C191.613 56.6016 191.766 56.0273 191.812 55.3398ZM200.707 43V61H197.332V43H200.707ZM200.227 54.2148H199.301C199.309 53.332 199.426 52.5195 199.652 51.7773C199.879 51.0273 200.203 50.3789 200.625 49.832C201.047 49.2773 201.551 48.8477 202.137 48.543C202.73 48.2383 203.387 48.0859 204.105 48.0859C204.73 48.0859 205.297 48.1758 205.805 48.3555C206.32 48.5273 206.762 48.8086 207.129 49.1992C207.504 49.582 207.793 50.0859 207.996 50.7109C208.199 51.3359 208.301 52.0938 208.301 52.9844V61H204.902V52.9609C204.902 52.3984 204.82 51.957 204.656 51.6367C204.5 51.3086 204.27 51.0781 203.965 50.9453C203.668 50.8047 203.301 50.7344 202.863 50.7344C202.379 50.7344 201.965 50.8242 201.621 51.0039C201.285 51.1836 201.016 51.4336 200.812 51.7539C200.609 52.0664 200.461 52.4336 200.367 52.8555C200.273 53.2773 200.227 53.7305 200.227 54.2148ZM217.711 58.1406V52.4922C217.711 52.0859 217.645 51.7383 217.512 51.4492C217.379 51.1523 217.172 50.9219 216.891 50.7578C216.617 50.5938 216.262 50.5117 215.824 50.5117C215.449 50.5117 215.125 50.5781 214.852 50.7109C214.578 50.8359 214.367 51.0195 214.219 51.2617C214.07 51.4961 213.996 51.7734 213.996 52.0938H210.621C210.621 51.5547 210.746 51.043 210.996 50.5586C211.246 50.0742 211.609 49.6484 212.086 49.2812C212.562 48.9062 213.129 48.6133 213.785 48.4023C214.449 48.1914 215.191 48.0859 216.012 48.0859C216.996 48.0859 217.871 48.25 218.637 48.5781C219.402 48.9062 220.004 49.3984 220.441 50.0547C220.887 50.7109 221.109 51.5312 221.109 52.5156V57.9414C221.109 58.6367 221.152 59.207 221.238 59.6523C221.324 60.0898 221.449 60.4727 221.613 60.8008V61H218.203C218.039 60.6562 217.914 60.2266 217.828 59.7109C217.75 59.1875 217.711 58.6641 217.711 58.1406ZM218.156 53.2773L218.18 55.1875H216.293C215.848 55.1875 215.461 55.2383 215.133 55.3398C214.805 55.4414 214.535 55.5859 214.324 55.7734C214.113 55.9531 213.957 56.1641 213.855 56.4062C213.762 56.6484 213.715 56.9141 213.715 57.2031C213.715 57.4922 213.781 57.7539 213.914 57.9883C214.047 58.2148 214.238 58.3945 214.488 58.5273C214.738 58.6523 215.031 58.7148 215.367 58.7148C215.875 58.7148 216.316 58.6133 216.691 58.4102C217.066 58.207 217.355 57.957 217.559 57.6602C217.77 57.3633 217.879 57.082 217.887 56.8164L218.777 58.2461C218.652 58.5664 218.48 58.8984 218.262 59.2422C218.051 59.5859 217.781 59.9102 217.453 60.2148C217.125 60.5117 216.73 60.7578 216.27 60.9531C215.809 61.1406 215.262 61.2344 214.629 61.2344C213.824 61.2344 213.094 61.0742 212.438 60.7539C211.789 60.4258 211.273 59.9766 210.891 59.4062C210.516 58.8281 210.328 58.1719 210.328 57.4375C210.328 56.7734 210.453 56.1836 210.703 55.668C210.953 55.1523 211.32 54.7188 211.805 54.3672C212.297 54.0078 212.91 53.7383 213.645 53.5586C214.379 53.3711 215.23 53.2773 216.199 53.2773H218.156ZM227.086 50.7578V65.875H223.711V48.3203H226.84L227.086 50.7578ZM235.113 54.5195V54.7656C235.113 55.6875 235.004 56.543 234.785 57.332C234.574 58.1211 234.262 58.8086 233.848 59.3945C233.434 59.9727 232.918 60.4258 232.301 60.7539C231.691 61.0742 230.988 61.2344 230.191 61.2344C229.418 61.2344 228.746 61.0781 228.176 60.7656C227.605 60.4531 227.125 60.0156 226.734 59.4531C226.352 58.8828 226.043 58.2227 225.809 57.4727C225.574 56.7227 225.395 55.918 225.27 55.0586V54.4141C225.395 53.4922 225.574 52.6484 225.809 51.8828C226.043 51.1094 226.352 50.4414 226.734 49.8789C227.125 49.3086 227.602 48.8672 228.164 48.5547C228.734 48.2422 229.402 48.0859 230.168 48.0859C230.973 48.0859 231.68 48.2383 232.289 48.543C232.906 48.8477 233.422 49.2852 233.836 49.8555C234.258 50.4258 234.574 51.1055 234.785 51.8945C235.004 52.6836 235.113 53.5586 235.113 54.5195ZM231.727 54.7656V54.5195C231.727 53.9805 231.68 53.4844 231.586 53.0312C231.5 52.5703 231.359 52.168 231.164 51.8242C230.977 51.4805 230.727 51.2148 230.414 51.0273C230.109 50.832 229.738 50.7344 229.301 50.7344C228.84 50.7344 228.445 50.8086 228.117 50.957C227.797 51.1055 227.535 51.3203 227.332 51.6016C227.129 51.8828 226.977 52.2188 226.875 52.6094C226.773 53 226.711 53.4414 226.688 53.9336V55.5625C226.727 56.1406 226.836 56.6602 227.016 57.1211C227.195 57.5742 227.473 57.9336 227.848 58.1992C228.223 58.4648 228.715 58.5977 229.324 58.5977C229.77 58.5977 230.145 58.5 230.449 58.3047C230.754 58.1016 231 57.8242 231.188 57.4727C231.383 57.1211 231.52 56.7148 231.598 56.2539C231.684 55.793 231.727 55.2969 231.727 54.7656ZM243.047 61.2344C242.062 61.2344 241.18 61.0781 240.398 60.7656C239.617 60.4453 238.953 60.0039 238.406 59.4414C237.867 58.8789 237.453 58.2266 237.164 57.4844C236.875 56.7344 236.73 55.9375 236.73 55.0938V54.625C236.73 53.6641 236.867 52.7852 237.141 51.9883C237.414 51.1914 237.805 50.5 238.312 49.9141C238.828 49.3281 239.453 48.8789 240.188 48.5664C240.922 48.2461 241.75 48.0859 242.672 48.0859C243.57 48.0859 244.367 48.2344 245.062 48.5312C245.758 48.8281 246.34 49.25 246.809 49.7969C247.285 50.3438 247.645 51 247.887 51.7656C248.129 52.5234 248.25 53.3672 248.25 54.2969V55.7031H238.172V53.4531H244.934V53.1953C244.934 52.7266 244.848 52.3086 244.676 51.9414C244.512 51.5664 244.262 51.2695 243.926 51.0508C243.59 50.832 243.16 50.7227 242.637 50.7227C242.191 50.7227 241.809 50.8203 241.488 51.0156C241.168 51.2109 240.906 51.4844 240.703 51.8359C240.508 52.1875 240.359 52.6016 240.258 53.0781C240.164 53.5469 240.117 54.0625 240.117 54.625V55.0938C240.117 55.6016 240.188 56.0703 240.328 56.5C240.477 56.9297 240.684 57.3008 240.949 57.6133C241.223 57.9258 241.551 58.168 241.934 58.3398C242.324 58.5117 242.766 58.5977 243.258 58.5977C243.867 58.5977 244.434 58.4805 244.957 58.2461C245.488 58.0039 245.945 57.6406 246.328 57.1562L247.969 58.9375C247.703 59.3203 247.34 59.6875 246.879 60.0391C246.426 60.3906 245.879 60.6797 245.238 60.9062C244.598 61.125 243.867 61.2344 243.047 61.2344ZM253.547 51.0859V61H250.172V48.3203H253.348L253.547 51.0859ZM257.367 48.2383L257.309 51.3672C257.145 51.3438 256.945 51.3242 256.711 51.3086C256.484 51.2852 256.277 51.2734 256.09 51.2734C255.613 51.2734 255.199 51.3359 254.848 51.4609C254.504 51.5781 254.215 51.7539 253.98 51.9883C253.754 52.2227 253.582 52.5078 253.465 52.8438C253.355 53.1797 253.293 53.5625 253.277 53.9922L252.598 53.7812C252.598 52.9609 252.68 52.207 252.844 51.5195C253.008 50.8242 253.246 50.2188 253.559 49.7031C253.879 49.1875 254.27 48.7891 254.73 48.5078C255.191 48.2266 255.719 48.0859 256.312 48.0859C256.5 48.0859 256.691 48.1016 256.887 48.1328C257.082 48.1562 257.242 48.1914 257.367 48.2383ZM258.07 54.7891V54.543C258.07 53.6133 258.203 52.7578 258.469 51.9766C258.734 51.1875 259.121 50.5039 259.629 49.9258C260.137 49.3477 260.762 48.8984 261.504 48.5781C262.246 48.25 263.098 48.0859 264.059 48.0859C265.02 48.0859 265.875 48.25 266.625 48.5781C267.375 48.8984 268.004 49.3477 268.512 49.9258C269.027 50.5039 269.418 51.1875 269.684 51.9766C269.949 52.7578 270.082 53.6133 270.082 54.543V54.7891C270.082 55.7109 269.949 56.5664 269.684 57.3555C269.418 58.1367 269.027 58.8203 268.512 59.4062C268.004 59.9844 267.379 60.4336 266.637 60.7539C265.895 61.0742 265.043 61.2344 264.082 61.2344C263.121 61.2344 262.266 61.0742 261.516 60.7539C260.773 60.4336 260.145 59.9844 259.629 59.4062C259.121 58.8203 258.734 58.1367 258.469 57.3555C258.203 56.5664 258.07 55.7109 258.07 54.7891ZM261.445 54.543V54.7891C261.445 55.3203 261.492 55.8164 261.586 56.2773C261.68 56.7383 261.828 57.1445 262.031 57.4961C262.242 57.8398 262.516 58.1094 262.852 58.3047C263.188 58.5 263.598 58.5977 264.082 58.5977C264.551 58.5977 264.953 58.5 265.289 58.3047C265.625 58.1094 265.895 57.8398 266.098 57.4961C266.301 57.1445 266.449 56.7383 266.543 56.2773C266.645 55.8164 266.695 55.3203 266.695 54.7891V54.543C266.695 54.0273 266.645 53.543 266.543 53.0898C266.449 52.6289 266.297 52.2227 266.086 51.8711C265.883 51.5117 265.613 51.2305 265.277 51.0273C264.941 50.8242 264.535 50.7227 264.059 50.7227C263.582 50.7227 263.176 50.8242 262.84 51.0273C262.512 51.2305 262.242 51.5117 262.031 51.8711C261.828 52.2227 261.68 52.6289 261.586 53.0898C261.492 53.543 261.445 54.0273 261.445 54.543ZM275.461 51.0273V61H272.086V48.3203H275.25L275.461 51.0273ZM274.969 54.2148H274.055C274.055 53.2773 274.176 52.4336 274.418 51.6836C274.66 50.9258 275 50.2812 275.438 49.75C275.875 49.2109 276.395 48.8008 276.996 48.5195C277.605 48.2305 278.285 48.0859 279.035 48.0859C279.629 48.0859 280.172 48.1719 280.664 48.3438C281.156 48.5156 281.578 48.7891 281.93 49.1641C282.289 49.5391 282.562 50.0352 282.75 50.6523C282.945 51.2695 283.043 52.0234 283.043 52.9141V61H279.645V52.9023C279.645 52.3398 279.566 51.9023 279.41 51.5898C279.254 51.2773 279.023 51.0586 278.719 50.9336C278.422 50.8008 278.055 50.7344 277.617 50.7344C277.164 50.7344 276.77 50.8242 276.434 51.0039C276.105 51.1836 275.832 51.4336 275.613 51.7539C275.402 52.0664 275.242 52.4336 275.133 52.8555C275.023 53.2773 274.969 53.7305 274.969 54.2148ZM291.445 61.2344C290.461 61.2344 289.578 61.0781 288.797 60.7656C288.016 60.4453 287.352 60.0039 286.805 59.4414C286.266 58.8789 285.852 58.2266 285.562 57.4844C285.273 56.7344 285.129 55.9375 285.129 55.0938V54.625C285.129 53.6641 285.266 52.7852 285.539 51.9883C285.812 51.1914 286.203 50.5 286.711 49.9141C287.227 49.3281 287.852 48.8789 288.586 48.5664C289.32 48.2461 290.148 48.0859 291.07 48.0859C291.969 48.0859 292.766 48.2344 293.461 48.5312C294.156 48.8281 294.738 49.25 295.207 49.7969C295.684 50.3438 296.043 51 296.285 51.7656C296.527 52.5234 296.648 53.3672 296.648 54.2969V55.7031H286.57V53.4531H293.332V53.1953C293.332 52.7266 293.246 52.3086 293.074 51.9414C292.91 51.5664 292.66 51.2695 292.324 51.0508C291.988 50.832 291.559 50.7227 291.035 50.7227C290.59 50.7227 290.207 50.8203 289.887 51.0156C289.566 51.2109 289.305 51.4844 289.102 51.8359C288.906 52.1875 288.758 52.6016 288.656 53.0781C288.562 53.5469 288.516 54.0625 288.516 54.625V55.0938C288.516 55.6016 288.586 56.0703 288.727 56.5C288.875 56.9297 289.082 57.3008 289.348 57.6133C289.621 57.9258 289.949 58.168 290.332 58.3398C290.723 58.5117 291.164 58.5977 291.656 58.5977C292.266 58.5977 292.832 58.4805 293.355 58.2461C293.887 58.0039 294.344 57.6406 294.727 57.1562L296.367 58.9375C296.102 59.3203 295.738 59.6875 295.277 60.0391C294.824 60.3906 294.277 60.6797 293.637 60.9062C292.996 61.125 292.266 61.2344 291.445 61.2344Z" fill="#888888"/>
<path d="M109.219 107.422H100.734V101.07H109.219C110.375 101.07 111.312 100.875 112.031 100.484C112.75 100.094 113.273 99.5547 113.602 98.8672C113.945 98.1641 114.117 97.375 114.117 96.5C114.117 95.5625 113.945 94.6953 113.602 93.8984C113.273 93.1016 112.75 92.4609 112.031 91.9766C111.312 91.4766 110.375 91.2266 109.219 91.2266H103.828V119H95.6016V84.875H109.219C111.953 84.875 114.305 85.375 116.273 86.375C118.258 87.375 119.781 88.75 120.844 90.5C121.906 92.2344 122.438 94.2188 122.438 96.4531C122.438 98.6562 121.906 100.578 120.844 102.219C119.781 103.859 118.258 105.141 116.273 106.062C114.305 106.969 111.953 107.422 109.219 107.422ZM138.445 119.469C136.383 119.469 134.539 119.148 132.914 118.508C131.289 117.852 129.914 116.953 128.789 115.812C127.68 114.672 126.828 113.359 126.234 111.875C125.656 110.391 125.367 108.82 125.367 107.164V106.273C125.367 104.414 125.625 102.695 126.141 101.117C126.656 99.5234 127.422 98.1328 128.438 96.9453C129.453 95.7578 130.727 94.8359 132.258 94.1797C133.789 93.5078 135.57 93.1719 137.602 93.1719C139.398 93.1719 141.008 93.4609 142.43 94.0391C143.852 94.6172 145.055 95.4453 146.039 96.5234C147.039 97.6016 147.797 98.9062 148.312 100.438C148.844 101.969 149.109 103.688 149.109 105.594V108.805H128.391V103.859H141.398V103.25C141.414 102.406 141.266 101.688 140.953 101.094C140.656 100.5 140.219 100.047 139.641 99.7344C139.062 99.4219 138.359 99.2656 137.531 99.2656C136.672 99.2656 135.961 99.4531 135.398 99.8281C134.852 100.203 134.422 100.719 134.109 101.375C133.812 102.016 133.602 102.758 133.477 103.602C133.352 104.445 133.289 105.336 133.289 106.273V107.164C133.289 108.102 133.414 108.953 133.664 109.719C133.93 110.484 134.305 111.141 134.789 111.688C135.289 112.219 135.883 112.633 136.57 112.93C137.273 113.227 138.07 113.375 138.961 113.375C140.039 113.375 141.102 113.172 142.148 112.766C143.195 112.359 144.094 111.688 144.844 110.75L148.43 115.016C147.914 115.75 147.18 116.461 146.227 117.148C145.289 117.836 144.164 118.398 142.852 118.836C141.539 119.258 140.07 119.469 138.445 119.469ZM160.289 99.9219V119H152.391V93.6406H159.773L160.289 99.9219ZM167.789 93.4531L167.648 100.789C167.336 100.758 166.914 100.719 166.383 100.672C165.852 100.625 165.406 100.602 165.047 100.602C164.125 100.602 163.328 100.711 162.656 100.93C162 101.133 161.453 101.445 161.016 101.867C160.594 102.273 160.281 102.789 160.078 103.414C159.891 104.039 159.805 104.766 159.82 105.594L158.391 104.656C158.391 102.953 158.555 101.406 158.883 100.016C159.227 98.6094 159.711 97.3984 160.336 96.3828C160.961 95.3516 161.719 94.5625 162.609 94.0156C163.5 93.4531 164.5 93.1719 165.609 93.1719C166 93.1719 166.383 93.1953 166.758 93.2422C167.148 93.2891 167.492 93.3594 167.789 93.4531ZM180.703 119H172.758V91.5781C172.758 89.6094 173.156 87.9531 173.953 86.6094C174.75 85.2656 175.875 84.25 177.328 83.5625C178.781 82.8594 180.5 82.5078 182.484 82.5078C183.172 82.5078 183.82 82.5547 184.43 82.6484C185.039 82.7422 185.633 82.8594 186.211 83L186.234 88.8125C185.953 88.7344 185.664 88.6797 185.367 88.6484C185.07 88.6172 184.703 88.6016 184.266 88.6016C183.5 88.6016 182.852 88.7188 182.32 88.9531C181.789 89.1719 181.383 89.5078 181.102 89.9609C180.836 90.3984 180.703 90.9375 180.703 91.5781V119ZM185.625 93.6406V99.125H169.102V93.6406H185.625ZM187.477 106.578V106.086C187.477 104.227 187.742 102.516 188.273 100.953C188.805 99.375 189.586 98.0078 190.617 96.8516C191.648 95.6953 192.922 94.7969 194.438 94.1562C195.953 93.5 197.703 93.1719 199.688 93.1719C201.688 93.1719 203.445 93.5 204.961 94.1562C206.492 94.7969 207.773 95.6953 208.805 96.8516C209.836 98.0078 210.617 99.375 211.148 100.953C211.68 102.516 211.945 104.227 211.945 106.086V106.578C211.945 108.422 211.68 110.133 211.148 111.711C210.617 113.273 209.836 114.641 208.805 115.812C207.773 116.969 206.5 117.867 204.984 118.508C203.469 119.148 201.719 119.469 199.734 119.469C197.75 119.469 195.992 119.148 194.461 118.508C192.93 117.867 191.648 116.969 190.617 115.812C189.586 114.641 188.805 113.273 188.273 111.711C187.742 110.133 187.477 108.422 187.477 106.578ZM195.375 106.086V106.578C195.375 107.531 195.445 108.422 195.586 109.25C195.727 110.078 195.961 110.805 196.289 111.43C196.617 112.039 197.062 112.516 197.625 112.859C198.188 113.203 198.891 113.375 199.734 113.375C200.562 113.375 201.25 113.203 201.797 112.859C202.359 112.516 202.805 112.039 203.133 111.43C203.461 110.805 203.695 110.078 203.836 109.25C203.977 108.422 204.047 107.531 204.047 106.578V106.086C204.047 105.164 203.977 104.297 203.836 103.484C203.695 102.656 203.461 101.93 203.133 101.305C202.805 100.664 202.359 100.164 201.797 99.8047C201.234 99.4453 200.531 99.2656 199.688 99.2656C198.859 99.2656 198.164 99.4453 197.602 99.8047C197.055 100.164 196.617 100.664 196.289 101.305C195.961 101.93 195.727 102.656 195.586 103.484C195.445 104.297 195.375 105.164 195.375 106.086ZM223.43 99.9219V119H215.531V93.6406H222.914L223.43 99.9219ZM230.93 93.4531L230.789 100.789C230.477 100.758 230.055 100.719 229.523 100.672C228.992 100.625 228.547 100.602 228.188 100.602C227.266 100.602 226.469 100.711 225.797 100.93C225.141 101.133 224.594 101.445 224.156 101.867C223.734 102.273 223.422 102.789 223.219 103.414C223.031 104.039 222.945 104.766 222.961 105.594L221.531 104.656C221.531 102.953 221.695 101.406 222.023 100.016C222.367 98.6094 222.852 97.3984 223.477 96.3828C224.102 95.3516 224.859 94.5625 225.75 94.0156C226.641 93.4531 227.641 93.1719 228.75 93.1719C229.141 93.1719 229.523 93.1953 229.898 93.2422C230.289 93.2891 230.633 93.3594 230.93 93.4531ZM241.617 99.0078V119H233.719V93.6406H241.125L241.617 99.0078ZM240.656 105.453L238.852 105.5C238.852 103.719 239.062 102.078 239.484 100.578C239.906 99.0781 240.531 97.7734 241.359 96.6641C242.188 95.5547 243.203 94.6953 244.406 94.0859C245.625 93.4766 247.031 93.1719 248.625 93.1719C249.734 93.1719 250.742 93.3438 251.648 93.6875C252.555 94.0156 253.336 94.5391 253.992 95.2578C254.648 95.9609 255.148 96.8828 255.492 98.0234C255.852 99.1484 256.031 100.5 256.031 102.078V119H248.133V103.086C248.133 102.008 248.008 101.195 247.758 100.648C247.523 100.102 247.18 99.7344 246.727 99.5469C246.273 99.3594 245.719 99.2656 245.062 99.2656C244.375 99.2656 243.758 99.4219 243.211 99.7344C242.664 100.047 242.195 100.484 241.805 101.047C241.43 101.594 241.141 102.242 240.938 102.992C240.75 103.742 240.656 104.562 240.656 105.453ZM255.141 105.453L252.938 105.5C252.938 103.719 253.133 102.078 253.523 100.578C253.93 99.0781 254.531 97.7734 255.328 96.6641C256.141 95.5547 257.148 94.6953 258.352 94.0859C259.555 93.4766 260.953 93.1719 262.547 93.1719C263.703 93.1719 264.766 93.3438 265.734 93.6875C266.703 94.0312 267.539 94.5859 268.242 95.3516C268.945 96.1172 269.492 97.1328 269.883 98.3984C270.273 99.6484 270.469 101.195 270.469 103.039V119H262.547V103.039C262.547 101.992 262.422 101.203 262.172 100.672C261.938 100.125 261.594 99.7578 261.141 99.5703C260.688 99.3672 260.148 99.2656 259.523 99.2656C258.773 99.2656 258.125 99.4219 257.578 99.7344C257.031 100.047 256.57 100.484 256.195 101.047C255.836 101.594 255.57 102.242 255.398 102.992C255.227 103.742 255.141 104.562 255.141 105.453ZM288.164 112.625V102.172C288.164 101.453 288.062 100.836 287.859 100.32C287.656 99.8047 287.336 99.4062 286.898 99.125C286.461 98.8281 285.875 98.6797 285.141 98.6797C284.547 98.6797 284.039 98.7812 283.617 98.9844C283.195 99.1875 282.875 99.4922 282.656 99.8984C282.438 100.305 282.328 100.82 282.328 101.445H274.43C274.43 100.273 274.688 99.1875 275.203 98.1875C275.734 97.1719 276.484 96.2891 277.453 95.5391C278.438 94.7891 279.609 94.2109 280.969 93.8047C282.344 93.3828 283.875 93.1719 285.562 93.1719C287.578 93.1719 289.375 93.5078 290.953 94.1797C292.547 94.8516 293.805 95.8594 294.727 97.2031C295.648 98.5312 296.109 100.203 296.109 102.219V112.602C296.109 114.258 296.203 115.516 296.391 116.375C296.578 117.219 296.844 117.961 297.188 118.602V119H289.266C288.891 118.219 288.609 117.266 288.422 116.141C288.25 115 288.164 113.828 288.164 112.625ZM289.125 103.508L289.172 107.727H285.68C284.945 107.727 284.32 107.828 283.805 108.031C283.305 108.234 282.898 108.516 282.586 108.875C282.289 109.219 282.07 109.609 281.93 110.047C281.805 110.484 281.742 110.945 281.742 111.43C281.742 111.898 281.852 112.32 282.07 112.695C282.305 113.055 282.617 113.336 283.008 113.539C283.398 113.742 283.836 113.844 284.32 113.844C285.195 113.844 285.938 113.68 286.547 113.352C287.172 113.008 287.648 112.594 287.977 112.109C288.305 111.625 288.469 111.172 288.469 110.75L290.203 113.984C289.891 114.609 289.531 115.242 289.125 115.883C288.734 116.523 288.242 117.117 287.648 117.664C287.07 118.195 286.359 118.633 285.516 118.977C284.672 119.305 283.648 119.469 282.445 119.469C280.883 119.469 279.445 119.148 278.133 118.508C276.836 117.867 275.797 116.977 275.016 115.836C274.234 114.68 273.844 113.352 273.844 111.852C273.844 110.539 274.078 109.367 274.547 108.336C275.031 107.305 275.758 106.43 276.727 105.711C277.695 104.992 278.93 104.445 280.43 104.07C281.93 103.695 283.695 103.508 285.727 103.508H289.125ZM308.25 99.0547V119H300.352V93.6406H307.758L308.25 99.0547ZM307.312 105.453L305.461 105.5C305.461 103.562 305.695 101.836 306.164 100.32C306.633 98.7891 307.297 97.4922 308.156 96.4297C309.016 95.3672 310.039 94.5625 311.227 94.0156C312.43 93.4531 313.766 93.1719 315.234 93.1719C316.406 93.1719 317.477 93.3438 318.445 93.6875C319.43 94.0312 320.273 94.5859 320.977 95.3516C321.695 96.1172 322.242 97.1328 322.617 98.3984C323.008 99.6484 323.203 101.195 323.203 103.039V119H315.258V103.016C315.258 102 315.117 101.227 314.836 100.695C314.555 100.148 314.148 99.7734 313.617 99.5703C313.086 99.3672 312.438 99.2656 311.672 99.2656C310.859 99.2656 310.172 99.4219 309.609 99.7344C309.047 100.047 308.594 100.484 308.25 101.047C307.922 101.594 307.68 102.242 307.523 102.992C307.383 103.742 307.312 104.562 307.312 105.453ZM338.297 113.375C339.031 113.375 339.656 113.242 340.172 112.977C340.703 112.695 341.102 112.305 341.367 111.805C341.648 111.289 341.781 110.672 341.766 109.953H349.195C349.211 111.859 348.742 113.531 347.789 114.969C346.852 116.391 345.57 117.5 343.945 118.297C342.336 119.078 340.516 119.469 338.484 119.469C336.5 119.469 334.766 119.148 333.281 118.508C331.797 117.852 330.555 116.945 329.555 115.789C328.57 114.617 327.828 113.25 327.328 111.688C326.844 110.125 326.602 108.43 326.602 106.602V106.062C326.602 104.234 326.844 102.539 327.328 100.977C327.828 99.3984 328.57 98.0312 329.555 96.875C330.555 95.7031 331.789 94.7969 333.258 94.1562C334.742 93.5 336.469 93.1719 338.438 93.1719C340.547 93.1719 342.406 93.5703 344.016 94.3672C345.641 95.1641 346.914 96.3203 347.836 97.8359C348.758 99.3516 349.211 101.188 349.195 103.344H341.766C341.781 102.578 341.664 101.891 341.414 101.281C341.164 100.672 340.773 100.188 340.242 99.8281C339.727 99.4531 339.062 99.2656 338.25 99.2656C337.438 99.2656 336.781 99.4453 336.281 99.8047C335.781 100.164 335.398 100.664 335.133 101.305C334.883 101.93 334.711 102.648 334.617 103.461C334.539 104.273 334.5 105.141 334.5 106.062V106.602C334.5 107.539 334.539 108.422 334.617 109.25C334.711 110.062 334.891 110.781 335.156 111.406C335.422 112.016 335.805 112.5 336.305 112.859C336.805 113.203 337.469 113.375 338.297 113.375ZM364.852 119.469C362.789 119.469 360.945 119.148 359.32 118.508C357.695 117.852 356.32 116.953 355.195 115.812C354.086 114.672 353.234 113.359 352.641 111.875C352.062 110.391 351.773 108.82 351.773 107.164V106.273C351.773 104.414 352.031 102.695 352.547 101.117C353.062 99.5234 353.828 98.1328 354.844 96.9453C355.859 95.7578 357.133 94.8359 358.664 94.1797C360.195 93.5078 361.977 93.1719 364.008 93.1719C365.805 93.1719 367.414 93.4609 368.836 94.0391C370.258 94.6172 371.461 95.4453 372.445 96.5234C373.445 97.6016 374.203 98.9062 374.719 100.438C375.25 101.969 375.516 103.688 375.516 105.594V108.805H354.797V103.859H367.805V103.25C367.82 102.406 367.672 101.688 367.359 101.094C367.062 100.5 366.625 100.047 366.047 99.7344C365.469 99.4219 364.766 99.2656 363.938 99.2656C363.078 99.2656 362.367 99.4531 361.805 99.8281C361.258 100.203 360.828 100.719 360.516 101.375C360.219 102.016 360.008 102.758 359.883 103.602C359.758 104.445 359.695 105.336 359.695 106.273V107.164C359.695 108.102 359.82 108.953 360.07 109.719C360.336 110.484 360.711 111.141 361.195 111.688C361.695 112.219 362.289 112.633 362.977 112.93C363.68 113.227 364.477 113.375 365.367 113.375C366.445 113.375 367.508 113.172 368.555 112.766C369.602 112.359 370.5 111.688 371.25 110.75L374.836 115.016C374.32 115.75 373.586 116.461 372.633 117.148C371.695 117.836 370.57 118.398 369.258 118.836C367.945 119.258 366.477 119.469 364.852 119.469Z" fill="black"/>
<path d="M1134 0H1348C1356.28 0 1363 6.71573 1363 15V148C1363 156.284 1356.28 163 1348 163H1134V0Z" fill="#00B69B"/>
<path d="M1234.26 103.786H1262.74V109.357H1234.26V103.786ZM1239.96 114.929H1257.04V120.5H1239.96V114.929ZM1248.5 42.5C1240.95 42.5 1233.71 45.4349 1228.37 50.6592C1223.03 55.8834 1220.03 62.969 1220.03 70.3571C1219.84 74.4057 1220.63 78.4412 1222.34 82.1315C1224.05 85.8219 1226.64 89.0616 1229.88 91.5843C1232.73 94.175 1234.26 95.6514 1234.26 98.2143H1239.96C1239.96 93.0886 1236.8 90.2193 1233.72 87.4614C1231.06 85.4676 1228.94 82.8658 1227.55 79.8838C1226.15 76.9019 1225.53 73.6308 1225.72 70.3571C1225.72 64.4466 1228.12 58.7781 1232.39 54.5988C1236.67 50.4194 1242.46 48.0714 1248.5 48.0714C1254.54 48.0714 1260.33 50.4194 1264.61 54.5988C1268.88 58.7781 1271.28 64.4466 1271.28 70.3571C1271.47 73.6333 1270.84 76.9059 1269.44 79.888C1268.04 82.8701 1265.92 85.4706 1263.25 87.4614C1260.2 90.2471 1257.04 93.0329 1257.04 98.2143H1262.74C1262.74 95.6514 1264.25 94.175 1267.12 91.5564C1270.36 89.0381 1272.94 85.8031 1274.66 82.1176C1276.37 78.4321 1277.16 74.4014 1276.97 70.3571C1276.97 66.6989 1276.24 63.0765 1274.81 59.6967C1273.37 56.3169 1271.28 53.2459 1268.63 50.6592C1265.99 48.0724 1262.85 46.0205 1259.4 44.6205C1255.94 43.2205 1252.24 42.5 1248.5 42.5V42.5Z" fill="white"/>
</svg>
