<svg width="1097" height="163" viewBox="0 0 1097 163" fill="none" xmlns="http://www.w3.org/2000/svg">
<rect width="1097" height="163" fill="#F0F0F0"/>
<path d="M64.9062 53.9219L57.3945 51.2383V48.0859L67.6016 52.375V54.6367L64.9062 53.9219ZM57.3945 56.1719L64.918 53.4297L67.6016 52.7852V55.0352L57.3945 59.3242V56.1719ZM85.7891 55.3398H89.293C89.2227 56.4883 88.9062 57.5078 88.3438 58.3984C87.7891 59.2891 87.0117 59.9844 86.0117 60.4844C85.0195 60.9844 83.8242 61.2344 82.4258 61.2344C81.332 61.2344 80.3516 61.0469 79.4844 60.6719C78.6172 60.2891 77.875 59.7422 77.2578 59.0312C76.6484 58.3203 76.1836 57.4609 75.8633 56.4531C75.543 55.4453 75.3828 54.3164 75.3828 53.0664V51.8828C75.3828 50.6328 75.5469 49.5039 75.875 48.4961C76.2109 47.4805 76.6875 46.6172 77.3047 45.9062C77.9297 45.1953 78.6758 44.6484 79.543 44.2656C80.4102 43.8828 81.3789 43.6914 82.4492 43.6914C83.8711 43.6914 85.0703 43.9492 86.0469 44.4648C87.0312 44.9805 87.793 45.6914 88.332 46.5977C88.8789 47.5039 89.207 48.5352 89.3164 49.6914H85.8008C85.7617 49.0039 85.625 48.4219 85.3906 47.9453C85.1562 47.4609 84.8008 47.0977 84.3242 46.8555C83.8555 46.6055 83.2305 46.4805 82.4492 46.4805C81.8633 46.4805 81.3516 46.5898 80.9141 46.8086C80.4766 47.0273 80.1094 47.3594 79.8125 47.8047C79.5156 48.25 79.293 48.8125 79.1445 49.4922C79.0039 50.1641 78.9336 50.9531 78.9336 51.8594V53.0664C78.9336 53.9492 79 54.7266 79.1328 55.3984C79.2656 56.0625 79.4688 56.625 79.7422 57.0859C80.0234 57.5391 80.3828 57.8828 80.8203 58.1172C81.2656 58.3438 81.8008 58.457 82.4258 58.457C83.1602 58.457 83.7656 58.3398 84.2422 58.1055C84.7188 57.8711 85.082 57.5234 85.332 57.0625C85.5898 56.6016 85.7422 56.0273 85.7891 55.3398ZM95.1523 59.5703L98.5156 48.3203H102.137L97.0391 62.9102C96.9297 63.2305 96.7812 63.5742 96.5938 63.9414C96.4141 64.3086 96.168 64.6562 95.8555 64.9844C95.5508 65.3203 95.1641 65.5938 94.6953 65.8047C94.2344 66.0156 93.668 66.1211 92.9961 66.1211C92.6758 66.1211 92.4141 66.1016 92.2109 66.0625C92.0078 66.0234 91.7656 65.9688 91.4844 65.8984V63.4258C91.5703 63.4258 91.6602 63.4258 91.7539 63.4258C91.8477 63.4336 91.9375 63.4375 92.0234 63.4375C92.4688 63.4375 92.832 63.3867 93.1133 63.2852C93.3945 63.1836 93.6211 63.0273 93.793 62.8164C93.9648 62.6133 94.1016 62.3477 94.2031 62.0195L95.1523 59.5703ZM93.7461 48.3203L96.5 57.5078L96.9805 61.082L94.6836 61.3281L90.125 48.3203H93.7461ZM103.484 43H106.859V58.0938L106.52 61H103.484V43ZM114.887 54.5312V54.7773C114.887 55.7227 114.785 56.5898 114.582 57.3789C114.387 58.168 114.082 58.8516 113.668 59.4297C113.254 60 112.738 60.4453 112.121 60.7656C111.512 61.0781 110.793 61.2344 109.965 61.2344C109.191 61.2344 108.52 61.0781 107.949 60.7656C107.387 60.4531 106.914 60.0117 106.531 59.4414C106.148 58.8711 105.84 58.2031 105.605 57.4375C105.371 56.6719 105.195 55.8359 105.078 54.9297V54.3906C105.195 53.4844 105.371 52.6484 105.605 51.8828C105.84 51.1172 106.148 50.4492 106.531 49.8789C106.914 49.3086 107.387 48.8672 107.949 48.5547C108.512 48.2422 109.176 48.0859 109.941 48.0859C110.777 48.0859 111.504 48.2461 112.121 48.5664C112.746 48.8789 113.262 49.3242 113.668 49.9023C114.082 50.4727 114.387 51.1523 114.582 51.9414C114.785 52.7227 114.887 53.5859 114.887 54.5312ZM111.512 54.7773V54.5312C111.512 54.0156 111.473 53.5312 111.395 53.0781C111.324 52.6172 111.199 52.2148 111.02 51.8711C110.84 51.5195 110.594 51.2422 110.281 51.0391C109.977 50.8359 109.582 50.7344 109.098 50.7344C108.637 50.7344 108.246 50.8125 107.926 50.9688C107.605 51.125 107.34 51.3438 107.129 51.625C106.926 51.9062 106.773 52.2422 106.672 52.6328C106.57 53.0156 106.508 53.4375 106.484 53.8984V55.4336C106.508 56.0508 106.609 56.5977 106.789 57.0742C106.977 57.543 107.258 57.9141 107.633 58.1875C108.016 58.4531 108.512 58.5859 109.121 58.5859C109.598 58.5859 109.992 58.4922 110.305 58.3047C110.617 58.1172 110.859 57.8516 111.031 57.5078C111.211 57.1641 111.336 56.7617 111.406 56.3008C111.477 55.832 111.512 55.3242 111.512 54.7773ZM122.82 61.2344C121.836 61.2344 120.953 61.0781 120.172 60.7656C119.391 60.4453 118.727 60.0039 118.18 59.4414C117.641 58.8789 117.227 58.2266 116.938 57.4844C116.648 56.7344 116.504 55.9375 116.504 55.0938V54.625C116.504 53.6641 116.641 52.7852 116.914 51.9883C117.188 51.1914 117.578 50.5 118.086 49.9141C118.602 49.3281 119.227 48.8789 119.961 48.5664C120.695 48.2461 121.523 48.0859 122.445 48.0859C123.344 48.0859 124.141 48.2344 124.836 48.5312C125.531 48.8281 126.113 49.25 126.582 49.7969C127.059 50.3438 127.418 51 127.66 51.7656C127.902 52.5234 128.023 53.3672 128.023 54.2969V55.7031H117.945V53.4531H124.707V53.1953C124.707 52.7266 124.621 52.3086 124.449 51.9414C124.285 51.5664 124.035 51.2695 123.699 51.0508C123.363 50.832 122.934 50.7227 122.41 50.7227C121.965 50.7227 121.582 50.8203 121.262 51.0156C120.941 51.2109 120.68 51.4844 120.477 51.8359C120.281 52.1875 120.133 52.6016 120.031 53.0781C119.938 53.5469 119.891 54.0625 119.891 54.625V55.0938C119.891 55.6016 119.961 56.0703 120.102 56.5C120.25 56.9297 120.457 57.3008 120.723 57.6133C120.996 57.9258 121.324 58.168 121.707 58.3398C122.098 58.5117 122.539 58.5977 123.031 58.5977C123.641 58.5977 124.207 58.4805 124.73 58.2461C125.262 58.0039 125.719 57.6406 126.102 57.1562L127.742 58.9375C127.477 59.3203 127.113 59.6875 126.652 60.0391C126.199 60.3906 125.652 60.6797 125.012 60.9062C124.371 61.125 123.641 61.2344 122.82 61.2344ZM133.32 51.0859V61H129.945V48.3203H133.121L133.32 51.0859ZM137.141 48.2383L137.082 51.3672C136.918 51.3438 136.719 51.3242 136.484 51.3086C136.258 51.2852 136.051 51.2734 135.863 51.2734C135.387 51.2734 134.973 51.3359 134.621 51.4609C134.277 51.5781 133.988 51.7539 133.754 51.9883C133.527 52.2227 133.355 52.5078 133.238 52.8438C133.129 53.1797 133.066 53.5625 133.051 53.9922L132.371 53.7812C132.371 52.9609 132.453 52.207 132.617 51.5195C132.781 50.8242 133.02 50.2188 133.332 49.7031C133.652 49.1875 134.043 48.7891 134.504 48.5078C134.965 48.2266 135.492 48.0859 136.086 48.0859C136.273 48.0859 136.465 48.1016 136.66 48.1328C136.855 48.1562 137.016 48.1914 137.141 48.2383ZM154.812 55.3398H158.316C158.246 56.4883 157.93 57.5078 157.367 58.3984C156.812 59.2891 156.035 59.9844 155.035 60.4844C154.043 60.9844 152.848 61.2344 151.449 61.2344C150.355 61.2344 149.375 61.0469 148.508 60.6719C147.641 60.2891 146.898 59.7422 146.281 59.0312C145.672 58.3203 145.207 57.4609 144.887 56.4531C144.566 55.4453 144.406 54.3164 144.406 53.0664V51.8828C144.406 50.6328 144.57 49.5039 144.898 48.4961C145.234 47.4805 145.711 46.6172 146.328 45.9062C146.953 45.1953 147.699 44.6484 148.566 44.2656C149.434 43.8828 150.402 43.6914 151.473 43.6914C152.895 43.6914 154.094 43.9492 155.07 44.4648C156.055 44.9805 156.816 45.6914 157.355 46.5977C157.902 47.5039 158.23 48.5352 158.34 49.6914H154.824C154.785 49.0039 154.648 48.4219 154.414 47.9453C154.18 47.4609 153.824 47.0977 153.348 46.8555C152.879 46.6055 152.254 46.4805 151.473 46.4805C150.887 46.4805 150.375 46.5898 149.938 46.8086C149.5 47.0273 149.133 47.3594 148.836 47.8047C148.539 48.25 148.316 48.8125 148.168 49.4922C148.027 50.1641 147.957 50.9531 147.957 51.8594V53.0664C147.957 53.9492 148.023 54.7266 148.156 55.3984C148.289 56.0625 148.492 56.625 148.766 57.0859C149.047 57.5391 149.406 57.8828 149.844 58.1172C150.289 58.3438 150.824 58.457 151.449 58.457C152.184 58.457 152.789 58.3398 153.266 58.1055C153.742 57.8711 154.105 57.5234 154.355 57.0625C154.613 56.6016 154.766 56.0273 154.812 55.3398ZM163.707 43V61H160.332V43H163.707ZM163.227 54.2148H162.301C162.309 53.332 162.426 52.5195 162.652 51.7773C162.879 51.0273 163.203 50.3789 163.625 49.832C164.047 49.2773 164.551 48.8477 165.137 48.543C165.73 48.2383 166.387 48.0859 167.105 48.0859C167.73 48.0859 168.297 48.1758 168.805 48.3555C169.32 48.5273 169.762 48.8086 170.129 49.1992C170.504 49.582 170.793 50.0859 170.996 50.7109C171.199 51.3359 171.301 52.0938 171.301 52.9844V61H167.902V52.9609C167.902 52.3984 167.82 51.957 167.656 51.6367C167.5 51.3086 167.27 51.0781 166.965 50.9453C166.668 50.8047 166.301 50.7344 165.863 50.7344C165.379 50.7344 164.965 50.8242 164.621 51.0039C164.285 51.1836 164.016 51.4336 163.812 51.7539C163.609 52.0664 163.461 52.4336 163.367 52.8555C163.273 53.2773 163.227 53.7305 163.227 54.2148ZM180.711 58.1406V52.4922C180.711 52.0859 180.645 51.7383 180.512 51.4492C180.379 51.1523 180.172 50.9219 179.891 50.7578C179.617 50.5938 179.262 50.5117 178.824 50.5117C178.449 50.5117 178.125 50.5781 177.852 50.7109C177.578 50.8359 177.367 51.0195 177.219 51.2617C177.07 51.4961 176.996 51.7734 176.996 52.0938H173.621C173.621 51.5547 173.746 51.043 173.996 50.5586C174.246 50.0742 174.609 49.6484 175.086 49.2812C175.562 48.9062 176.129 48.6133 176.785 48.4023C177.449 48.1914 178.191 48.0859 179.012 48.0859C179.996 48.0859 180.871 48.25 181.637 48.5781C182.402 48.9062 183.004 49.3984 183.441 50.0547C183.887 50.7109 184.109 51.5312 184.109 52.5156V57.9414C184.109 58.6367 184.152 59.207 184.238 59.6523C184.324 60.0898 184.449 60.4727 184.613 60.8008V61H181.203C181.039 60.6562 180.914 60.2266 180.828 59.7109C180.75 59.1875 180.711 58.6641 180.711 58.1406ZM181.156 53.2773L181.18 55.1875H179.293C178.848 55.1875 178.461 55.2383 178.133 55.3398C177.805 55.4414 177.535 55.5859 177.324 55.7734C177.113 55.9531 176.957 56.1641 176.855 56.4062C176.762 56.6484 176.715 56.9141 176.715 57.2031C176.715 57.4922 176.781 57.7539 176.914 57.9883C177.047 58.2148 177.238 58.3945 177.488 58.5273C177.738 58.6523 178.031 58.7148 178.367 58.7148C178.875 58.7148 179.316 58.6133 179.691 58.4102C180.066 58.207 180.355 57.957 180.559 57.6602C180.77 57.3633 180.879 57.082 180.887 56.8164L181.777 58.2461C181.652 58.5664 181.48 58.8984 181.262 59.2422C181.051 59.5859 180.781 59.9102 180.453 60.2148C180.125 60.5117 179.73 60.7578 179.27 60.9531C178.809 61.1406 178.262 61.2344 177.629 61.2344C176.824 61.2344 176.094 61.0742 175.438 60.7539C174.789 60.4258 174.273 59.9766 173.891 59.4062C173.516 58.8281 173.328 58.1719 173.328 57.4375C173.328 56.7734 173.453 56.1836 173.703 55.668C173.953 55.1523 174.32 54.7188 174.805 54.3672C175.297 54.0078 175.91 53.7383 176.645 53.5586C177.379 53.3711 178.23 53.2773 179.199 53.2773H181.156ZM190.086 50.7578V65.875H186.711V48.3203H189.84L190.086 50.7578ZM198.113 54.5195V54.7656C198.113 55.6875 198.004 56.543 197.785 57.332C197.574 58.1211 197.262 58.8086 196.848 59.3945C196.434 59.9727 195.918 60.4258 195.301 60.7539C194.691 61.0742 193.988 61.2344 193.191 61.2344C192.418 61.2344 191.746 61.0781 191.176 60.7656C190.605 60.4531 190.125 60.0156 189.734 59.4531C189.352 58.8828 189.043 58.2227 188.809 57.4727C188.574 56.7227 188.395 55.918 188.27 55.0586V54.4141C188.395 53.4922 188.574 52.6484 188.809 51.8828C189.043 51.1094 189.352 50.4414 189.734 49.8789C190.125 49.3086 190.602 48.8672 191.164 48.5547C191.734 48.2422 192.402 48.0859 193.168 48.0859C193.973 48.0859 194.68 48.2383 195.289 48.543C195.906 48.8477 196.422 49.2852 196.836 49.8555C197.258 50.4258 197.574 51.1055 197.785 51.8945C198.004 52.6836 198.113 53.5586 198.113 54.5195ZM194.727 54.7656V54.5195C194.727 53.9805 194.68 53.4844 194.586 53.0312C194.5 52.5703 194.359 52.168 194.164 51.8242C193.977 51.4805 193.727 51.2148 193.414 51.0273C193.109 50.832 192.738 50.7344 192.301 50.7344C191.84 50.7344 191.445 50.8086 191.117 50.957C190.797 51.1055 190.535 51.3203 190.332 51.6016C190.129 51.8828 189.977 52.2188 189.875 52.6094C189.773 53 189.711 53.4414 189.688 53.9336V55.5625C189.727 56.1406 189.836 56.6602 190.016 57.1211C190.195 57.5742 190.473 57.9336 190.848 58.1992C191.223 58.4648 191.715 58.5977 192.324 58.5977C192.77 58.5977 193.145 58.5 193.449 58.3047C193.754 58.1016 194 57.8242 194.188 57.4727C194.383 57.1211 194.52 56.7148 194.598 56.2539C194.684 55.793 194.727 55.2969 194.727 54.7656ZM206.047 61.2344C205.062 61.2344 204.18 61.0781 203.398 60.7656C202.617 60.4453 201.953 60.0039 201.406 59.4414C200.867 58.8789 200.453 58.2266 200.164 57.4844C199.875 56.7344 199.73 55.9375 199.73 55.0938V54.625C199.73 53.6641 199.867 52.7852 200.141 51.9883C200.414 51.1914 200.805 50.5 201.312 49.9141C201.828 49.3281 202.453 48.8789 203.188 48.5664C203.922 48.2461 204.75 48.0859 205.672 48.0859C206.57 48.0859 207.367 48.2344 208.062 48.5312C208.758 48.8281 209.34 49.25 209.809 49.7969C210.285 50.3438 210.645 51 210.887 51.7656C211.129 52.5234 211.25 53.3672 211.25 54.2969V55.7031H201.172V53.4531H207.934V53.1953C207.934 52.7266 207.848 52.3086 207.676 51.9414C207.512 51.5664 207.262 51.2695 206.926 51.0508C206.59 50.832 206.16 50.7227 205.637 50.7227C205.191 50.7227 204.809 50.8203 204.488 51.0156C204.168 51.2109 203.906 51.4844 203.703 51.8359C203.508 52.1875 203.359 52.6016 203.258 53.0781C203.164 53.5469 203.117 54.0625 203.117 54.625V55.0938C203.117 55.6016 203.188 56.0703 203.328 56.5C203.477 56.9297 203.684 57.3008 203.949 57.6133C204.223 57.9258 204.551 58.168 204.934 58.3398C205.324 58.5117 205.766 58.5977 206.258 58.5977C206.867 58.5977 207.434 58.4805 207.957 58.2461C208.488 58.0039 208.945 57.6406 209.328 57.1562L210.969 58.9375C210.703 59.3203 210.34 59.6875 209.879 60.0391C209.426 60.3906 208.879 60.6797 208.238 60.9062C207.598 61.125 206.867 61.2344 206.047 61.2344ZM216.547 51.0859V61H213.172V48.3203H216.348L216.547 51.0859ZM220.367 48.2383L220.309 51.3672C220.145 51.3438 219.945 51.3242 219.711 51.3086C219.484 51.2852 219.277 51.2734 219.09 51.2734C218.613 51.2734 218.199 51.3359 217.848 51.4609C217.504 51.5781 217.215 51.7539 216.98 51.9883C216.754 52.2227 216.582 52.5078 216.465 52.8438C216.355 53.1797 216.293 53.5625 216.277 53.9922L215.598 53.7812C215.598 52.9609 215.68 52.207 215.844 51.5195C216.008 50.8242 216.246 50.2188 216.559 49.7031C216.879 49.1875 217.27 48.7891 217.73 48.5078C218.191 48.2266 218.719 48.0859 219.312 48.0859C219.5 48.0859 219.691 48.1016 219.887 48.1328C220.082 48.1562 220.242 48.1914 220.367 48.2383ZM221.07 54.7891V54.543C221.07 53.6133 221.203 52.7578 221.469 51.9766C221.734 51.1875 222.121 50.5039 222.629 49.9258C223.137 49.3477 223.762 48.8984 224.504 48.5781C225.246 48.25 226.098 48.0859 227.059 48.0859C228.02 48.0859 228.875 48.25 229.625 48.5781C230.375 48.8984 231.004 49.3477 231.512 49.9258C232.027 50.5039 232.418 51.1875 232.684 51.9766C232.949 52.7578 233.082 53.6133 233.082 54.543V54.7891C233.082 55.7109 232.949 56.5664 232.684 57.3555C232.418 58.1367 232.027 58.8203 231.512 59.4062C231.004 59.9844 230.379 60.4336 229.637 60.7539C228.895 61.0742 228.043 61.2344 227.082 61.2344C226.121 61.2344 225.266 61.0742 224.516 60.7539C223.773 60.4336 223.145 59.9844 222.629 59.4062C222.121 58.8203 221.734 58.1367 221.469 57.3555C221.203 56.5664 221.07 55.7109 221.07 54.7891ZM224.445 54.543V54.7891C224.445 55.3203 224.492 55.8164 224.586 56.2773C224.68 56.7383 224.828 57.1445 225.031 57.4961C225.242 57.8398 225.516 58.1094 225.852 58.3047C226.188 58.5 226.598 58.5977 227.082 58.5977C227.551 58.5977 227.953 58.5 228.289 58.3047C228.625 58.1094 228.895 57.8398 229.098 57.4961C229.301 57.1445 229.449 56.7383 229.543 56.2773C229.645 55.8164 229.695 55.3203 229.695 54.7891V54.543C229.695 54.0273 229.645 53.543 229.543 53.0898C229.449 52.6289 229.297 52.2227 229.086 51.8711C228.883 51.5117 228.613 51.2305 228.277 51.0273C227.941 50.8242 227.535 50.7227 227.059 50.7227C226.582 50.7227 226.176 50.8242 225.84 51.0273C225.512 51.2305 225.242 51.5117 225.031 51.8711C224.828 52.2227 224.68 52.6289 224.586 53.0898C224.492 53.543 224.445 54.0273 224.445 54.543ZM238.461 51.0273V61H235.086V48.3203H238.25L238.461 51.0273ZM237.969 54.2148H237.055C237.055 53.2773 237.176 52.4336 237.418 51.6836C237.66 50.9258 238 50.2812 238.438 49.75C238.875 49.2109 239.395 48.8008 239.996 48.5195C240.605 48.2305 241.285 48.0859 242.035 48.0859C242.629 48.0859 243.172 48.1719 243.664 48.3438C244.156 48.5156 244.578 48.7891 244.93 49.1641C245.289 49.5391 245.562 50.0352 245.75 50.6523C245.945 51.2695 246.043 52.0234 246.043 52.9141V61H242.645V52.9023C242.645 52.3398 242.566 51.9023 242.41 51.5898C242.254 51.2773 242.023 51.0586 241.719 50.9336C241.422 50.8008 241.055 50.7344 240.617 50.7344C240.164 50.7344 239.77 50.8242 239.434 51.0039C239.105 51.1836 238.832 51.4336 238.613 51.7539C238.402 52.0664 238.242 52.4336 238.133 52.8555C238.023 53.2773 237.969 53.7305 237.969 54.2148ZM254.445 61.2344C253.461 61.2344 252.578 61.0781 251.797 60.7656C251.016 60.4453 250.352 60.0039 249.805 59.4414C249.266 58.8789 248.852 58.2266 248.562 57.4844C248.273 56.7344 248.129 55.9375 248.129 55.0938V54.625C248.129 53.6641 248.266 52.7852 248.539 51.9883C248.812 51.1914 249.203 50.5 249.711 49.9141C250.227 49.3281 250.852 48.8789 251.586 48.5664C252.32 48.2461 253.148 48.0859 254.07 48.0859C254.969 48.0859 255.766 48.2344 256.461 48.5312C257.156 48.8281 257.738 49.25 258.207 49.7969C258.684 50.3438 259.043 51 259.285 51.7656C259.527 52.5234 259.648 53.3672 259.648 54.2969V55.7031H249.57V53.4531H256.332V53.1953C256.332 52.7266 256.246 52.3086 256.074 51.9414C255.91 51.5664 255.66 51.2695 255.324 51.0508C254.988 50.832 254.559 50.7227 254.035 50.7227C253.59 50.7227 253.207 50.8203 252.887 51.0156C252.566 51.2109 252.305 51.4844 252.102 51.8359C251.906 52.1875 251.758 52.6016 251.656 53.0781C251.562 53.5469 251.516 54.0625 251.516 54.625V55.0938C251.516 55.6016 251.586 56.0703 251.727 56.5C251.875 56.9297 252.082 57.3008 252.348 57.6133C252.621 57.9258 252.949 58.168 253.332 58.3398C253.723 58.5117 254.164 58.5977 254.656 58.5977C255.266 58.5977 255.832 58.4805 256.355 58.2461C256.887 58.0039 257.344 57.6406 257.727 57.1562L259.367 58.9375C259.102 59.3203 258.738 59.6875 258.277 60.0391C257.824 60.3906 257.277 60.6797 256.637 60.9062C255.996 61.125 255.266 61.2344 254.445 61.2344Z" fill="#888888"/>
<path d="M67.3438 84.875V119H59.1406V84.875H67.3438ZM80.7266 99.0078V119H72.8281V93.6406H80.2344L80.7266 99.0078ZM79.7656 105.453L77.9609 105.5C77.9609 103.719 78.1719 102.078 78.5938 100.578C79.0156 99.0781 79.6406 97.7734 80.4688 96.6641C81.2969 95.5547 82.3125 94.6953 83.5156 94.0859C84.7344 93.4766 86.1406 93.1719 87.7344 93.1719C88.8438 93.1719 89.8516 93.3438 90.7578 93.6875C91.6641 94.0156 92.4453 94.5391 93.1016 95.2578C93.7578 95.9609 94.2578 96.8828 94.6016 98.0234C94.9609 99.1484 95.1406 100.5 95.1406 102.078V119H87.2422V103.086C87.2422 102.008 87.1172 101.195 86.8672 100.648C86.6328 100.102 86.2891 99.7344 85.8359 99.5469C85.3828 99.3594 84.8281 99.2656 84.1719 99.2656C83.4844 99.2656 82.8672 99.4219 82.3203 99.7344C81.7734 100.047 81.3047 100.484 80.9141 101.047C80.5391 101.594 80.25 102.242 80.0469 102.992C79.8594 103.742 79.7656 104.562 79.7656 105.453ZM94.25 105.453L92.0469 105.5C92.0469 103.719 92.2422 102.078 92.6328 100.578C93.0391 99.0781 93.6406 97.7734 94.4375 96.6641C95.25 95.5547 96.2578 94.6953 97.4609 94.0859C98.6641 93.4766 100.062 93.1719 101.656 93.1719C102.812 93.1719 103.875 93.3438 104.844 93.6875C105.812 94.0312 106.648 94.5859 107.352 95.3516C108.055 96.1172 108.602 97.1328 108.992 98.3984C109.383 99.6484 109.578 101.195 109.578 103.039V119H101.656V103.039C101.656 101.992 101.531 101.203 101.281 100.672C101.047 100.125 100.703 99.7578 100.25 99.5703C99.7969 99.3672 99.2578 99.2656 98.6328 99.2656C97.8828 99.2656 97.2344 99.4219 96.6875 99.7344C96.1406 100.047 95.6797 100.484 95.3047 101.047C94.9453 101.594 94.6797 102.242 94.5078 102.992C94.3359 103.742 94.25 104.562 94.25 105.453ZM122.07 98.5156V128.75H114.172V93.6406H121.531L122.07 98.5156ZM137.633 106.016V106.508C137.633 108.352 137.422 110.062 137 111.641C136.578 113.219 135.953 114.594 135.125 115.766C134.297 116.938 133.266 117.852 132.031 118.508C130.812 119.148 129.398 119.469 127.789 119.469C126.273 119.469 124.969 119.133 123.875 118.461C122.781 117.789 121.867 116.859 121.133 115.672C120.398 114.484 119.805 113.125 119.352 111.594C118.898 110.062 118.539 108.445 118.273 106.742V106.109C118.539 104.281 118.898 102.586 119.352 101.023C119.805 99.4453 120.398 98.0703 121.133 96.8984C121.867 95.7266 122.773 94.8125 123.852 94.1562C124.945 93.5 126.25 93.1719 127.766 93.1719C129.375 93.1719 130.789 93.4766 132.008 94.0859C133.242 94.6953 134.273 95.5703 135.102 96.7109C135.945 97.8359 136.578 99.1875 137 100.766C137.422 102.344 137.633 104.094 137.633 106.016ZM129.734 106.508V106.016C129.734 105.031 129.664 104.133 129.523 103.32C129.383 102.492 129.156 101.773 128.844 101.164C128.547 100.555 128.148 100.086 127.648 99.7578C127.148 99.4297 126.531 99.2656 125.797 99.2656C124.953 99.2656 124.242 99.3984 123.664 99.6641C123.102 99.9141 122.648 100.305 122.305 100.836C121.977 101.352 121.742 102 121.602 102.781C121.477 103.547 121.422 104.445 121.438 105.477V107.398C121.406 108.586 121.523 109.633 121.789 110.539C122.055 111.43 122.516 112.125 123.172 112.625C123.828 113.125 124.719 113.375 125.844 113.375C126.594 113.375 127.219 113.203 127.719 112.859C128.219 112.5 128.617 112.008 128.914 111.383C129.211 110.742 129.422 110.008 129.547 109.18C129.672 108.352 129.734 107.461 129.734 106.508ZM149.492 83V119H141.57V83H149.492ZM166.648 119.469C164.586 119.469 162.742 119.148 161.117 118.508C159.492 117.852 158.117 116.953 156.992 115.812C155.883 114.672 155.031 113.359 154.438 111.875C153.859 110.391 153.57 108.82 153.57 107.164V106.273C153.57 104.414 153.828 102.695 154.344 101.117C154.859 99.5234 155.625 98.1328 156.641 96.9453C157.656 95.7578 158.93 94.8359 160.461 94.1797C161.992 93.5078 163.773 93.1719 165.805 93.1719C167.602 93.1719 169.211 93.4609 170.633 94.0391C172.055 94.6172 173.258 95.4453 174.242 96.5234C175.242 97.6016 176 98.9062 176.516 100.438C177.047 101.969 177.312 103.688 177.312 105.594V108.805H156.594V103.859H169.602V103.25C169.617 102.406 169.469 101.688 169.156 101.094C168.859 100.5 168.422 100.047 167.844 99.7344C167.266 99.4219 166.562 99.2656 165.734 99.2656C164.875 99.2656 164.164 99.4531 163.602 99.8281C163.055 100.203 162.625 100.719 162.312 101.375C162.016 102.016 161.805 102.758 161.68 103.602C161.555 104.445 161.492 105.336 161.492 106.273V107.164C161.492 108.102 161.617 108.953 161.867 109.719C162.133 110.484 162.508 111.141 162.992 111.688C163.492 112.219 164.086 112.633 164.773 112.93C165.477 113.227 166.273 113.375 167.164 113.375C168.242 113.375 169.305 113.172 170.352 112.766C171.398 112.359 172.297 111.688 173.047 110.75L176.633 115.016C176.117 115.75 175.383 116.461 174.43 117.148C173.492 117.836 172.367 118.398 171.055 118.836C169.742 119.258 168.273 119.469 166.648 119.469ZM188.492 99.0078V119H180.594V93.6406H188L188.492 99.0078ZM187.531 105.453L185.727 105.5C185.727 103.719 185.938 102.078 186.359 100.578C186.781 99.0781 187.406 97.7734 188.234 96.6641C189.062 95.5547 190.078 94.6953 191.281 94.0859C192.5 93.4766 193.906 93.1719 195.5 93.1719C196.609 93.1719 197.617 93.3438 198.523 93.6875C199.43 94.0156 200.211 94.5391 200.867 95.2578C201.523 95.9609 202.023 96.8828 202.367 98.0234C202.727 99.1484 202.906 100.5 202.906 102.078V119H195.008V103.086C195.008 102.008 194.883 101.195 194.633 100.648C194.398 100.102 194.055 99.7344 193.602 99.5469C193.148 99.3594 192.594 99.2656 191.938 99.2656C191.25 99.2656 190.633 99.4219 190.086 99.7344C189.539 100.047 189.07 100.484 188.68 101.047C188.305 101.594 188.016 102.242 187.812 102.992C187.625 103.742 187.531 104.562 187.531 105.453ZM202.016 105.453L199.812 105.5C199.812 103.719 200.008 102.078 200.398 100.578C200.805 99.0781 201.406 97.7734 202.203 96.6641C203.016 95.5547 204.023 94.6953 205.227 94.0859C206.43 93.4766 207.828 93.1719 209.422 93.1719C210.578 93.1719 211.641 93.3438 212.609 93.6875C213.578 94.0312 214.414 94.5859 215.117 95.3516C215.82 96.1172 216.367 97.1328 216.758 98.3984C217.148 99.6484 217.344 101.195 217.344 103.039V119H209.422V103.039C209.422 101.992 209.297 101.203 209.047 100.672C208.812 100.125 208.469 99.7578 208.016 99.5703C207.562 99.3672 207.023 99.2656 206.398 99.2656C205.648 99.2656 205 99.4219 204.453 99.7344C203.906 100.047 203.445 100.484 203.07 101.047C202.711 101.594 202.445 102.242 202.273 102.992C202.102 103.742 202.016 104.562 202.016 105.453ZM234.148 119.469C232.086 119.469 230.242 119.148 228.617 118.508C226.992 117.852 225.617 116.953 224.492 115.812C223.383 114.672 222.531 113.359 221.938 111.875C221.359 110.391 221.07 108.82 221.07 107.164V106.273C221.07 104.414 221.328 102.695 221.844 101.117C222.359 99.5234 223.125 98.1328 224.141 96.9453C225.156 95.7578 226.43 94.8359 227.961 94.1797C229.492 93.5078 231.273 93.1719 233.305 93.1719C235.102 93.1719 236.711 93.4609 238.133 94.0391C239.555 94.6172 240.758 95.4453 241.742 96.5234C242.742 97.6016 243.5 98.9062 244.016 100.438C244.547 101.969 244.812 103.688 244.812 105.594V108.805H224.094V103.859H237.102V103.25C237.117 102.406 236.969 101.688 236.656 101.094C236.359 100.5 235.922 100.047 235.344 99.7344C234.766 99.4219 234.062 99.2656 233.234 99.2656C232.375 99.2656 231.664 99.4531 231.102 99.8281C230.555 100.203 230.125 100.719 229.812 101.375C229.516 102.016 229.305 102.758 229.18 103.602C229.055 104.445 228.992 105.336 228.992 106.273V107.164C228.992 108.102 229.117 108.953 229.367 109.719C229.633 110.484 230.008 111.141 230.492 111.688C230.992 112.219 231.586 112.633 232.273 112.93C232.977 113.227 233.773 113.375 234.664 113.375C235.742 113.375 236.805 113.172 237.852 112.766C238.898 112.359 239.797 111.688 240.547 110.75L244.133 115.016C243.617 115.75 242.883 116.461 241.93 117.148C240.992 117.836 239.867 118.398 238.555 118.836C237.242 119.258 235.773 119.469 234.148 119.469ZM255.781 99.0547V119H247.883V93.6406H255.289L255.781 99.0547ZM254.844 105.453L252.992 105.5C252.992 103.562 253.227 101.836 253.695 100.32C254.164 98.7891 254.828 97.4922 255.688 96.4297C256.547 95.3672 257.57 94.5625 258.758 94.0156C259.961 93.4531 261.297 93.1719 262.766 93.1719C263.938 93.1719 265.008 93.3438 265.977 93.6875C266.961 94.0312 267.805 94.5859 268.508 95.3516C269.227 96.1172 269.773 97.1328 270.148 98.3984C270.539 99.6484 270.734 101.195 270.734 103.039V119H262.789V103.016C262.789 102 262.648 101.227 262.367 100.695C262.086 100.148 261.68 99.7734 261.148 99.5703C260.617 99.3672 259.969 99.2656 259.203 99.2656C258.391 99.2656 257.703 99.4219 257.141 99.7344C256.578 100.047 256.125 100.484 255.781 101.047C255.453 101.594 255.211 102.242 255.055 102.992C254.914 103.742 254.844 104.562 254.844 105.453ZM288.477 93.6406V99.125H273.195V93.6406H288.477ZM276.406 87.3359H284.305V110.727C284.305 111.398 284.383 111.922 284.539 112.297C284.695 112.656 284.961 112.914 285.336 113.07C285.727 113.211 286.242 113.281 286.883 113.281C287.336 113.281 287.711 113.273 288.008 113.258C288.305 113.227 288.586 113.188 288.852 113.141V118.789C288.18 119.008 287.477 119.172 286.742 119.281C286.008 119.406 285.227 119.469 284.398 119.469C282.711 119.469 281.266 119.203 280.062 118.672C278.875 118.141 277.969 117.305 277.344 116.164C276.719 115.023 276.406 113.539 276.406 111.711V87.3359ZM304.789 112.625V102.172C304.789 101.453 304.688 100.836 304.484 100.32C304.281 99.8047 303.961 99.4062 303.523 99.125C303.086 98.8281 302.5 98.6797 301.766 98.6797C301.172 98.6797 300.664 98.7812 300.242 98.9844C299.82 99.1875 299.5 99.4922 299.281 99.8984C299.062 100.305 298.953 100.82 298.953 101.445H291.055C291.055 100.273 291.312 99.1875 291.828 98.1875C292.359 97.1719 293.109 96.2891 294.078 95.5391C295.062 94.7891 296.234 94.2109 297.594 93.8047C298.969 93.3828 300.5 93.1719 302.188 93.1719C304.203 93.1719 306 93.5078 307.578 94.1797C309.172 94.8516 310.43 95.8594 311.352 97.2031C312.273 98.5312 312.734 100.203 312.734 102.219V112.602C312.734 114.258 312.828 115.516 313.016 116.375C313.203 117.219 313.469 117.961 313.812 118.602V119H305.891C305.516 118.219 305.234 117.266 305.047 116.141C304.875 115 304.789 113.828 304.789 112.625ZM305.75 103.508L305.797 107.727H302.305C301.57 107.727 300.945 107.828 300.43 108.031C299.93 108.234 299.523 108.516 299.211 108.875C298.914 109.219 298.695 109.609 298.555 110.047C298.43 110.484 298.367 110.945 298.367 111.43C298.367 111.898 298.477 112.32 298.695 112.695C298.93 113.055 299.242 113.336 299.633 113.539C300.023 113.742 300.461 113.844 300.945 113.844C301.82 113.844 302.562 113.68 303.172 113.352C303.797 113.008 304.273 112.594 304.602 112.109C304.93 111.625 305.094 111.172 305.094 110.75L306.828 113.984C306.516 114.609 306.156 115.242 305.75 115.883C305.359 116.523 304.867 117.117 304.273 117.664C303.695 118.195 302.984 118.633 302.141 118.977C301.297 119.305 300.273 119.469 299.07 119.469C297.508 119.469 296.07 119.148 294.758 118.508C293.461 117.867 292.422 116.977 291.641 115.836C290.859 114.68 290.469 113.352 290.469 111.852C290.469 110.539 290.703 109.367 291.172 108.336C291.656 107.305 292.383 106.43 293.352 105.711C294.32 104.992 295.555 104.445 297.055 104.07C298.555 103.695 300.32 103.508 302.352 103.508H305.75ZM330.477 93.6406V99.125H315.195V93.6406H330.477ZM318.406 87.3359H326.305V110.727C326.305 111.398 326.383 111.922 326.539 112.297C326.695 112.656 326.961 112.914 327.336 113.07C327.727 113.211 328.242 113.281 328.883 113.281C329.336 113.281 329.711 113.273 330.008 113.258C330.305 113.227 330.586 113.188 330.852 113.141V118.789C330.18 119.008 329.477 119.172 328.742 119.281C328.008 119.406 327.227 119.469 326.398 119.469C324.711 119.469 323.266 119.203 322.062 118.672C320.875 118.141 319.969 117.305 319.344 116.164C318.719 115.023 318.406 113.539 318.406 111.711V87.3359ZM341.961 93.6406V119H334.039V93.6406H341.961ZM333.57 87.1016C333.57 85.9766 333.977 85.0547 334.789 84.3359C335.602 83.6172 336.656 83.2578 337.953 83.2578C339.25 83.2578 340.305 83.6172 341.117 84.3359C341.93 85.0547 342.336 85.9766 342.336 87.1016C342.336 88.2266 341.93 89.1484 341.117 89.8672C340.305 90.5859 339.25 90.9453 337.953 90.9453C336.656 90.9453 335.602 90.5859 334.789 89.8672C333.977 89.1484 333.57 88.2266 333.57 87.1016ZM345.852 106.578V106.086C345.852 104.227 346.117 102.516 346.648 100.953C347.18 99.375 347.961 98.0078 348.992 96.8516C350.023 95.6953 351.297 94.7969 352.812 94.1562C354.328 93.5 356.078 93.1719 358.062 93.1719C360.062 93.1719 361.82 93.5 363.336 94.1562C364.867 94.7969 366.148 95.6953 367.18 96.8516C368.211 98.0078 368.992 99.375 369.523 100.953C370.055 102.516 370.32 104.227 370.32 106.086V106.578C370.32 108.422 370.055 110.133 369.523 111.711C368.992 113.273 368.211 114.641 367.18 115.812C366.148 116.969 364.875 117.867 363.359 118.508C361.844 119.148 360.094 119.469 358.109 119.469C356.125 119.469 354.367 119.148 352.836 118.508C351.305 117.867 350.023 116.969 348.992 115.812C347.961 114.641 347.18 113.273 346.648 111.711C346.117 110.133 345.852 108.422 345.852 106.578ZM353.75 106.086V106.578C353.75 107.531 353.82 108.422 353.961 109.25C354.102 110.078 354.336 110.805 354.664 111.43C354.992 112.039 355.438 112.516 356 112.859C356.562 113.203 357.266 113.375 358.109 113.375C358.938 113.375 359.625 113.203 360.172 112.859C360.734 112.516 361.18 112.039 361.508 111.43C361.836 110.805 362.07 110.078 362.211 109.25C362.352 108.422 362.422 107.531 362.422 106.578V106.086C362.422 105.164 362.352 104.297 362.211 103.484C362.07 102.656 361.836 101.93 361.508 101.305C361.18 100.664 360.734 100.164 360.172 99.8047C359.609 99.4453 358.906 99.2656 358.062 99.2656C357.234 99.2656 356.539 99.4453 355.977 99.8047C355.43 100.164 354.992 100.664 354.664 101.305C354.336 101.93 354.102 102.656 353.961 103.484C353.82 104.297 353.75 105.164 353.75 106.086ZM381.594 99.0547V119H373.695V93.6406H381.102L381.594 99.0547ZM380.656 105.453L378.805 105.5C378.805 103.562 379.039 101.836 379.508 100.32C379.977 98.7891 380.641 97.4922 381.5 96.4297C382.359 95.3672 383.383 94.5625 384.57 94.0156C385.773 93.4531 387.109 93.1719 388.578 93.1719C389.75 93.1719 390.82 93.3438 391.789 93.6875C392.773 94.0312 393.617 94.5859 394.32 95.3516C395.039 96.1172 395.586 97.1328 395.961 98.3984C396.352 99.6484 396.547 101.195 396.547 103.039V119H388.602V103.016C388.602 102 388.461 101.227 388.18 100.695C387.898 100.148 387.492 99.7734 386.961 99.5703C386.43 99.3672 385.781 99.2656 385.016 99.2656C384.203 99.2656 383.516 99.4219 382.953 99.7344C382.391 100.047 381.938 100.484 381.594 101.047C381.266 101.594 381.023 102.242 380.867 102.992C380.727 103.742 380.656 104.562 380.656 105.453Z" fill="black"/>
</svg>
