<svg width="1363" height="163" viewBox="0 0 1363 163" fill="none" xmlns="http://www.w3.org/2000/svg">
<path d="M0 15C0 6.71573 6.71573 0 15 0H37V163H15C6.71573 163 0 156.284 0 148V15Z" fill="#424242"/>
<rect width="1097" height="163" transform="translate(37)" fill="#F0F0F0"/>
<path d="M101.906 53.9219L94.3945 51.2383V48.0859L104.602 52.375V54.6367L101.906 53.9219ZM94.3945 56.1719L101.918 53.4297L104.602 52.7852V55.0352L94.3945 59.3242V56.1719ZM122.789 55.3398H126.293C126.223 56.4883 125.906 57.5078 125.344 58.3984C124.789 59.2891 124.012 59.9844 123.012 60.4844C122.02 60.9844 120.824 61.2344 119.426 61.2344C118.332 61.2344 117.352 61.0469 116.484 60.6719C115.617 60.2891 114.875 59.7422 114.258 59.0312C113.648 58.3203 113.184 57.4609 112.863 56.4531C112.543 55.4453 112.383 54.3164 112.383 53.0664V51.8828C112.383 50.6328 112.547 49.5039 112.875 48.4961C113.211 47.4805 113.688 46.6172 114.305 45.9062C114.93 45.1953 115.676 44.6484 116.543 44.2656C117.41 43.8828 118.379 43.6914 119.449 43.6914C120.871 43.6914 122.07 43.9492 123.047 44.4648C124.031 44.9805 124.793 45.6914 125.332 46.5977C125.879 47.5039 126.207 48.5352 126.316 49.6914H122.801C122.762 49.0039 122.625 48.4219 122.391 47.9453C122.156 47.4609 121.801 47.0977 121.324 46.8555C120.855 46.6055 120.23 46.4805 119.449 46.4805C118.863 46.4805 118.352 46.5898 117.914 46.8086C117.477 47.0273 117.109 47.3594 116.812 47.8047C116.516 48.25 116.293 48.8125 116.145 49.4922C116.004 50.1641 115.934 50.9531 115.934 51.8594V53.0664C115.934 53.9492 116 54.7266 116.133 55.3984C116.266 56.0625 116.469 56.625 116.742 57.0859C117.023 57.5391 117.383 57.8828 117.82 58.1172C118.266 58.3438 118.801 58.457 119.426 58.457C120.16 58.457 120.766 58.3398 121.242 58.1055C121.719 57.8711 122.082 57.5234 122.332 57.0625C122.59 56.6016 122.742 56.0273 122.789 55.3398ZM132.152 59.5703L135.516 48.3203H139.137L134.039 62.9102C133.93 63.2305 133.781 63.5742 133.594 63.9414C133.414 64.3086 133.168 64.6562 132.855 64.9844C132.551 65.3203 132.164 65.5938 131.695 65.8047C131.234 66.0156 130.668 66.1211 129.996 66.1211C129.676 66.1211 129.414 66.1016 129.211 66.0625C129.008 66.0234 128.766 65.9688 128.484 65.8984V63.4258C128.57 63.4258 128.66 63.4258 128.754 63.4258C128.848 63.4336 128.938 63.4375 129.023 63.4375C129.469 63.4375 129.832 63.3867 130.113 63.2852C130.395 63.1836 130.621 63.0273 130.793 62.8164C130.965 62.6133 131.102 62.3477 131.203 62.0195L132.152 59.5703ZM130.746 48.3203L133.5 57.5078L133.98 61.082L131.684 61.3281L127.125 48.3203H130.746ZM140.484 43H143.859V58.0938L143.52 61H140.484V43ZM151.887 54.5312V54.7773C151.887 55.7227 151.785 56.5898 151.582 57.3789C151.387 58.168 151.082 58.8516 150.668 59.4297C150.254 60 149.738 60.4453 149.121 60.7656C148.512 61.0781 147.793 61.2344 146.965 61.2344C146.191 61.2344 145.52 61.0781 144.949 60.7656C144.387 60.4531 143.914 60.0117 143.531 59.4414C143.148 58.8711 142.84 58.2031 142.605 57.4375C142.371 56.6719 142.195 55.8359 142.078 54.9297V54.3906C142.195 53.4844 142.371 52.6484 142.605 51.8828C142.84 51.1172 143.148 50.4492 143.531 49.8789C143.914 49.3086 144.387 48.8672 144.949 48.5547C145.512 48.2422 146.176 48.0859 146.941 48.0859C147.777 48.0859 148.504 48.2461 149.121 48.5664C149.746 48.8789 150.262 49.3242 150.668 49.9023C151.082 50.4727 151.387 51.1523 151.582 51.9414C151.785 52.7227 151.887 53.5859 151.887 54.5312ZM148.512 54.7773V54.5312C148.512 54.0156 148.473 53.5312 148.395 53.0781C148.324 52.6172 148.199 52.2148 148.02 51.8711C147.84 51.5195 147.594 51.2422 147.281 51.0391C146.977 50.8359 146.582 50.7344 146.098 50.7344C145.637 50.7344 145.246 50.8125 144.926 50.9688C144.605 51.125 144.34 51.3438 144.129 51.625C143.926 51.9062 143.773 52.2422 143.672 52.6328C143.57 53.0156 143.508 53.4375 143.484 53.8984V55.4336C143.508 56.0508 143.609 56.5977 143.789 57.0742C143.977 57.543 144.258 57.9141 144.633 58.1875C145.016 58.4531 145.512 58.5859 146.121 58.5859C146.598 58.5859 146.992 58.4922 147.305 58.3047C147.617 58.1172 147.859 57.8516 148.031 57.5078C148.211 57.1641 148.336 56.7617 148.406 56.3008C148.477 55.832 148.512 55.3242 148.512 54.7773ZM159.82 61.2344C158.836 61.2344 157.953 61.0781 157.172 60.7656C156.391 60.4453 155.727 60.0039 155.18 59.4414C154.641 58.8789 154.227 58.2266 153.938 57.4844C153.648 56.7344 153.504 55.9375 153.504 55.0938V54.625C153.504 53.6641 153.641 52.7852 153.914 51.9883C154.188 51.1914 154.578 50.5 155.086 49.9141C155.602 49.3281 156.227 48.8789 156.961 48.5664C157.695 48.2461 158.523 48.0859 159.445 48.0859C160.344 48.0859 161.141 48.2344 161.836 48.5312C162.531 48.8281 163.113 49.25 163.582 49.7969C164.059 50.3438 164.418 51 164.66 51.7656C164.902 52.5234 165.023 53.3672 165.023 54.2969V55.7031H154.945V53.4531H161.707V53.1953C161.707 52.7266 161.621 52.3086 161.449 51.9414C161.285 51.5664 161.035 51.2695 160.699 51.0508C160.363 50.832 159.934 50.7227 159.41 50.7227C158.965 50.7227 158.582 50.8203 158.262 51.0156C157.941 51.2109 157.68 51.4844 157.477 51.8359C157.281 52.1875 157.133 52.6016 157.031 53.0781C156.938 53.5469 156.891 54.0625 156.891 54.625V55.0938C156.891 55.6016 156.961 56.0703 157.102 56.5C157.25 56.9297 157.457 57.3008 157.723 57.6133C157.996 57.9258 158.324 58.168 158.707 58.3398C159.098 58.5117 159.539 58.5977 160.031 58.5977C160.641 58.5977 161.207 58.4805 161.73 58.2461C162.262 58.0039 162.719 57.6406 163.102 57.1562L164.742 58.9375C164.477 59.3203 164.113 59.6875 163.652 60.0391C163.199 60.3906 162.652 60.6797 162.012 60.9062C161.371 61.125 160.641 61.2344 159.82 61.2344ZM170.32 51.0859V61H166.945V48.3203H170.121L170.32 51.0859ZM174.141 48.2383L174.082 51.3672C173.918 51.3438 173.719 51.3242 173.484 51.3086C173.258 51.2852 173.051 51.2734 172.863 51.2734C172.387 51.2734 171.973 51.3359 171.621 51.4609C171.277 51.5781 170.988 51.7539 170.754 51.9883C170.527 52.2227 170.355 52.5078 170.238 52.8438C170.129 53.1797 170.066 53.5625 170.051 53.9922L169.371 53.7812C169.371 52.9609 169.453 52.207 169.617 51.5195C169.781 50.8242 170.02 50.2188 170.332 49.7031C170.652 49.1875 171.043 48.7891 171.504 48.5078C171.965 48.2266 172.492 48.0859 173.086 48.0859C173.273 48.0859 173.465 48.1016 173.66 48.1328C173.855 48.1562 174.016 48.1914 174.141 48.2383ZM191.812 55.3398H195.316C195.246 56.4883 194.93 57.5078 194.367 58.3984C193.812 59.2891 193.035 59.9844 192.035 60.4844C191.043 60.9844 189.848 61.2344 188.449 61.2344C187.355 61.2344 186.375 61.0469 185.508 60.6719C184.641 60.2891 183.898 59.7422 183.281 59.0312C182.672 58.3203 182.207 57.4609 181.887 56.4531C181.566 55.4453 181.406 54.3164 181.406 53.0664V51.8828C181.406 50.6328 181.57 49.5039 181.898 48.4961C182.234 47.4805 182.711 46.6172 183.328 45.9062C183.953 45.1953 184.699 44.6484 185.566 44.2656C186.434 43.8828 187.402 43.6914 188.473 43.6914C189.895 43.6914 191.094 43.9492 192.07 44.4648C193.055 44.9805 193.816 45.6914 194.355 46.5977C194.902 47.5039 195.23 48.5352 195.34 49.6914H191.824C191.785 49.0039 191.648 48.4219 191.414 47.9453C191.18 47.4609 190.824 47.0977 190.348 46.8555C189.879 46.6055 189.254 46.4805 188.473 46.4805C187.887 46.4805 187.375 46.5898 186.938 46.8086C186.5 47.0273 186.133 47.3594 185.836 47.8047C185.539 48.25 185.316 48.8125 185.168 49.4922C185.027 50.1641 184.957 50.9531 184.957 51.8594V53.0664C184.957 53.9492 185.023 54.7266 185.156 55.3984C185.289 56.0625 185.492 56.625 185.766 57.0859C186.047 57.5391 186.406 57.8828 186.844 58.1172C187.289 58.3438 187.824 58.457 188.449 58.457C189.184 58.457 189.789 58.3398 190.266 58.1055C190.742 57.8711 191.105 57.5234 191.355 57.0625C191.613 56.6016 191.766 56.0273 191.812 55.3398ZM200.707 43V61H197.332V43H200.707ZM200.227 54.2148H199.301C199.309 53.332 199.426 52.5195 199.652 51.7773C199.879 51.0273 200.203 50.3789 200.625 49.832C201.047 49.2773 201.551 48.8477 202.137 48.543C202.73 48.2383 203.387 48.0859 204.105 48.0859C204.73 48.0859 205.297 48.1758 205.805 48.3555C206.32 48.5273 206.762 48.8086 207.129 49.1992C207.504 49.582 207.793 50.0859 207.996 50.7109C208.199 51.3359 208.301 52.0938 208.301 52.9844V61H204.902V52.9609C204.902 52.3984 204.82 51.957 204.656 51.6367C204.5 51.3086 204.27 51.0781 203.965 50.9453C203.668 50.8047 203.301 50.7344 202.863 50.7344C202.379 50.7344 201.965 50.8242 201.621 51.0039C201.285 51.1836 201.016 51.4336 200.812 51.7539C200.609 52.0664 200.461 52.4336 200.367 52.8555C200.273 53.2773 200.227 53.7305 200.227 54.2148ZM217.711 58.1406V52.4922C217.711 52.0859 217.645 51.7383 217.512 51.4492C217.379 51.1523 217.172 50.9219 216.891 50.7578C216.617 50.5938 216.262 50.5117 215.824 50.5117C215.449 50.5117 215.125 50.5781 214.852 50.7109C214.578 50.8359 214.367 51.0195 214.219 51.2617C214.07 51.4961 213.996 51.7734 213.996 52.0938H210.621C210.621 51.5547 210.746 51.043 210.996 50.5586C211.246 50.0742 211.609 49.6484 212.086 49.2812C212.562 48.9062 213.129 48.6133 213.785 48.4023C214.449 48.1914 215.191 48.0859 216.012 48.0859C216.996 48.0859 217.871 48.25 218.637 48.5781C219.402 48.9062 220.004 49.3984 220.441 50.0547C220.887 50.7109 221.109 51.5312 221.109 52.5156V57.9414C221.109 58.6367 221.152 59.207 221.238 59.6523C221.324 60.0898 221.449 60.4727 221.613 60.8008V61H218.203C218.039 60.6562 217.914 60.2266 217.828 59.7109C217.75 59.1875 217.711 58.6641 217.711 58.1406ZM218.156 53.2773L218.18 55.1875H216.293C215.848 55.1875 215.461 55.2383 215.133 55.3398C214.805 55.4414 214.535 55.5859 214.324 55.7734C214.113 55.9531 213.957 56.1641 213.855 56.4062C213.762 56.6484 213.715 56.9141 213.715 57.2031C213.715 57.4922 213.781 57.7539 213.914 57.9883C214.047 58.2148 214.238 58.3945 214.488 58.5273C214.738 58.6523 215.031 58.7148 215.367 58.7148C215.875 58.7148 216.316 58.6133 216.691 58.4102C217.066 58.207 217.355 57.957 217.559 57.6602C217.77 57.3633 217.879 57.082 217.887 56.8164L218.777 58.2461C218.652 58.5664 218.48 58.8984 218.262 59.2422C218.051 59.5859 217.781 59.9102 217.453 60.2148C217.125 60.5117 216.73 60.7578 216.27 60.9531C215.809 61.1406 215.262 61.2344 214.629 61.2344C213.824 61.2344 213.094 61.0742 212.438 60.7539C211.789 60.4258 211.273 59.9766 210.891 59.4062C210.516 58.8281 210.328 58.1719 210.328 57.4375C210.328 56.7734 210.453 56.1836 210.703 55.668C210.953 55.1523 211.32 54.7188 211.805 54.3672C212.297 54.0078 212.91 53.7383 213.645 53.5586C214.379 53.3711 215.23 53.2773 216.199 53.2773H218.156ZM227.086 50.7578V65.875H223.711V48.3203H226.84L227.086 50.7578ZM235.113 54.5195V54.7656C235.113 55.6875 235.004 56.543 234.785 57.332C234.574 58.1211 234.262 58.8086 233.848 59.3945C233.434 59.9727 232.918 60.4258 232.301 60.7539C231.691 61.0742 230.988 61.2344 230.191 61.2344C229.418 61.2344 228.746 61.0781 228.176 60.7656C227.605 60.4531 227.125 60.0156 226.734 59.4531C226.352 58.8828 226.043 58.2227 225.809 57.4727C225.574 56.7227 225.395 55.918 225.27 55.0586V54.4141C225.395 53.4922 225.574 52.6484 225.809 51.8828C226.043 51.1094 226.352 50.4414 226.734 49.8789C227.125 49.3086 227.602 48.8672 228.164 48.5547C228.734 48.2422 229.402 48.0859 230.168 48.0859C230.973 48.0859 231.68 48.2383 232.289 48.543C232.906 48.8477 233.422 49.2852 233.836 49.8555C234.258 50.4258 234.574 51.1055 234.785 51.8945C235.004 52.6836 235.113 53.5586 235.113 54.5195ZM231.727 54.7656V54.5195C231.727 53.9805 231.68 53.4844 231.586 53.0312C231.5 52.5703 231.359 52.168 231.164 51.8242C230.977 51.4805 230.727 51.2148 230.414 51.0273C230.109 50.832 229.738 50.7344 229.301 50.7344C228.84 50.7344 228.445 50.8086 228.117 50.957C227.797 51.1055 227.535 51.3203 227.332 51.6016C227.129 51.8828 226.977 52.2188 226.875 52.6094C226.773 53 226.711 53.4414 226.688 53.9336V55.5625C226.727 56.1406 226.836 56.6602 227.016 57.1211C227.195 57.5742 227.473 57.9336 227.848 58.1992C228.223 58.4648 228.715 58.5977 229.324 58.5977C229.77 58.5977 230.145 58.5 230.449 58.3047C230.754 58.1016 231 57.8242 231.188 57.4727C231.383 57.1211 231.52 56.7148 231.598 56.2539C231.684 55.793 231.727 55.2969 231.727 54.7656ZM243.047 61.2344C242.062 61.2344 241.18 61.0781 240.398 60.7656C239.617 60.4453 238.953 60.0039 238.406 59.4414C237.867 58.8789 237.453 58.2266 237.164 57.4844C236.875 56.7344 236.73 55.9375 236.73 55.0938V54.625C236.73 53.6641 236.867 52.7852 237.141 51.9883C237.414 51.1914 237.805 50.5 238.312 49.9141C238.828 49.3281 239.453 48.8789 240.188 48.5664C240.922 48.2461 241.75 48.0859 242.672 48.0859C243.57 48.0859 244.367 48.2344 245.062 48.5312C245.758 48.8281 246.34 49.25 246.809 49.7969C247.285 50.3438 247.645 51 247.887 51.7656C248.129 52.5234 248.25 53.3672 248.25 54.2969V55.7031H238.172V53.4531H244.934V53.1953C244.934 52.7266 244.848 52.3086 244.676 51.9414C244.512 51.5664 244.262 51.2695 243.926 51.0508C243.59 50.832 243.16 50.7227 242.637 50.7227C242.191 50.7227 241.809 50.8203 241.488 51.0156C241.168 51.2109 240.906 51.4844 240.703 51.8359C240.508 52.1875 240.359 52.6016 240.258 53.0781C240.164 53.5469 240.117 54.0625 240.117 54.625V55.0938C240.117 55.6016 240.188 56.0703 240.328 56.5C240.477 56.9297 240.684 57.3008 240.949 57.6133C241.223 57.9258 241.551 58.168 241.934 58.3398C242.324 58.5117 242.766 58.5977 243.258 58.5977C243.867 58.5977 244.434 58.4805 244.957 58.2461C245.488 58.0039 245.945 57.6406 246.328 57.1562L247.969 58.9375C247.703 59.3203 247.34 59.6875 246.879 60.0391C246.426 60.3906 245.879 60.6797 245.238 60.9062C244.598 61.125 243.867 61.2344 243.047 61.2344ZM253.547 51.0859V61H250.172V48.3203H253.348L253.547 51.0859ZM257.367 48.2383L257.309 51.3672C257.145 51.3438 256.945 51.3242 256.711 51.3086C256.484 51.2852 256.277 51.2734 256.09 51.2734C255.613 51.2734 255.199 51.3359 254.848 51.4609C254.504 51.5781 254.215 51.7539 253.98 51.9883C253.754 52.2227 253.582 52.5078 253.465 52.8438C253.355 53.1797 253.293 53.5625 253.277 53.9922L252.598 53.7812C252.598 52.9609 252.68 52.207 252.844 51.5195C253.008 50.8242 253.246 50.2188 253.559 49.7031C253.879 49.1875 254.27 48.7891 254.73 48.5078C255.191 48.2266 255.719 48.0859 256.312 48.0859C256.5 48.0859 256.691 48.1016 256.887 48.1328C257.082 48.1562 257.242 48.1914 257.367 48.2383ZM258.07 54.7891V54.543C258.07 53.6133 258.203 52.7578 258.469 51.9766C258.734 51.1875 259.121 50.5039 259.629 49.9258C260.137 49.3477 260.762 48.8984 261.504 48.5781C262.246 48.25 263.098 48.0859 264.059 48.0859C265.02 48.0859 265.875 48.25 266.625 48.5781C267.375 48.8984 268.004 49.3477 268.512 49.9258C269.027 50.5039 269.418 51.1875 269.684 51.9766C269.949 52.7578 270.082 53.6133 270.082 54.543V54.7891C270.082 55.7109 269.949 56.5664 269.684 57.3555C269.418 58.1367 269.027 58.8203 268.512 59.4062C268.004 59.9844 267.379 60.4336 266.637 60.7539C265.895 61.0742 265.043 61.2344 264.082 61.2344C263.121 61.2344 262.266 61.0742 261.516 60.7539C260.773 60.4336 260.145 59.9844 259.629 59.4062C259.121 58.8203 258.734 58.1367 258.469 57.3555C258.203 56.5664 258.07 55.7109 258.07 54.7891ZM261.445 54.543V54.7891C261.445 55.3203 261.492 55.8164 261.586 56.2773C261.68 56.7383 261.828 57.1445 262.031 57.4961C262.242 57.8398 262.516 58.1094 262.852 58.3047C263.188 58.5 263.598 58.5977 264.082 58.5977C264.551 58.5977 264.953 58.5 265.289 58.3047C265.625 58.1094 265.895 57.8398 266.098 57.4961C266.301 57.1445 266.449 56.7383 266.543 56.2773C266.645 55.8164 266.695 55.3203 266.695 54.7891V54.543C266.695 54.0273 266.645 53.543 266.543 53.0898C266.449 52.6289 266.297 52.2227 266.086 51.8711C265.883 51.5117 265.613 51.2305 265.277 51.0273C264.941 50.8242 264.535 50.7227 264.059 50.7227C263.582 50.7227 263.176 50.8242 262.84 51.0273C262.512 51.2305 262.242 51.5117 262.031 51.8711C261.828 52.2227 261.68 52.6289 261.586 53.0898C261.492 53.543 261.445 54.0273 261.445 54.543ZM275.461 51.0273V61H272.086V48.3203H275.25L275.461 51.0273ZM274.969 54.2148H274.055C274.055 53.2773 274.176 52.4336 274.418 51.6836C274.66 50.9258 275 50.2812 275.438 49.75C275.875 49.2109 276.395 48.8008 276.996 48.5195C277.605 48.2305 278.285 48.0859 279.035 48.0859C279.629 48.0859 280.172 48.1719 280.664 48.3438C281.156 48.5156 281.578 48.7891 281.93 49.1641C282.289 49.5391 282.562 50.0352 282.75 50.6523C282.945 51.2695 283.043 52.0234 283.043 52.9141V61H279.645V52.9023C279.645 52.3398 279.566 51.9023 279.41 51.5898C279.254 51.2773 279.023 51.0586 278.719 50.9336C278.422 50.8008 278.055 50.7344 277.617 50.7344C277.164 50.7344 276.77 50.8242 276.434 51.0039C276.105 51.1836 275.832 51.4336 275.613 51.7539C275.402 52.0664 275.242 52.4336 275.133 52.8555C275.023 53.2773 274.969 53.7305 274.969 54.2148ZM291.445 61.2344C290.461 61.2344 289.578 61.0781 288.797 60.7656C288.016 60.4453 287.352 60.0039 286.805 59.4414C286.266 58.8789 285.852 58.2266 285.562 57.4844C285.273 56.7344 285.129 55.9375 285.129 55.0938V54.625C285.129 53.6641 285.266 52.7852 285.539 51.9883C285.812 51.1914 286.203 50.5 286.711 49.9141C287.227 49.3281 287.852 48.8789 288.586 48.5664C289.32 48.2461 290.148 48.0859 291.07 48.0859C291.969 48.0859 292.766 48.2344 293.461 48.5312C294.156 48.8281 294.738 49.25 295.207 49.7969C295.684 50.3438 296.043 51 296.285 51.7656C296.527 52.5234 296.648 53.3672 296.648 54.2969V55.7031H286.57V53.4531H293.332V53.1953C293.332 52.7266 293.246 52.3086 293.074 51.9414C292.91 51.5664 292.66 51.2695 292.324 51.0508C291.988 50.832 291.559 50.7227 291.035 50.7227C290.59 50.7227 290.207 50.8203 289.887 51.0156C289.566 51.2109 289.305 51.4844 289.102 51.8359C288.906 52.1875 288.758 52.6016 288.656 53.0781C288.562 53.5469 288.516 54.0625 288.516 54.625V55.0938C288.516 55.6016 288.586 56.0703 288.727 56.5C288.875 56.9297 289.082 57.3008 289.348 57.6133C289.621 57.9258 289.949 58.168 290.332 58.3398C290.723 58.5117 291.164 58.5977 291.656 58.5977C292.266 58.5977 292.832 58.4805 293.355 58.2461C293.887 58.0039 294.344 57.6406 294.727 57.1562L296.367 58.9375C296.102 59.3203 295.738 59.6875 295.277 60.0391C294.824 60.3906 294.277 60.6797 293.637 60.9062C292.996 61.125 292.266 61.2344 291.445 61.2344Z" fill="#888888"/>
<path d="M112.125 84.875V119H103.898V84.875H112.125ZM122.391 84.875V91.2266H93.8672V84.875H122.391ZM134.695 112.625V102.172C134.695 101.453 134.594 100.836 134.391 100.32C134.188 99.8047 133.867 99.4062 133.43 99.125C132.992 98.8281 132.406 98.6797 131.672 98.6797C131.078 98.6797 130.57 98.7812 130.148 98.9844C129.727 99.1875 129.406 99.4922 129.188 99.8984C128.969 100.305 128.859 100.82 128.859 101.445H120.961C120.961 100.273 121.219 99.1875 121.734 98.1875C122.266 97.1719 123.016 96.2891 123.984 95.5391C124.969 94.7891 126.141 94.2109 127.5 93.8047C128.875 93.3828 130.406 93.1719 132.094 93.1719C134.109 93.1719 135.906 93.5078 137.484 94.1797C139.078 94.8516 140.336 95.8594 141.258 97.2031C142.18 98.5312 142.641 100.203 142.641 102.219V112.602C142.641 114.258 142.734 115.516 142.922 116.375C143.109 117.219 143.375 117.961 143.719 118.602V119H135.797C135.422 118.219 135.141 117.266 134.953 116.141C134.781 115 134.695 113.828 134.695 112.625ZM135.656 103.508L135.703 107.727H132.211C131.477 107.727 130.852 107.828 130.336 108.031C129.836 108.234 129.43 108.516 129.117 108.875C128.82 109.219 128.602 109.609 128.461 110.047C128.336 110.484 128.273 110.945 128.273 111.43C128.273 111.898 128.383 112.32 128.602 112.695C128.836 113.055 129.148 113.336 129.539 113.539C129.93 113.742 130.367 113.844 130.852 113.844C131.727 113.844 132.469 113.68 133.078 113.352C133.703 113.008 134.18 112.594 134.508 112.109C134.836 111.625 135 111.172 135 110.75L136.734 113.984C136.422 114.609 136.062 115.242 135.656 115.883C135.266 116.523 134.773 117.117 134.18 117.664C133.602 118.195 132.891 118.633 132.047 118.977C131.203 119.305 130.18 119.469 128.977 119.469C127.414 119.469 125.977 119.148 124.664 118.508C123.367 117.867 122.328 116.977 121.547 115.836C120.766 114.68 120.375 113.352 120.375 111.852C120.375 110.539 120.609 109.367 121.078 108.336C121.562 107.305 122.289 106.43 123.258 105.711C124.227 104.992 125.461 104.445 126.961 104.07C128.461 103.695 130.227 103.508 132.258 103.508H135.656ZM147.094 83H154.992V112.766L154.172 119H147.094V83ZM170.555 106.039V106.531C170.555 108.453 170.359 110.203 169.969 111.781C169.578 113.359 168.977 114.727 168.164 115.883C167.352 117.023 166.328 117.906 165.094 118.531C163.859 119.156 162.398 119.469 160.711 119.469C159.18 119.469 157.867 119.141 156.773 118.484C155.68 117.812 154.766 116.891 154.031 115.719C153.297 114.531 152.703 113.164 152.25 111.617C151.797 110.055 151.438 108.383 151.172 106.602V106.016C151.438 104.25 151.797 102.594 152.25 101.047C152.703 99.4844 153.297 98.1172 154.031 96.9453C154.766 95.7578 155.672 94.8359 156.75 94.1797C157.844 93.5078 159.148 93.1719 160.664 93.1719C162.367 93.1719 163.836 93.4922 165.07 94.1328C166.32 94.7734 167.352 95.6719 168.164 96.8281C168.977 97.9844 169.578 99.3438 169.969 100.906C170.359 102.469 170.555 104.18 170.555 106.039ZM162.656 106.531V106.039C162.656 105.117 162.602 104.25 162.492 103.438C162.383 102.625 162.188 101.906 161.906 101.281C161.625 100.656 161.227 100.164 160.711 99.8047C160.195 99.4453 159.523 99.2656 158.695 99.2656C157.852 99.2656 157.141 99.4062 156.562 99.6875C156 99.9688 155.547 100.375 155.203 100.906C154.875 101.422 154.641 102.062 154.5 102.828C154.359 103.578 154.297 104.43 154.312 105.383V107.234C154.281 108.531 154.398 109.641 154.664 110.562C154.93 111.484 155.391 112.188 156.047 112.672C156.703 113.156 157.602 113.398 158.742 113.398C159.586 113.398 160.266 113.234 160.781 112.906C161.312 112.578 161.711 112.109 161.977 111.5C162.242 110.891 162.422 110.164 162.516 109.32C162.609 108.477 162.656 107.547 162.656 106.531ZM182.414 83V119H174.492V83H182.414ZM199.57 119.469C197.508 119.469 195.664 119.148 194.039 118.508C192.414 117.852 191.039 116.953 189.914 115.812C188.805 114.672 187.953 113.359 187.359 111.875C186.781 110.391 186.492 108.82 186.492 107.164V106.273C186.492 104.414 186.75 102.695 187.266 101.117C187.781 99.5234 188.547 98.1328 189.562 96.9453C190.578 95.7578 191.852 94.8359 193.383 94.1797C194.914 93.5078 196.695 93.1719 198.727 93.1719C200.523 93.1719 202.133 93.4609 203.555 94.0391C204.977 94.6172 206.18 95.4453 207.164 96.5234C208.164 97.6016 208.922 98.9062 209.438 100.438C209.969 101.969 210.234 103.688 210.234 105.594V108.805H189.516V103.859H202.523V103.25C202.539 102.406 202.391 101.688 202.078 101.094C201.781 100.5 201.344 100.047 200.766 99.7344C200.188 99.4219 199.484 99.2656 198.656 99.2656C197.797 99.2656 197.086 99.4531 196.523 99.8281C195.977 100.203 195.547 100.719 195.234 101.375C194.938 102.016 194.727 102.758 194.602 103.602C194.477 104.445 194.414 105.336 194.414 106.273V107.164C194.414 108.102 194.539 108.953 194.789 109.719C195.055 110.484 195.43 111.141 195.914 111.688C196.414 112.219 197.008 112.633 197.695 112.93C198.398 113.227 199.195 113.375 200.086 113.375C201.164 113.375 202.227 113.172 203.273 112.766C204.32 112.359 205.219 111.688 205.969 110.75L209.555 115.016C209.039 115.75 208.305 116.461 207.352 117.148C206.414 117.836 205.289 118.398 203.977 118.836C202.664 119.258 201.195 119.469 199.57 119.469ZM224.414 106.578V106.086C224.414 104.227 224.68 102.516 225.211 100.953C225.742 99.375 226.523 98.0078 227.555 96.8516C228.586 95.6953 229.859 94.7969 231.375 94.1562C232.891 93.5 234.641 93.1719 236.625 93.1719C238.625 93.1719 240.383 93.5 241.898 94.1562C243.43 94.7969 244.711 95.6953 245.742 96.8516C246.773 98.0078 247.555 99.375 248.086 100.953C248.617 102.516 248.883 104.227 248.883 106.086V106.578C248.883 108.422 248.617 110.133 248.086 111.711C247.555 113.273 246.773 114.641 245.742 115.812C244.711 116.969 243.438 117.867 241.922 118.508C240.406 119.148 238.656 119.469 236.672 119.469C234.688 119.469 232.93 119.148 231.398 118.508C229.867 117.867 228.586 116.969 227.555 115.812C226.523 114.641 225.742 113.273 225.211 111.711C224.68 110.133 224.414 108.422 224.414 106.578ZM232.312 106.086V106.578C232.312 107.531 232.383 108.422 232.523 109.25C232.664 110.078 232.898 110.805 233.227 111.43C233.555 112.039 234 112.516 234.562 112.859C235.125 113.203 235.828 113.375 236.672 113.375C237.5 113.375 238.188 113.203 238.734 112.859C239.297 112.516 239.742 112.039 240.07 111.43C240.398 110.805 240.633 110.078 240.773 109.25C240.914 108.422 240.984 107.531 240.984 106.578V106.086C240.984 105.164 240.914 104.297 240.773 103.484C240.633 102.656 240.398 101.93 240.07 101.305C239.742 100.664 239.297 100.164 238.734 99.8047C238.172 99.4453 237.469 99.2656 236.625 99.2656C235.797 99.2656 235.102 99.4453 234.539 99.8047C233.992 100.164 233.555 100.664 233.227 101.305C232.898 101.93 232.664 102.656 232.523 103.484C232.383 104.297 232.312 105.164 232.312 106.086ZM262.078 119H254.133V91.5781C254.133 89.6094 254.531 87.9531 255.328 86.6094C256.125 85.2656 257.25 84.25 258.703 83.5625C260.156 82.8594 261.875 82.5078 263.859 82.5078C264.547 82.5078 265.195 82.5547 265.805 82.6484C266.414 82.7422 267.008 82.8594 267.586 83L267.609 88.8125C267.328 88.7344 267.039 88.6797 266.742 88.6484C266.445 88.6172 266.078 88.6016 265.641 88.6016C264.875 88.6016 264.227 88.7188 263.695 88.9531C263.164 89.1719 262.758 89.5078 262.477 89.9609C262.211 90.3984 262.078 90.9375 262.078 91.5781V119ZM267 93.6406V99.125H250.477V93.6406H267ZM301.57 107.445H309.773C309.664 109.82 309.023 111.914 307.852 113.727C306.68 115.539 305.055 116.953 302.977 117.969C300.914 118.969 298.477 119.469 295.664 119.469C293.383 119.469 291.344 119.086 289.547 118.32C287.766 117.555 286.25 116.453 285 115.016C283.766 113.578 282.82 111.836 282.164 109.789C281.523 107.742 281.203 105.438 281.203 102.875V101.023C281.203 98.4609 281.539 96.1562 282.211 94.1094C282.898 92.0469 283.867 90.2969 285.117 88.8594C286.383 87.4062 287.898 86.2969 289.664 85.5312C291.43 84.7656 293.391 84.3828 295.547 84.3828C298.516 84.3828 301.023 84.9141 303.07 85.9766C305.117 87.0391 306.703 88.5 307.828 90.3594C308.953 92.2031 309.617 94.3047 309.82 96.6641H301.617C301.586 95.3828 301.367 94.3125 300.961 93.4531C300.555 92.5781 299.914 91.9219 299.039 91.4844C298.164 91.0469 297 90.8281 295.547 90.8281C294.531 90.8281 293.648 91.0156 292.898 91.3906C292.148 91.7656 291.523 92.3594 291.023 93.1719C290.523 93.9844 290.148 95.0391 289.898 96.3359C289.664 97.6172 289.547 99.1641 289.547 100.977V102.875C289.547 104.688 289.656 106.234 289.875 107.516C290.094 108.797 290.445 109.844 290.93 110.656C291.414 111.469 292.039 112.07 292.805 112.461C293.586 112.836 294.539 113.023 295.664 113.023C296.914 113.023 297.969 112.828 298.828 112.438C299.688 112.031 300.352 111.422 300.82 110.609C301.289 109.781 301.539 108.727 301.57 107.445ZM312.305 106.578V106.086C312.305 104.227 312.57 102.516 313.102 100.953C313.633 99.375 314.414 98.0078 315.445 96.8516C316.477 95.6953 317.75 94.7969 319.266 94.1562C320.781 93.5 322.531 93.1719 324.516 93.1719C326.516 93.1719 328.273 93.5 329.789 94.1562C331.32 94.7969 332.602 95.6953 333.633 96.8516C334.664 98.0078 335.445 99.375 335.977 100.953C336.508 102.516 336.773 104.227 336.773 106.086V106.578C336.773 108.422 336.508 110.133 335.977 111.711C335.445 113.273 334.664 114.641 333.633 115.812C332.602 116.969 331.328 117.867 329.812 118.508C328.297 119.148 326.547 119.469 324.562 119.469C322.578 119.469 320.82 119.148 319.289 118.508C317.758 117.867 316.477 116.969 315.445 115.812C314.414 114.641 313.633 113.273 313.102 111.711C312.57 110.133 312.305 108.422 312.305 106.578ZM320.203 106.086V106.578C320.203 107.531 320.273 108.422 320.414 109.25C320.555 110.078 320.789 110.805 321.117 111.43C321.445 112.039 321.891 112.516 322.453 112.859C323.016 113.203 323.719 113.375 324.562 113.375C325.391 113.375 326.078 113.203 326.625 112.859C327.188 112.516 327.633 112.039 327.961 111.43C328.289 110.805 328.523 110.078 328.664 109.25C328.805 108.422 328.875 107.531 328.875 106.578V106.086C328.875 105.164 328.805 104.297 328.664 103.484C328.523 102.656 328.289 101.93 327.961 101.305C327.633 100.664 327.188 100.164 326.625 99.8047C326.062 99.4453 325.359 99.2656 324.516 99.2656C323.688 99.2656 322.992 99.4453 322.43 99.8047C321.883 100.164 321.445 100.664 321.117 101.305C320.789 101.93 320.555 102.656 320.414 103.484C320.273 104.297 320.203 105.164 320.203 106.086ZM348.047 99.0547V119H340.148V93.6406H347.555L348.047 99.0547ZM347.109 105.453L345.258 105.5C345.258 103.562 345.492 101.836 345.961 100.32C346.43 98.7891 347.094 97.4922 347.953 96.4297C348.812 95.3672 349.836 94.5625 351.023 94.0156C352.227 93.4531 353.562 93.1719 355.031 93.1719C356.203 93.1719 357.273 93.3438 358.242 93.6875C359.227 94.0312 360.07 94.5859 360.773 95.3516C361.492 96.1172 362.039 97.1328 362.414 98.3984C362.805 99.6484 363 101.195 363 103.039V119H355.055V103.016C355.055 102 354.914 101.227 354.633 100.695C354.352 100.148 353.945 99.7734 353.414 99.5703C352.883 99.3672 352.234 99.2656 351.469 99.2656C350.656 99.2656 349.969 99.4219 349.406 99.7344C348.844 100.047 348.391 100.484 348.047 101.047C347.719 101.594 347.477 102.242 347.32 102.992C347.18 103.742 347.109 104.562 347.109 105.453ZM380.742 93.6406V99.125H365.461V93.6406H380.742ZM368.672 87.3359H376.57V110.727C376.57 111.398 376.648 111.922 376.805 112.297C376.961 112.656 377.227 112.914 377.602 113.07C377.992 113.211 378.508 113.281 379.148 113.281C379.602 113.281 379.977 113.273 380.273 113.258C380.57 113.227 380.852 113.188 381.117 113.141V118.789C380.445 119.008 379.742 119.172 379.008 119.281C378.273 119.406 377.492 119.469 376.664 119.469C374.977 119.469 373.531 119.203 372.328 118.672C371.141 118.141 370.234 117.305 369.609 116.164C368.984 115.023 368.672 113.539 368.672 111.711V87.3359ZM396.164 119.469C394.102 119.469 392.258 119.148 390.633 118.508C389.008 117.852 387.633 116.953 386.508 115.812C385.398 114.672 384.547 113.359 383.953 111.875C383.375 110.391 383.086 108.82 383.086 107.164V106.273C383.086 104.414 383.344 102.695 383.859 101.117C384.375 99.5234 385.141 98.1328 386.156 96.9453C387.172 95.7578 388.445 94.8359 389.977 94.1797C391.508 93.5078 393.289 93.1719 395.32 93.1719C397.117 93.1719 398.727 93.4609 400.148 94.0391C401.57 94.6172 402.773 95.4453 403.758 96.5234C404.758 97.6016 405.516 98.9062 406.031 100.438C406.562 101.969 406.828 103.688 406.828 105.594V108.805H386.109V103.859H399.117V103.25C399.133 102.406 398.984 101.688 398.672 101.094C398.375 100.5 397.938 100.047 397.359 99.7344C396.781 99.4219 396.078 99.2656 395.25 99.2656C394.391 99.2656 393.68 99.4531 393.117 99.8281C392.57 100.203 392.141 100.719 391.828 101.375C391.531 102.016 391.32 102.758 391.195 103.602C391.07 104.445 391.008 105.336 391.008 106.273V107.164C391.008 108.102 391.133 108.953 391.383 109.719C391.648 110.484 392.023 111.141 392.508 111.688C393.008 112.219 393.602 112.633 394.289 112.93C394.992 113.227 395.789 113.375 396.68 113.375C397.758 113.375 398.82 113.172 399.867 112.766C400.914 112.359 401.812 111.688 402.562 110.75L406.148 115.016C405.633 115.75 404.898 116.461 403.945 117.148C403.008 117.836 401.883 118.398 400.57 118.836C399.258 119.258 397.789 119.469 396.164 119.469ZM417.797 99.0547V119H409.898V93.6406H417.305L417.797 99.0547ZM416.859 105.453L415.008 105.5C415.008 103.562 415.242 101.836 415.711 100.32C416.18 98.7891 416.844 97.4922 417.703 96.4297C418.562 95.3672 419.586 94.5625 420.773 94.0156C421.977 93.4531 423.312 93.1719 424.781 93.1719C425.953 93.1719 427.023 93.3438 427.992 93.6875C428.977 94.0312 429.82 94.5859 430.523 95.3516C431.242 96.1172 431.789 97.1328 432.164 98.3984C432.555 99.6484 432.75 101.195 432.75 103.039V119H424.805V103.016C424.805 102 424.664 101.227 424.383 100.695C424.102 100.148 423.695 99.7734 423.164 99.5703C422.633 99.3672 421.984 99.2656 421.219 99.2656C420.406 99.2656 419.719 99.4219 419.156 99.7344C418.594 100.047 418.141 100.484 417.797 101.047C417.469 101.594 417.227 102.242 417.07 102.992C416.93 103.742 416.859 104.562 416.859 105.453ZM450.492 93.6406V99.125H435.211V93.6406H450.492ZM438.422 87.3359H446.32V110.727C446.32 111.398 446.398 111.922 446.555 112.297C446.711 112.656 446.977 112.914 447.352 113.07C447.742 113.211 448.258 113.281 448.898 113.281C449.352 113.281 449.727 113.273 450.023 113.258C450.32 113.227 450.602 113.188 450.867 113.141V118.789C450.195 119.008 449.492 119.172 448.758 119.281C448.023 119.406 447.242 119.469 446.414 119.469C444.727 119.469 443.281 119.203 442.078 118.672C440.891 118.141 439.984 117.305 439.359 116.164C438.734 115.023 438.422 113.539 438.422 111.711V87.3359ZM466.922 111.875C466.922 111.438 466.773 111.062 466.477 110.75C466.195 110.422 465.695 110.125 464.977 109.859C464.258 109.578 463.25 109.297 461.953 109.016C460.719 108.75 459.555 108.398 458.461 107.961C457.383 107.523 456.438 106.992 455.625 106.367C454.812 105.742 454.172 105 453.703 104.141C453.25 103.281 453.023 102.297 453.023 101.188C453.023 100.109 453.25 99.0938 453.703 98.1406C454.172 97.1719 454.852 96.3203 455.742 95.5859C456.648 94.8359 457.75 94.25 459.047 93.8281C460.344 93.3906 461.82 93.1719 463.477 93.1719C465.758 93.1719 467.727 93.5234 469.383 94.2266C471.039 94.9141 472.312 95.8828 473.203 97.1328C474.109 98.3672 474.562 99.7969 474.562 101.422H466.664C466.664 100.781 466.555 100.234 466.336 99.7812C466.133 99.3281 465.797 98.9844 465.328 98.75C464.859 98.5 464.234 98.375 463.453 98.375C462.906 98.375 462.406 98.4766 461.953 98.6797C461.516 98.8828 461.164 99.1641 460.898 99.5234C460.633 99.8828 460.5 100.305 460.5 100.789C460.5 101.133 460.578 101.445 460.734 101.727C460.906 101.992 461.164 102.242 461.508 102.477C461.852 102.695 462.289 102.898 462.82 103.086C463.352 103.258 463.992 103.414 464.742 103.555C466.445 103.867 468.039 104.312 469.523 104.891C471.008 105.469 472.211 106.289 473.133 107.352C474.07 108.414 474.539 109.844 474.539 111.641C474.539 112.766 474.281 113.805 473.766 114.758C473.25 115.695 472.508 116.523 471.539 117.242C470.57 117.945 469.406 118.492 468.047 118.883C466.688 119.273 465.156 119.469 463.453 119.469C461.031 119.469 458.984 119.039 457.312 118.18C455.641 117.305 454.375 116.211 453.516 114.898C452.672 113.57 452.25 112.227 452.25 110.867H459.609C459.641 111.648 459.828 112.289 460.172 112.789C460.531 113.289 461.008 113.656 461.602 113.891C462.195 114.125 462.883 114.242 463.664 114.242C464.383 114.242 464.977 114.141 465.445 113.938C465.93 113.734 466.297 113.461 466.547 113.117C466.797 112.758 466.922 112.344 466.922 111.875Z" fill="black"/>
<path d="M1134 0H1348C1356.28 0 1363 6.71573 1363 15V148C1363 156.284 1356.28 163 1348 163H1134V0Z" fill="#00B69B"/>
<path d="M1234.26 103.786H1262.74V109.357H1234.26V103.786ZM1239.96 114.929H1257.04V120.5H1239.96V114.929ZM1248.5 42.5C1240.95 42.5 1233.71 45.4349 1228.37 50.6592C1223.03 55.8834 1220.03 62.969 1220.03 70.3571C1219.84 74.4057 1220.63 78.4412 1222.34 82.1315C1224.05 85.8219 1226.64 89.0616 1229.88 91.5843C1232.73 94.175 1234.26 95.6514 1234.26 98.2143H1239.96C1239.96 93.0886 1236.8 90.2193 1233.72 87.4614C1231.06 85.4676 1228.94 82.8658 1227.55 79.8838C1226.15 76.9019 1225.53 73.6308 1225.72 70.3571C1225.72 64.4466 1228.12 58.7781 1232.39 54.5988C1236.67 50.4194 1242.46 48.0714 1248.5 48.0714C1254.54 48.0714 1260.33 50.4194 1264.61 54.5988C1268.88 58.7781 1271.28 64.4466 1271.28 70.3571C1271.47 73.6333 1270.84 76.9059 1269.44 79.888C1268.04 82.8701 1265.92 85.4706 1263.25 87.4614C1260.2 90.2471 1257.04 93.0329 1257.04 98.2143H1262.74C1262.74 95.6514 1264.25 94.175 1267.12 91.5564C1270.36 89.0381 1272.94 85.8031 1274.66 82.1176C1276.37 78.4321 1277.16 74.4014 1276.97 70.3571C1276.97 66.6989 1276.24 63.0765 1274.81 59.6967C1273.37 56.3169 1271.28 53.2459 1268.63 50.6592C1265.99 48.0724 1262.85 46.0205 1259.4 44.6205C1255.94 43.2205 1252.24 42.5 1248.5 42.5V42.5Z" fill="white"/>
</svg>
