<svg width="1363" height="163" viewBox="0 0 1363 163" fill="none" xmlns="http://www.w3.org/2000/svg">
<path d="M0 15C0 6.71573 6.71573 0 15 0H37V163H15C6.71573 163 0 156.284 0 148V15Z" fill="#424242"/>
<rect width="1097" height="163" transform="translate(37)" fill="#F0F0F0"/>
<path d="M101.906 53.9219L94.3945 51.2383V48.0859L104.602 52.375V54.6367L101.906 53.9219ZM94.3945 56.1719L101.918 53.4297L104.602 52.7852V55.0352L94.3945 59.3242V56.1719ZM122.789 55.3398H126.293C126.223 56.4883 125.906 57.5078 125.344 58.3984C124.789 59.2891 124.012 59.9844 123.012 60.4844C122.02 60.9844 120.824 61.2344 119.426 61.2344C118.332 61.2344 117.352 61.0469 116.484 60.6719C115.617 60.2891 114.875 59.7422 114.258 59.0312C113.648 58.3203 113.184 57.4609 112.863 56.4531C112.543 55.4453 112.383 54.3164 112.383 53.0664V51.8828C112.383 50.6328 112.547 49.5039 112.875 48.4961C113.211 47.4805 113.688 46.6172 114.305 45.9062C114.93 45.1953 115.676 44.6484 116.543 44.2656C117.41 43.8828 118.379 43.6914 119.449 43.6914C120.871 43.6914 122.07 43.9492 123.047 44.4648C124.031 44.9805 124.793 45.6914 125.332 46.5977C125.879 47.5039 126.207 48.5352 126.316 49.6914H122.801C122.762 49.0039 122.625 48.4219 122.391 47.9453C122.156 47.4609 121.801 47.0977 121.324 46.8555C120.855 46.6055 120.23 46.4805 119.449 46.4805C118.863 46.4805 118.352 46.5898 117.914 46.8086C117.477 47.0273 117.109 47.3594 116.812 47.8047C116.516 48.25 116.293 48.8125 116.145 49.4922C116.004 50.1641 115.934 50.9531 115.934 51.8594V53.0664C115.934 53.9492 116 54.7266 116.133 55.3984C116.266 56.0625 116.469 56.625 116.742 57.0859C117.023 57.5391 117.383 57.8828 117.82 58.1172C118.266 58.3438 118.801 58.457 119.426 58.457C120.16 58.457 120.766 58.3398 121.242 58.1055C121.719 57.8711 122.082 57.5234 122.332 57.0625C122.59 56.6016 122.742 56.0273 122.789 55.3398ZM132.152 59.5703L135.516 48.3203H139.137L134.039 62.9102C133.93 63.2305 133.781 63.5742 133.594 63.9414C133.414 64.3086 133.168 64.6562 132.855 64.9844C132.551 65.3203 132.164 65.5938 131.695 65.8047C131.234 66.0156 130.668 66.1211 129.996 66.1211C129.676 66.1211 129.414 66.1016 129.211 66.0625C129.008 66.0234 128.766 65.9688 128.484 65.8984V63.4258C128.57 63.4258 128.66 63.4258 128.754 63.4258C128.848 63.4336 128.938 63.4375 129.023 63.4375C129.469 63.4375 129.832 63.3867 130.113 63.2852C130.395 63.1836 130.621 63.0273 130.793 62.8164C130.965 62.6133 131.102 62.3477 131.203 62.0195L132.152 59.5703ZM130.746 48.3203L133.5 57.5078L133.98 61.082L131.684 61.3281L127.125 48.3203H130.746ZM140.484 43H143.859V58.0938L143.52 61H140.484V43ZM151.887 54.5312V54.7773C151.887 55.7227 151.785 56.5898 151.582 57.3789C151.387 58.168 151.082 58.8516 150.668 59.4297C150.254 60 149.738 60.4453 149.121 60.7656C148.512 61.0781 147.793 61.2344 146.965 61.2344C146.191 61.2344 145.52 61.0781 144.949 60.7656C144.387 60.4531 143.914 60.0117 143.531 59.4414C143.148 58.8711 142.84 58.2031 142.605 57.4375C142.371 56.6719 142.195 55.8359 142.078 54.9297V54.3906C142.195 53.4844 142.371 52.6484 142.605 51.8828C142.84 51.1172 143.148 50.4492 143.531 49.8789C143.914 49.3086 144.387 48.8672 144.949 48.5547C145.512 48.2422 146.176 48.0859 146.941 48.0859C147.777 48.0859 148.504 48.2461 149.121 48.5664C149.746 48.8789 150.262 49.3242 150.668 49.9023C151.082 50.4727 151.387 51.1523 151.582 51.9414C151.785 52.7227 151.887 53.5859 151.887 54.5312ZM148.512 54.7773V54.5312C148.512 54.0156 148.473 53.5312 148.395 53.0781C148.324 52.6172 148.199 52.2148 148.02 51.8711C147.84 51.5195 147.594 51.2422 147.281 51.0391C146.977 50.8359 146.582 50.7344 146.098 50.7344C145.637 50.7344 145.246 50.8125 144.926 50.9688C144.605 51.125 144.34 51.3438 144.129 51.625C143.926 51.9062 143.773 52.2422 143.672 52.6328C143.57 53.0156 143.508 53.4375 143.484 53.8984V55.4336C143.508 56.0508 143.609 56.5977 143.789 57.0742C143.977 57.543 144.258 57.9141 144.633 58.1875C145.016 58.4531 145.512 58.5859 146.121 58.5859C146.598 58.5859 146.992 58.4922 147.305 58.3047C147.617 58.1172 147.859 57.8516 148.031 57.5078C148.211 57.1641 148.336 56.7617 148.406 56.3008C148.477 55.832 148.512 55.3242 148.512 54.7773ZM159.82 61.2344C158.836 61.2344 157.953 61.0781 157.172 60.7656C156.391 60.4453 155.727 60.0039 155.18 59.4414C154.641 58.8789 154.227 58.2266 153.938 57.4844C153.648 56.7344 153.504 55.9375 153.504 55.0938V54.625C153.504 53.6641 153.641 52.7852 153.914 51.9883C154.188 51.1914 154.578 50.5 155.086 49.9141C155.602 49.3281 156.227 48.8789 156.961 48.5664C157.695 48.2461 158.523 48.0859 159.445 48.0859C160.344 48.0859 161.141 48.2344 161.836 48.5312C162.531 48.8281 163.113 49.25 163.582 49.7969C164.059 50.3438 164.418 51 164.66 51.7656C164.902 52.5234 165.023 53.3672 165.023 54.2969V55.7031H154.945V53.4531H161.707V53.1953C161.707 52.7266 161.621 52.3086 161.449 51.9414C161.285 51.5664 161.035 51.2695 160.699 51.0508C160.363 50.832 159.934 50.7227 159.41 50.7227C158.965 50.7227 158.582 50.8203 158.262 51.0156C157.941 51.2109 157.68 51.4844 157.477 51.8359C157.281 52.1875 157.133 52.6016 157.031 53.0781C156.938 53.5469 156.891 54.0625 156.891 54.625V55.0938C156.891 55.6016 156.961 56.0703 157.102 56.5C157.25 56.9297 157.457 57.3008 157.723 57.6133C157.996 57.9258 158.324 58.168 158.707 58.3398C159.098 58.5117 159.539 58.5977 160.031 58.5977C160.641 58.5977 161.207 58.4805 161.73 58.2461C162.262 58.0039 162.719 57.6406 163.102 57.1562L164.742 58.9375C164.477 59.3203 164.113 59.6875 163.652 60.0391C163.199 60.3906 162.652 60.6797 162.012 60.9062C161.371 61.125 160.641 61.2344 159.82 61.2344ZM170.32 51.0859V61H166.945V48.3203H170.121L170.32 51.0859ZM174.141 48.2383L174.082 51.3672C173.918 51.3438 173.719 51.3242 173.484 51.3086C173.258 51.2852 173.051 51.2734 172.863 51.2734C172.387 51.2734 171.973 51.3359 171.621 51.4609C171.277 51.5781 170.988 51.7539 170.754 51.9883C170.527 52.2227 170.355 52.5078 170.238 52.8438C170.129 53.1797 170.066 53.5625 170.051 53.9922L169.371 53.7812C169.371 52.9609 169.453 52.207 169.617 51.5195C169.781 50.8242 170.02 50.2188 170.332 49.7031C170.652 49.1875 171.043 48.7891 171.504 48.5078C171.965 48.2266 172.492 48.0859 173.086 48.0859C173.273 48.0859 173.465 48.1016 173.66 48.1328C173.855 48.1562 174.016 48.1914 174.141 48.2383ZM191.812 55.3398H195.316C195.246 56.4883 194.93 57.5078 194.367 58.3984C193.812 59.2891 193.035 59.9844 192.035 60.4844C191.043 60.9844 189.848 61.2344 188.449 61.2344C187.355 61.2344 186.375 61.0469 185.508 60.6719C184.641 60.2891 183.898 59.7422 183.281 59.0312C182.672 58.3203 182.207 57.4609 181.887 56.4531C181.566 55.4453 181.406 54.3164 181.406 53.0664V51.8828C181.406 50.6328 181.57 49.5039 181.898 48.4961C182.234 47.4805 182.711 46.6172 183.328 45.9062C183.953 45.1953 184.699 44.6484 185.566 44.2656C186.434 43.8828 187.402 43.6914 188.473 43.6914C189.895 43.6914 191.094 43.9492 192.07 44.4648C193.055 44.9805 193.816 45.6914 194.355 46.5977C194.902 47.5039 195.23 48.5352 195.34 49.6914H191.824C191.785 49.0039 191.648 48.4219 191.414 47.9453C191.18 47.4609 190.824 47.0977 190.348 46.8555C189.879 46.6055 189.254 46.4805 188.473 46.4805C187.887 46.4805 187.375 46.5898 186.938 46.8086C186.5 47.0273 186.133 47.3594 185.836 47.8047C185.539 48.25 185.316 48.8125 185.168 49.4922C185.027 50.1641 184.957 50.9531 184.957 51.8594V53.0664C184.957 53.9492 185.023 54.7266 185.156 55.3984C185.289 56.0625 185.492 56.625 185.766 57.0859C186.047 57.5391 186.406 57.8828 186.844 58.1172C187.289 58.3438 187.824 58.457 188.449 58.457C189.184 58.457 189.789 58.3398 190.266 58.1055C190.742 57.8711 191.105 57.5234 191.355 57.0625C191.613 56.6016 191.766 56.0273 191.812 55.3398ZM200.707 43V61H197.332V43H200.707ZM200.227 54.2148H199.301C199.309 53.332 199.426 52.5195 199.652 51.7773C199.879 51.0273 200.203 50.3789 200.625 49.832C201.047 49.2773 201.551 48.8477 202.137 48.543C202.73 48.2383 203.387 48.0859 204.105 48.0859C204.73 48.0859 205.297 48.1758 205.805 48.3555C206.32 48.5273 206.762 48.8086 207.129 49.1992C207.504 49.582 207.793 50.0859 207.996 50.7109C208.199 51.3359 208.301 52.0938 208.301 52.9844V61H204.902V52.9609C204.902 52.3984 204.82 51.957 204.656 51.6367C204.5 51.3086 204.27 51.0781 203.965 50.9453C203.668 50.8047 203.301 50.7344 202.863 50.7344C202.379 50.7344 201.965 50.8242 201.621 51.0039C201.285 51.1836 201.016 51.4336 200.812 51.7539C200.609 52.0664 200.461 52.4336 200.367 52.8555C200.273 53.2773 200.227 53.7305 200.227 54.2148ZM217.711 58.1406V52.4922C217.711 52.0859 217.645 51.7383 217.512 51.4492C217.379 51.1523 217.172 50.9219 216.891 50.7578C216.617 50.5938 216.262 50.5117 215.824 50.5117C215.449 50.5117 215.125 50.5781 214.852 50.7109C214.578 50.8359 214.367 51.0195 214.219 51.2617C214.07 51.4961 213.996 51.7734 213.996 52.0938H210.621C210.621 51.5547 210.746 51.043 210.996 50.5586C211.246 50.0742 211.609 49.6484 212.086 49.2812C212.562 48.9062 213.129 48.6133 213.785 48.4023C214.449 48.1914 215.191 48.0859 216.012 48.0859C216.996 48.0859 217.871 48.25 218.637 48.5781C219.402 48.9062 220.004 49.3984 220.441 50.0547C220.887 50.7109 221.109 51.5312 221.109 52.5156V57.9414C221.109 58.6367 221.152 59.207 221.238 59.6523C221.324 60.0898 221.449 60.4727 221.613 60.8008V61H218.203C218.039 60.6562 217.914 60.2266 217.828 59.7109C217.75 59.1875 217.711 58.6641 217.711 58.1406ZM218.156 53.2773L218.18 55.1875H216.293C215.848 55.1875 215.461 55.2383 215.133 55.3398C214.805 55.4414 214.535 55.5859 214.324 55.7734C214.113 55.9531 213.957 56.1641 213.855 56.4062C213.762 56.6484 213.715 56.9141 213.715 57.2031C213.715 57.4922 213.781 57.7539 213.914 57.9883C214.047 58.2148 214.238 58.3945 214.488 58.5273C214.738 58.6523 215.031 58.7148 215.367 58.7148C215.875 58.7148 216.316 58.6133 216.691 58.4102C217.066 58.207 217.355 57.957 217.559 57.6602C217.77 57.3633 217.879 57.082 217.887 56.8164L218.777 58.2461C218.652 58.5664 218.48 58.8984 218.262 59.2422C218.051 59.5859 217.781 59.9102 217.453 60.2148C217.125 60.5117 216.73 60.7578 216.27 60.9531C215.809 61.1406 215.262 61.2344 214.629 61.2344C213.824 61.2344 213.094 61.0742 212.438 60.7539C211.789 60.4258 211.273 59.9766 210.891 59.4062C210.516 58.8281 210.328 58.1719 210.328 57.4375C210.328 56.7734 210.453 56.1836 210.703 55.668C210.953 55.1523 211.32 54.7188 211.805 54.3672C212.297 54.0078 212.91 53.7383 213.645 53.5586C214.379 53.3711 215.23 53.2773 216.199 53.2773H218.156ZM227.086 50.7578V65.875H223.711V48.3203H226.84L227.086 50.7578ZM235.113 54.5195V54.7656C235.113 55.6875 235.004 56.543 234.785 57.332C234.574 58.1211 234.262 58.8086 233.848 59.3945C233.434 59.9727 232.918 60.4258 232.301 60.7539C231.691 61.0742 230.988 61.2344 230.191 61.2344C229.418 61.2344 228.746 61.0781 228.176 60.7656C227.605 60.4531 227.125 60.0156 226.734 59.4531C226.352 58.8828 226.043 58.2227 225.809 57.4727C225.574 56.7227 225.395 55.918 225.27 55.0586V54.4141C225.395 53.4922 225.574 52.6484 225.809 51.8828C226.043 51.1094 226.352 50.4414 226.734 49.8789C227.125 49.3086 227.602 48.8672 228.164 48.5547C228.734 48.2422 229.402 48.0859 230.168 48.0859C230.973 48.0859 231.68 48.2383 232.289 48.543C232.906 48.8477 233.422 49.2852 233.836 49.8555C234.258 50.4258 234.574 51.1055 234.785 51.8945C235.004 52.6836 235.113 53.5586 235.113 54.5195ZM231.727 54.7656V54.5195C231.727 53.9805 231.68 53.4844 231.586 53.0312C231.5 52.5703 231.359 52.168 231.164 51.8242C230.977 51.4805 230.727 51.2148 230.414 51.0273C230.109 50.832 229.738 50.7344 229.301 50.7344C228.84 50.7344 228.445 50.8086 228.117 50.957C227.797 51.1055 227.535 51.3203 227.332 51.6016C227.129 51.8828 226.977 52.2188 226.875 52.6094C226.773 53 226.711 53.4414 226.688 53.9336V55.5625C226.727 56.1406 226.836 56.6602 227.016 57.1211C227.195 57.5742 227.473 57.9336 227.848 58.1992C228.223 58.4648 228.715 58.5977 229.324 58.5977C229.77 58.5977 230.145 58.5 230.449 58.3047C230.754 58.1016 231 57.8242 231.188 57.4727C231.383 57.1211 231.52 56.7148 231.598 56.2539C231.684 55.793 231.727 55.2969 231.727 54.7656ZM243.047 61.2344C242.062 61.2344 241.18 61.0781 240.398 60.7656C239.617 60.4453 238.953 60.0039 238.406 59.4414C237.867 58.8789 237.453 58.2266 237.164 57.4844C236.875 56.7344 236.73 55.9375 236.73 55.0938V54.625C236.73 53.6641 236.867 52.7852 237.141 51.9883C237.414 51.1914 237.805 50.5 238.312 49.9141C238.828 49.3281 239.453 48.8789 240.188 48.5664C240.922 48.2461 241.75 48.0859 242.672 48.0859C243.57 48.0859 244.367 48.2344 245.062 48.5312C245.758 48.8281 246.34 49.25 246.809 49.7969C247.285 50.3438 247.645 51 247.887 51.7656C248.129 52.5234 248.25 53.3672 248.25 54.2969V55.7031H238.172V53.4531H244.934V53.1953C244.934 52.7266 244.848 52.3086 244.676 51.9414C244.512 51.5664 244.262 51.2695 243.926 51.0508C243.59 50.832 243.16 50.7227 242.637 50.7227C242.191 50.7227 241.809 50.8203 241.488 51.0156C241.168 51.2109 240.906 51.4844 240.703 51.8359C240.508 52.1875 240.359 52.6016 240.258 53.0781C240.164 53.5469 240.117 54.0625 240.117 54.625V55.0938C240.117 55.6016 240.188 56.0703 240.328 56.5C240.477 56.9297 240.684 57.3008 240.949 57.6133C241.223 57.9258 241.551 58.168 241.934 58.3398C242.324 58.5117 242.766 58.5977 243.258 58.5977C243.867 58.5977 244.434 58.4805 244.957 58.2461C245.488 58.0039 245.945 57.6406 246.328 57.1562L247.969 58.9375C247.703 59.3203 247.34 59.6875 246.879 60.0391C246.426 60.3906 245.879 60.6797 245.238 60.9062C244.598 61.125 243.867 61.2344 243.047 61.2344ZM253.547 51.0859V61H250.172V48.3203H253.348L253.547 51.0859ZM257.367 48.2383L257.309 51.3672C257.145 51.3438 256.945 51.3242 256.711 51.3086C256.484 51.2852 256.277 51.2734 256.09 51.2734C255.613 51.2734 255.199 51.3359 254.848 51.4609C254.504 51.5781 254.215 51.7539 253.98 51.9883C253.754 52.2227 253.582 52.5078 253.465 52.8438C253.355 53.1797 253.293 53.5625 253.277 53.9922L252.598 53.7812C252.598 52.9609 252.68 52.207 252.844 51.5195C253.008 50.8242 253.246 50.2188 253.559 49.7031C253.879 49.1875 254.27 48.7891 254.73 48.5078C255.191 48.2266 255.719 48.0859 256.312 48.0859C256.5 48.0859 256.691 48.1016 256.887 48.1328C257.082 48.1562 257.242 48.1914 257.367 48.2383ZM258.07 54.7891V54.543C258.07 53.6133 258.203 52.7578 258.469 51.9766C258.734 51.1875 259.121 50.5039 259.629 49.9258C260.137 49.3477 260.762 48.8984 261.504 48.5781C262.246 48.25 263.098 48.0859 264.059 48.0859C265.02 48.0859 265.875 48.25 266.625 48.5781C267.375 48.8984 268.004 49.3477 268.512 49.9258C269.027 50.5039 269.418 51.1875 269.684 51.9766C269.949 52.7578 270.082 53.6133 270.082 54.543V54.7891C270.082 55.7109 269.949 56.5664 269.684 57.3555C269.418 58.1367 269.027 58.8203 268.512 59.4062C268.004 59.9844 267.379 60.4336 266.637 60.7539C265.895 61.0742 265.043 61.2344 264.082 61.2344C263.121 61.2344 262.266 61.0742 261.516 60.7539C260.773 60.4336 260.145 59.9844 259.629 59.4062C259.121 58.8203 258.734 58.1367 258.469 57.3555C258.203 56.5664 258.07 55.7109 258.07 54.7891ZM261.445 54.543V54.7891C261.445 55.3203 261.492 55.8164 261.586 56.2773C261.68 56.7383 261.828 57.1445 262.031 57.4961C262.242 57.8398 262.516 58.1094 262.852 58.3047C263.188 58.5 263.598 58.5977 264.082 58.5977C264.551 58.5977 264.953 58.5 265.289 58.3047C265.625 58.1094 265.895 57.8398 266.098 57.4961C266.301 57.1445 266.449 56.7383 266.543 56.2773C266.645 55.8164 266.695 55.3203 266.695 54.7891V54.543C266.695 54.0273 266.645 53.543 266.543 53.0898C266.449 52.6289 266.297 52.2227 266.086 51.8711C265.883 51.5117 265.613 51.2305 265.277 51.0273C264.941 50.8242 264.535 50.7227 264.059 50.7227C263.582 50.7227 263.176 50.8242 262.84 51.0273C262.512 51.2305 262.242 51.5117 262.031 51.8711C261.828 52.2227 261.68 52.6289 261.586 53.0898C261.492 53.543 261.445 54.0273 261.445 54.543ZM275.461 51.0273V61H272.086V48.3203H275.25L275.461 51.0273ZM274.969 54.2148H274.055C274.055 53.2773 274.176 52.4336 274.418 51.6836C274.66 50.9258 275 50.2812 275.438 49.75C275.875 49.2109 276.395 48.8008 276.996 48.5195C277.605 48.2305 278.285 48.0859 279.035 48.0859C279.629 48.0859 280.172 48.1719 280.664 48.3438C281.156 48.5156 281.578 48.7891 281.93 49.1641C282.289 49.5391 282.562 50.0352 282.75 50.6523C282.945 51.2695 283.043 52.0234 283.043 52.9141V61H279.645V52.9023C279.645 52.3398 279.566 51.9023 279.41 51.5898C279.254 51.2773 279.023 51.0586 278.719 50.9336C278.422 50.8008 278.055 50.7344 277.617 50.7344C277.164 50.7344 276.77 50.8242 276.434 51.0039C276.105 51.1836 275.832 51.4336 275.613 51.7539C275.402 52.0664 275.242 52.4336 275.133 52.8555C275.023 53.2773 274.969 53.7305 274.969 54.2148ZM291.445 61.2344C290.461 61.2344 289.578 61.0781 288.797 60.7656C288.016 60.4453 287.352 60.0039 286.805 59.4414C286.266 58.8789 285.852 58.2266 285.562 57.4844C285.273 56.7344 285.129 55.9375 285.129 55.0938V54.625C285.129 53.6641 285.266 52.7852 285.539 51.9883C285.812 51.1914 286.203 50.5 286.711 49.9141C287.227 49.3281 287.852 48.8789 288.586 48.5664C289.32 48.2461 290.148 48.0859 291.07 48.0859C291.969 48.0859 292.766 48.2344 293.461 48.5312C294.156 48.8281 294.738 49.25 295.207 49.7969C295.684 50.3438 296.043 51 296.285 51.7656C296.527 52.5234 296.648 53.3672 296.648 54.2969V55.7031H286.57V53.4531H293.332V53.1953C293.332 52.7266 293.246 52.3086 293.074 51.9414C292.91 51.5664 292.66 51.2695 292.324 51.0508C291.988 50.832 291.559 50.7227 291.035 50.7227C290.59 50.7227 290.207 50.8203 289.887 51.0156C289.566 51.2109 289.305 51.4844 289.102 51.8359C288.906 52.1875 288.758 52.6016 288.656 53.0781C288.562 53.5469 288.516 54.0625 288.516 54.625V55.0938C288.516 55.6016 288.586 56.0703 288.727 56.5C288.875 56.9297 289.082 57.3008 289.348 57.6133C289.621 57.9258 289.949 58.168 290.332 58.3398C290.723 58.5117 291.164 58.5977 291.656 58.5977C292.266 58.5977 292.832 58.4805 293.355 58.2461C293.887 58.0039 294.344 57.6406 294.727 57.1562L296.367 58.9375C296.102 59.3203 295.738 59.6875 295.277 60.0391C294.824 60.3906 294.277 60.6797 293.637 60.9062C292.996 61.125 292.266 61.2344 291.445 61.2344Z" fill="#888888"/>
<path d="M112.125 84.875V119H103.898V84.875H112.125ZM122.391 84.875V91.2266H93.8672V84.875H122.391ZM135.68 119.469C133.617 119.469 131.773 119.148 130.148 118.508C128.523 117.852 127.148 116.953 126.023 115.812C124.914 114.672 124.062 113.359 123.469 111.875C122.891 110.391 122.602 108.82 122.602 107.164V106.273C122.602 104.414 122.859 102.695 123.375 101.117C123.891 99.5234 124.656 98.1328 125.672 96.9453C126.688 95.7578 127.961 94.8359 129.492 94.1797C131.023 93.5078 132.805 93.1719 134.836 93.1719C136.633 93.1719 138.242 93.4609 139.664 94.0391C141.086 94.6172 142.289 95.4453 143.273 96.5234C144.273 97.6016 145.031 98.9062 145.547 100.438C146.078 101.969 146.344 103.688 146.344 105.594V108.805H125.625V103.859H138.633V103.25C138.648 102.406 138.5 101.688 138.188 101.094C137.891 100.5 137.453 100.047 136.875 99.7344C136.297 99.4219 135.594 99.2656 134.766 99.2656C133.906 99.2656 133.195 99.4531 132.633 99.8281C132.086 100.203 131.656 100.719 131.344 101.375C131.047 102.016 130.836 102.758 130.711 103.602C130.586 104.445 130.523 105.336 130.523 106.273V107.164C130.523 108.102 130.648 108.953 130.898 109.719C131.164 110.484 131.539 111.141 132.023 111.688C132.523 112.219 133.117 112.633 133.805 112.93C134.508 113.227 135.305 113.375 136.195 113.375C137.273 113.375 138.336 113.172 139.383 112.766C140.43 112.359 141.328 111.688 142.078 110.75L145.664 115.016C145.148 115.75 144.414 116.461 143.461 117.148C142.523 117.836 141.398 118.398 140.086 118.836C138.773 119.258 137.305 119.469 135.68 119.469ZM160.266 113.375C161 113.375 161.625 113.242 162.141 112.977C162.672 112.695 163.07 112.305 163.336 111.805C163.617 111.289 163.75 110.672 163.734 109.953H171.164C171.18 111.859 170.711 113.531 169.758 114.969C168.82 116.391 167.539 117.5 165.914 118.297C164.305 119.078 162.484 119.469 160.453 119.469C158.469 119.469 156.734 119.148 155.25 118.508C153.766 117.852 152.523 116.945 151.523 115.789C150.539 114.617 149.797 113.25 149.297 111.688C148.812 110.125 148.57 108.43 148.57 106.602V106.062C148.57 104.234 148.812 102.539 149.297 100.977C149.797 99.3984 150.539 98.0312 151.523 96.875C152.523 95.7031 153.758 94.7969 155.227 94.1562C156.711 93.5 158.438 93.1719 160.406 93.1719C162.516 93.1719 164.375 93.5703 165.984 94.3672C167.609 95.1641 168.883 96.3203 169.805 97.8359C170.727 99.3516 171.18 101.188 171.164 103.344H163.734C163.75 102.578 163.633 101.891 163.383 101.281C163.133 100.672 162.742 100.188 162.211 99.8281C161.695 99.4531 161.031 99.2656 160.219 99.2656C159.406 99.2656 158.75 99.4453 158.25 99.8047C157.75 100.164 157.367 100.664 157.102 101.305C156.852 101.93 156.68 102.648 156.586 103.461C156.508 104.273 156.469 105.141 156.469 106.062V106.602C156.469 107.539 156.508 108.422 156.586 109.25C156.68 110.062 156.859 110.781 157.125 111.406C157.391 112.016 157.773 112.5 158.273 112.859C158.773 113.203 159.438 113.375 160.266 113.375ZM182.273 83V119H174.375V83H182.273ZM181.336 105.453L179.484 105.5C179.484 103.719 179.703 102.078 180.141 100.578C180.578 99.0781 181.203 97.7734 182.016 96.6641C182.828 95.5547 183.805 94.6953 184.945 94.0859C186.086 93.4766 187.352 93.1719 188.742 93.1719C189.992 93.1719 191.133 93.3516 192.164 93.7109C193.211 94.0703 194.109 94.6484 194.859 95.4453C195.625 96.2422 196.211 97.2812 196.617 98.5625C197.039 99.8438 197.25 101.406 197.25 103.25V119H189.305V103.203C189.305 102.172 189.156 101.375 188.859 100.812C188.578 100.234 188.172 99.8359 187.641 99.6172C187.109 99.3828 186.461 99.2656 185.695 99.2656C184.773 99.2656 184.023 99.4219 183.445 99.7344C182.867 100.047 182.422 100.484 182.109 101.047C181.812 101.594 181.609 102.242 181.5 102.992C181.391 103.742 181.336 104.562 181.336 105.453ZM231.539 109.93C231.539 109.398 231.461 108.922 231.305 108.5C231.148 108.062 230.859 107.656 230.438 107.281C230.016 106.906 229.406 106.531 228.609 106.156C227.828 105.766 226.797 105.359 225.516 104.938C224.016 104.438 222.57 103.875 221.18 103.25C219.789 102.609 218.547 101.867 217.453 101.023C216.359 100.164 215.492 99.1641 214.852 98.0234C214.211 96.8672 213.891 95.5234 213.891 93.9922C213.891 92.5234 214.219 91.2031 214.875 90.0312C215.531 88.8438 216.445 87.8359 217.617 87.0078C218.805 86.1641 220.195 85.5234 221.789 85.0859C223.383 84.6328 225.125 84.4062 227.016 84.4062C229.516 84.4062 231.719 84.8438 233.625 85.7188C235.547 86.5781 237.047 87.8047 238.125 89.3984C239.219 90.9766 239.766 92.8438 239.766 95H231.586C231.586 94.1406 231.406 93.3828 231.047 92.7266C230.703 92.0703 230.18 91.5547 229.477 91.1797C228.773 90.8047 227.891 90.6172 226.828 90.6172C225.797 90.6172 224.93 90.7734 224.227 91.0859C223.523 91.3984 222.992 91.8203 222.633 92.3516C222.273 92.8672 222.094 93.4375 222.094 94.0625C222.094 94.5781 222.234 95.0469 222.516 95.4688C222.812 95.875 223.227 96.2578 223.758 96.6172C224.305 96.9766 224.961 97.3203 225.727 97.6484C226.508 97.9766 227.383 98.2969 228.352 98.6094C230.164 99.1875 231.773 99.8359 233.18 100.555C234.602 101.258 235.797 102.062 236.766 102.969C237.75 103.859 238.492 104.875 238.992 106.016C239.508 107.156 239.766 108.445 239.766 109.883C239.766 111.414 239.469 112.773 238.875 113.961C238.281 115.148 237.43 116.156 236.32 116.984C235.211 117.797 233.883 118.414 232.336 118.836C230.789 119.258 229.062 119.469 227.156 119.469C225.406 119.469 223.68 119.25 221.977 118.812C220.289 118.359 218.758 117.672 217.383 116.75C216.008 115.812 214.906 114.617 214.078 113.164C213.266 111.695 212.859 109.953 212.859 107.938H221.109C221.109 108.938 221.242 109.781 221.508 110.469C221.773 111.156 222.164 111.711 222.68 112.133C223.195 112.539 223.828 112.836 224.578 113.023C225.328 113.195 226.188 113.281 227.156 113.281C228.203 113.281 229.047 113.133 229.688 112.836C230.328 112.523 230.797 112.117 231.094 111.617C231.391 111.102 231.539 110.539 231.539 109.93ZM256.992 93.6406V99.125H241.711V93.6406H256.992ZM244.922 87.3359H252.82V110.727C252.82 111.398 252.898 111.922 253.055 112.297C253.211 112.656 253.477 112.914 253.852 113.07C254.242 113.211 254.758 113.281 255.398 113.281C255.852 113.281 256.227 113.273 256.523 113.258C256.82 113.227 257.102 113.188 257.367 113.141V118.789C256.695 119.008 255.992 119.172 255.258 119.281C254.523 119.406 253.742 119.469 252.914 119.469C251.227 119.469 249.781 119.203 248.578 118.672C247.391 118.141 246.484 117.305 245.859 116.164C245.234 115.023 244.922 113.539 244.922 111.711V87.3359ZM273.305 112.625V102.172C273.305 101.453 273.203 100.836 273 100.32C272.797 99.8047 272.477 99.4062 272.039 99.125C271.602 98.8281 271.016 98.6797 270.281 98.6797C269.688 98.6797 269.18 98.7812 268.758 98.9844C268.336 99.1875 268.016 99.4922 267.797 99.8984C267.578 100.305 267.469 100.82 267.469 101.445H259.57C259.57 100.273 259.828 99.1875 260.344 98.1875C260.875 97.1719 261.625 96.2891 262.594 95.5391C263.578 94.7891 264.75 94.2109 266.109 93.8047C267.484 93.3828 269.016 93.1719 270.703 93.1719C272.719 93.1719 274.516 93.5078 276.094 94.1797C277.688 94.8516 278.945 95.8594 279.867 97.2031C280.789 98.5312 281.25 100.203 281.25 102.219V112.602C281.25 114.258 281.344 115.516 281.531 116.375C281.719 117.219 281.984 117.961 282.328 118.602V119H274.406C274.031 118.219 273.75 117.266 273.562 116.141C273.391 115 273.305 113.828 273.305 112.625ZM274.266 103.508L274.312 107.727H270.82C270.086 107.727 269.461 107.828 268.945 108.031C268.445 108.234 268.039 108.516 267.727 108.875C267.43 109.219 267.211 109.609 267.07 110.047C266.945 110.484 266.883 110.945 266.883 111.43C266.883 111.898 266.992 112.32 267.211 112.695C267.445 113.055 267.758 113.336 268.148 113.539C268.539 113.742 268.977 113.844 269.461 113.844C270.336 113.844 271.078 113.68 271.688 113.352C272.312 113.008 272.789 112.594 273.117 112.109C273.445 111.625 273.609 111.172 273.609 110.75L275.344 113.984C275.031 114.609 274.672 115.242 274.266 115.883C273.875 116.523 273.383 117.117 272.789 117.664C272.211 118.195 271.5 118.633 270.656 118.977C269.812 119.305 268.789 119.469 267.586 119.469C266.023 119.469 264.586 119.148 263.273 118.508C261.977 117.867 260.938 116.977 260.156 115.836C259.375 114.68 258.984 113.352 258.984 111.852C258.984 110.539 259.219 109.367 259.688 108.336C260.172 107.305 260.898 106.43 261.867 105.711C262.836 104.992 264.07 104.445 265.57 104.07C267.07 103.695 268.836 103.508 270.867 103.508H274.266ZM296.344 113.375C297.078 113.375 297.703 113.242 298.219 112.977C298.75 112.695 299.148 112.305 299.414 111.805C299.695 111.289 299.828 110.672 299.812 109.953H307.242C307.258 111.859 306.789 113.531 305.836 114.969C304.898 116.391 303.617 117.5 301.992 118.297C300.383 119.078 298.562 119.469 296.531 119.469C294.547 119.469 292.812 119.148 291.328 118.508C289.844 117.852 288.602 116.945 287.602 115.789C286.617 114.617 285.875 113.25 285.375 111.688C284.891 110.125 284.648 108.43 284.648 106.602V106.062C284.648 104.234 284.891 102.539 285.375 100.977C285.875 99.3984 286.617 98.0312 287.602 96.875C288.602 95.7031 289.836 94.7969 291.305 94.1562C292.789 93.5 294.516 93.1719 296.484 93.1719C298.594 93.1719 300.453 93.5703 302.062 94.3672C303.688 95.1641 304.961 96.3203 305.883 97.8359C306.805 99.3516 307.258 101.188 307.242 103.344H299.812C299.828 102.578 299.711 101.891 299.461 101.281C299.211 100.672 298.82 100.188 298.289 99.8281C297.773 99.4531 297.109 99.2656 296.297 99.2656C295.484 99.2656 294.828 99.4453 294.328 99.8047C293.828 100.164 293.445 100.664 293.18 101.305C292.93 101.93 292.758 102.648 292.664 103.461C292.586 104.273 292.547 105.141 292.547 106.062V106.602C292.547 107.539 292.586 108.422 292.664 109.25C292.758 110.062 292.938 110.781 293.203 111.406C293.469 112.016 293.852 112.5 294.352 112.859C294.852 113.203 295.516 113.375 296.344 113.375ZM318.586 82.9766V119H310.688V82.9766H318.586ZM334.805 93.6406L323.789 106.555L318.023 112.32L314.578 107.305L319.383 101.047L325.336 93.6406H334.805ZM326.344 119L319.57 107.445L325.406 103.297L335.391 119H326.344Z" fill="black"/>
<path d="M1134 0H1348C1356.28 0 1363 6.71573 1363 15V148C1363 156.284 1356.28 163 1348 163H1134V0Z" fill="#00B69B"/>
<path fill-rule="evenodd" clip-rule="evenodd" d="M1218.75 53C1218.62 53 1218.49 53.0527 1218.4 53.1464C1218.3 53.2402 1218.25 53.3674 1218.25 53.5V109.5C1218.25 109.633 1218.3 109.76 1218.4 109.854C1218.49 109.947 1218.62 110 1218.75 110H1278.25C1278.38 110 1278.51 109.947 1278.6 109.854C1278.7 109.76 1278.75 109.633 1278.75 109.5V64C1278.75 63.8674 1278.7 63.7402 1278.6 63.6464C1278.51 63.5527 1278.38 63.5 1278.25 63.5H1248.5C1247.61 63.5 1246.77 63.1045 1246.2 62.4206L1238.34 53H1218.75ZM1214.15 48.9038C1215.37 47.6848 1217.03 47 1218.75 47H1239.75C1240.64 47 1241.48 47.3955 1242.05 48.0794L1249.91 57.5H1278.25C1279.97 57.5 1281.63 58.1848 1282.85 59.4038C1284.07 60.6228 1284.75 62.2761 1284.75 64V109.5C1284.75 111.224 1284.07 112.877 1282.85 114.096C1281.63 115.315 1279.97 116 1278.25 116H1218.75C1217.03 116 1215.37 115.315 1214.15 114.096C1212.93 112.877 1212.25 111.224 1212.25 109.5V53.5C1212.25 51.7761 1212.93 50.1228 1214.15 48.9038Z" fill="white"/>
<path fill-rule="evenodd" clip-rule="evenodd" d="M1243.97 75.5251C1245.34 76.892 1245.34 79.108 1243.97 80.4749L1237.7 86.75L1243.97 93.0251C1245.34 94.392 1245.34 96.608 1243.97 97.9749C1242.61 99.3417 1240.39 99.3417 1239.03 97.9749L1230.28 89.2249C1228.91 87.858 1228.91 85.642 1230.28 84.2751L1239.03 75.5251C1240.39 74.1583 1242.61 74.1583 1243.97 75.5251Z" fill="white"/>
<path fill-rule="evenodd" clip-rule="evenodd" d="M1252.28 97.9749C1250.91 96.608 1250.91 94.392 1252.28 93.0251L1258.55 86.75L1252.28 80.4749C1250.91 79.108 1250.91 76.892 1252.28 75.5251C1253.64 74.1583 1255.86 74.1583 1257.22 75.5251L1265.97 84.2751C1267.34 85.642 1267.34 87.858 1265.97 89.2249L1257.22 97.9749C1255.86 99.3417 1253.64 99.3417 1252.28 97.9749Z" fill="white"/>
</svg>
